<svg version="1.1" id="Layer_1" xmlns="http://www.w3.org/2000/svg" xmlns:xlink="http://www.w3.org/1999/xlink" x="0px" y="0px"
	 viewBox="0 0 1921 69" style="enable-background:new 0 0 1921 69;" xml:space="preserve">
<style type="text/css">
	.a1wa{fill-rule:evenodd;clip-rule:evenodd;}
	.a1wa2{opacity:0.7;fill-rule:evenodd;clip-rule:evenodd;fill:url(#SVGID_1_);}
</style>
<g id="Mask">
	<rect id="path-1_1_" class="a1wa" width="1921" height="69"/>
</g>
<linearGradient id="SVGID_1_" gradientUnits="userSpaceOnUse" x1="0" y1="34.5" x2="1921" y2="34.5">
	<stop  offset="0" style="stop-color:#BE9C5B;stop-opacity:0"/>
	<stop  offset="1" style="stop-color:#BE9C5B"/>
</linearGradient>
<path class="a1wa2" d="M1172.2,46.6l-6.4-11.5l-13.6,0c0-0.1,0-0.2,0-0.3l0-0.1l0-0.2l13.7,0l0.5,0.3l6.3,11.4
	c-0.1,0.1-0.2,0.1-0.3,0.2L1172.2,46.6z M1172.9,22.7c-0.1-0.1-0.3-0.1-0.4-0.2l-6.7,12h0.7l3.7-6.7l2.8-5L1172.9,22.7z
	 M1146.1,38.5c-0.1-0.1-0.2-0.1-0.3-0.2l-6.7,12l-8.9,0l-4.9,0l0,0.1c0,0.1,0,0.3-0.1,0.4l5,0l8.9,0l6.6,11.9l0.2-0.1
	c0.1-0.1,0.2-0.1,0.3-0.2l-6.7-12l6.7-12L1146.1,38.5z M1167.5,0l-1.7,3l-13.7,0l0,0.2l0,0.1c0,0.1,0,0.2,0,0.3l13.6,0l6.7,11.9
	l0.1-0.1c0.1-0.1,0.3-0.1,0.4-0.2l-6.6-12l1.8-3.3H1167.5z M1123.8,46.6l6.4-11.5l13.6,0l0-0.2l0-0.1c0-0.1,0-0.2,0-0.3l-13.7,0
	l-0.5,0.3l-6.3,11.4l0.2,0.1C1123.6,46.4,1123.7,46.5,1123.8,46.6z M1130.2,34.5l-6.7-12c-0.2,0.1-0.3,0.2-0.5,0.3l2.8,5l3.7,6.7
	H1130.2z M1182.5,3.3l-6.6,12l0.1,0.1c0.1,0.1,0.3,0.1,0.4,0.2l0-0.1l0.1,0.1l6.7-11.9l13.6,0l0-0.2l0-0.1c0-0.1,0-0.2,0-0.3
	l-13.7,0l-1.7-3h-0.8L1182.5,3.3z M1150,31.1c0.1,0.1,0.2,0.1,0.3,0.2l6.6-11.9l8.9,0l4.9,0l0-0.2l0-0.1c0-0.1,0-0.2,0-0.3l-13.7,0
	l-6.7-12l-0.2,0.1c-0.1,0.1-0.2,0.1-0.3,0.2l6.7,12l-6.7,12L1150,31.1z M1176.7,46.6L1176.7,46.6h0.1l6.4-11.5l13.6,0l0-0.2l0-0.1
	c0-0.1,0-0.2,0-0.3l-13.8,0l-0.5,0.3l-6.3,11.4l0.2,0.1C1176.4,46.4,1176.5,46.5,1176.7,46.6z M1192.6,19l6.7-12l-0.2-0.1
	c-0.1-0.1-0.2-0.1-0.3-0.2l0,0.1l-0.1-0.1l-6.7,12l-13.7,0l0,0.1c0,0.1,0,0.1,0,0.2c0,0.1,0,0.2,0,0.3l4.9,0l8.8,0l6.6,11.9l0.1-0.1
	l0,0.1l0.2-0.1c0.1-0.1,0.2-0.1,0.3-0.2L1192.6,19z M1043,31.1c0.1,0.1,0.2,0.1,0.3,0.2l6.6-11.9l8.9,0l4.9,0l0-0.2l0-0.1
	c0-0.1,0-0.2,0-0.3l-13.7,0l-6.7-12l-0.2,0.1c-0.1,0.1-0.2,0.1-0.3,0.2l6.7,12l-6.7,12L1043,31.1z M1139.6,19l6.7-12l-0.2-0.1
	c-0.1-0.1-0.2-0.1-0.3-0.2l-6.7,12l-13.7,0l0,0.1c0,0.1,0,0.1,0,0.2c0,0.1,0,0.2,0,0.3l4.9,0l8.9,0l6.6,11.9l0.2-0.1
	c0.1-0.1,0.2-0.1,0.3-0.2L1139.6,19z M1150,62.6c0.1,0.1,0.2,0.1,0.3,0.2l6.6-11.9l8.9,0l5,0l0-0.1c0-0.1,0-0.3-0.1-0.4l-4.9,0
	l-8.9,0l-6.7-12l-0.2,0.1c-0.1,0.1-0.2,0.1-0.3,0.2l6.7,12l-6.7,12L1150,62.6z M1092.1,38.5c-0.1-0.1-0.2-0.1-0.3-0.2l0,0.1
	l-0.1-0.1l-6.7,12l-8.8,0l-5,0l0,0.1c0,0.1,0,0.3-0.1,0.4l5.1,0l8.8,0l6.6,11.9l0.1-0.1l0,0.1l0.2-0.1c0.1-0.1,0.2-0.1,0.3-0.2
	l-6.7-12l6.7-12L1092.1,38.5z M1085.6,19l6.7-12l-0.2-0.1c-0.1-0.1-0.2-0.1-0.3-0.2l0,0.1l-0.1-0.1l-6.7,12l-13.7,0l0,0.2l0,0.1
	c0,0.1,0,0.2,0,0.3l4.9,0l8.8,0l6.6,11.9l0.1-0.1l0,0.1l0.2-0.1c0.1-0.1,0.2-0.1,0.3-0.2L1085.6,19z M1076.1,34.5l-6.7-12
	c-0.2,0.1-0.3,0.2-0.5,0.3l2.8,5l3.7,6.7H1076.1z M1129.7,3.3l-6.6,12l0.1,0.1c0.1,0.1,0.3,0.1,0.4,0.2l6.7-11.9l13.6,0l0-0.2l0-0.1
	c0-0.1,0-0.2,0-0.3l-13.7,0l-1.7-3h-0.7L1129.7,3.3z M1075.5,3.3l-6.6,12l0.1,0.1c0.1,0.1,0.3,0.1,0.4,0.2l0-0.1l0.1,0.1l6.7-11.9
	l13.6,0l0-0.2l0-0.1c0-0.1,0-0.2,0-0.3l-13.7,0l-1.7-3h-0.8L1075.5,3.3z M1199.1,38.5c-0.1-0.1-0.2-0.1-0.3-0.2l0,0.1l-0.1-0.1
	l-6.7,12l-8.8,0l-5,0l0,0.1c0,0.1,0,0.3-0.1,0.4l5.1,0l8.8,0l6.6,11.9l0.1-0.1l0,0.1l0.2-0.1c0.1-0.1,0.2-0.1,0.3-0.2l-6.7-12
	l6.7-12L1199.1,38.5z M1043,62.6c0.1,0.1,0.2,0.1,0.3,0.2l6.6-11.9l8.9,0l5,0l0-0.1c0-0.1,0-0.3-0.1-0.4l-4.9,0l-8.9,0l-6.7-12
	l-0.2,0.1c-0.1,0.1-0.2,0.1-0.3,0.2l6.7,12l-6.7,12L1043,62.6z M1069.7,46.6L1069.7,46.6h0.1l6.4-11.5l13.6,0l0-0.2l0-0.1
	c0-0.1,0-0.2,0-0.3l-13.8,0l-0.5,0.3l-6.3,11.4l0.2,0.1C1069.5,46.4,1069.6,46.5,1069.7,46.6z M1095.8,62.6c0.1,0.1,0.2,0.1,0.3,0.2
	l0-0.1l0.1,0.1l6.6-11.9l8.8,0l5.1,0l0-0.1c0-0.1,0-0.3-0.1-0.4l-5,0l-8.8,0l-6.7-12l-0.1,0.1l0-0.1l-0.2,0.1
	c-0.1,0.1-0.2,0.1-0.3,0.2l6.7,12l-6.7,12L1095.8,62.6z M1118.8,22.7c-0.1-0.1-0.3-0.1-0.4-0.2l-6.7,12h0.7l3.7-6.7l2.8-5
	L1118.8,22.7z M1113.4,0l-1.7,3L1098,3l0,0.2l0,0.1c0,0.1,0,0.2,0,0.3l13.6,0l6.7,11.9l0.1-0.1l0,0.1l0.1-0.1
	c0.1-0.1,0.3-0.1,0.4-0.2l-6.6-12l1.8-3.3H1113.4z M1118.2,46.5L1118.2,46.5l0.2,0c0.1-0.1,0.2-0.1,0.3-0.2l-6.3-11.4l-0.5-0.3
	l-13.8,0l0,0.2l0,0.1c0,0.1,0,0.2,0,0.3l13.6,0l6.4,11.5L1118.2,46.5z M1095.8,31.1c0.1,0.1,0.2,0.1,0.3,0.2l0-0.1l0.1,0.1l6.6-11.9
	l8.7,0l5,0l0-0.2l0-0.1c0-0.1,0-0.2,0-0.3l-13.7,0l-6.7-12l-0.1,0.1l0-0.1l-0.2,0.1c-0.1,0.1-0.2,0.1-0.3,0.2l6.7,12l-6.7,12
	L1095.8,31.1z M1202.8,31.1c0.1,0.1,0.2,0.1,0.3,0.2l0-0.1l0.1,0.1l6.6-11.9l8.7,0l5,0l0-0.2l0-0.1l0-0.1l0-0.2l-13.7,0l-6.7-12
	l-0.1,0.1l0-0.1l-0.2,0.1c-0.1,0.1-0.2,0.1-0.3,0.2l6.7,12l-6.7,12L1202.8,31.1z M1256.9,31.1c0.1,0.1,0.2,0.1,0.3,0.2l6.6-11.9
	l8.9,0l4.9,0l0-0.2l0-0.1c0-0.1,0-0.2,0-0.3l-13.7,0l-6.7-12l-0.2,0.1c-0.1,0.1-0.2,0.1-0.3,0.2l6.7,12l-6.7,12L1256.9,31.1z
	 M1290,34.5l-6.7-12c-0.2,0.1-0.3,0.2-0.5,0.3l2.8,5l3.7,6.7H1290z M1306,38.5c-0.1-0.1-0.2-0.1-0.3-0.2l0,0.1l-0.1-0.1l-6.7,12
	l-8.8,0l-5,0l0,0.1c0,0.1,0,0.3-0.1,0.4l5.1,0l8.8,0l6.6,11.9l0.1-0.1l0,0.1l0.2-0.1c0.1-0.1,0.2-0.1,0.3-0.2l-6.7-12l6.7-12
	L1306,38.5z M1283.6,46.6L1283.6,46.6h0.1l6.4-11.5l13.6,0l0-0.1c0-0.1,0-0.1,0-0.2c0-0.1,0-0.2,0-0.3l-13.8,0l-0.5,0.3l-6.3,11.4
	l0.2,0.1C1283.4,46.4,1283.5,46.5,1283.6,46.6z M1257,62.6c0.1,0.1,0.2,0.1,0.3,0.2l6.6-11.9l8.9,0l5,0l0-0.1c0-0.1,0-0.3-0.1-0.4
	l-4.9,0l-8.9,0l-6.7-12l-0.2,0.1c-0.1,0.1-0.2,0.1-0.3,0.2l6.7,12l-6.7,12L1257,62.6z M1289.5,3.3l-6.6,12l0.1,0.1
	c0.1,0.1,0.3,0.1,0.4,0.2l0-0.1l0.1,0.1l6.7-11.9l13.6,0l0-0.2l0-0.1c0-0.1,0-0.2,0-0.3l-13.7,0l-1.7-3h-0.8L1289.5,3.3z M1299.5,19
	l6.7-12L1306,7c-0.1-0.1-0.2-0.1-0.3-0.2l0,0.1l-0.1-0.1l-6.7,12l-13.7,0l0,0.2l0,0.1c0,0.1,0,0.2,0,0.3l4.9,0l8.8,0l6.6,11.9
	l0.1-0.1l0,0.1l0.2-0.1c0.1-0.1,0.2-0.1,0.3-0.2L1299.5,19z M1327.3,0l-1.7,3L1312,3l0,0.2l0,0.1c0,0.1,0,0.2,0,0.3l13.6,0l6.7,11.9
	l0.1-0.1l0,0.1l0.1-0.1c0.1-0.1,0.3-0.1,0.4-0.2l-6.6-12l1.8-3.3H1327.3z M1343.6,3.3l-6.6,12l0.1,0.1c0.1,0.1,0.3,0.1,0.4,0.2
	l6.7-11.9l13.6,0l0-0.2l0-0.1c0-0.1,0-0.2,0-0.3l-13.7,0l-1.7-3h-0.7L1343.6,3.3z M1309.8,62.6c0.1,0.1,0.2,0.1,0.3,0.2l0-0.1
	l0.1,0.1l6.6-11.9l8.8,0l5.1,0l0-0.1c0-0.1,0-0.3-0.1-0.4l-5,0l-8.8,0l-6.7-12l-0.1,0.1l0-0.1l-0.2,0.1c-0.1,0.1-0.2,0.1-0.3,0.2
	l6.7,12l-6.7,12L1309.8,62.6z M1309.8,31.1c0.1,0.1,0.2,0.1,0.3,0.2l0-0.1l0.1,0.1l6.6-11.9l8.7,0l5,0l0-0.2l0-0.1c0,0,0-0.1,0-0.1
	l0-0.2l-13.7,0l-6.7-12l-0.1,0.1l0-0.1l-0.2,0.1c-0.1,0.1-0.2,0.1-0.3,0.2l6.7,12l-6.7,12L1309.8,31.1z M1332.7,22.7
	c-0.1-0.1-0.3-0.1-0.4-0.2l-6.7,12h0.7l3.7-6.7l2.8-5L1332.7,22.7z M1332.1,46.5L1332.1,46.5l0.2,0c0.1-0.1,0.2-0.1,0.3-0.2
	l-6.3-11.4l-0.5-0.3l-13.8,0l0,0.2l0,0.1l0,0.1l0,0.2l13.6,0l6.4,11.5L1332.1,46.5z M1225.7,22.7c-0.1-0.1-0.3-0.1-0.4-0.2l-6.7,12
	h0.7l3.7-6.7l2.8-5L1225.7,22.7z M1279.4,46.5c0.1-0.1,0.2-0.1,0.3-0.2l-6.3-11.4l-0.5-0.3l-13.7,0l0,0.2l0,0.1c0,0.1,0,0.2,0,0.3
	l13.6,0l6.4,11.5L1279.4,46.5z M1202.8,62.6c0.1,0.1,0.2,0.1,0.3,0.2l0-0.1l0.1,0.1l6.6-11.9l8.8,0l5.1,0l0-0.1c0-0.1,0-0.3-0.1-0.4
	l-5,0l-8.8,0l-6.7-12l-0.1,0.1l0-0.1l-0.2,0.1c-0.1,0.1-0.2,0.1-0.3,0.2l6.7,12l-6.7,12L1202.8,62.6z M1236.7,3.3l-6.6,12l0.1,0.1
	c0.1,0.1,0.3,0.1,0.4,0.2l6.7-11.9l13.6,0l0-0.2l0-0.1c0-0.1,0-0.2,0-0.3l-13.7,0l-1.7-3h-0.7L1236.7,3.3z M1225.1,46.5L1225.1,46.5
	l0.2,0c0.1-0.1,0.2-0.1,0.3-0.2l-6.3-11.4l-0.5-0.3l-13.8,0l0,0.2l0,0.1c0,0,0,0.1,0,0.1l0,0.2l13.6,0l6.4,11.5L1225.1,46.5z
	 M1353.6,19l6.7-12l-0.2-0.1c-0.1-0.1-0.2-0.1-0.3-0.2l-6.7,12l-13.7,0l0,0.2l0,0.1c0,0.1,0,0.2,0,0.3l4.9,0l8.9,0l6.6,11.9l0.2-0.1
	c0.1-0.1,0.2-0.1,0.3-0.2L1353.6,19z M1246.6,19l6.7-12l-0.2-0.1c-0.1-0.1-0.2-0.1-0.3-0.2l-6.7,12l-13.7,0l0,0.2l0,0.1
	c0,0.1,0,0.2,0,0.3l4.9,0l8.9,0l6.6,11.9l0.2-0.1c0.1-0.1,0.2-0.1,0.3-0.2L1246.6,19z M1220.3,0l-1.7,3L1205,3l0,0.2l0,0.1
	c0,0.1,0,0.2,0,0.3l13.6,0l6.7,11.9l0.1-0.1l0,0.1l0.1-0.1c0.1-0.1,0.3-0.1,0.4-0.2l-6.6-12l1.8-3.3H1220.3z M1237.2,34.5l-6.7-12
	c-0.2,0.1-0.3,0.2-0.5,0.3l2.8,5l3.7,6.7H1237.2z M1274.5,0l-1.7,3l-13.7,0l0,0.1c0,0.1,0,0.1,0,0.2c0,0.1,0,0.2,0,0.3l13.6,0
	l6.7,11.9l0.1-0.1c0.1-0.1,0.3-0.1,0.4-0.2l-6.6-12l1.8-3.3H1274.5z M1279.9,22.7c-0.1-0.1-0.3-0.1-0.4-0.2l-6.7,12h0.7l3.7-6.7
	l2.8-5L1279.9,22.7z M1253.1,38.5c-0.1-0.1-0.2-0.1-0.3-0.2l-6.7,12l-8.9,0l-4.9,0l0,0.1c0,0.1,0,0.3-0.1,0.4l5,0l8.9,0l6.6,11.9
	l0.2-0.1c0.1-0.1,0.2-0.1,0.3-0.2l-6.7-12l6.7-12L1253.1,38.5z M1230.8,46.6l6.4-11.5l13.6,0l0-0.1c0-0.1,0-0.1,0-0.2
	c0-0.1,0-0.2,0-0.3l-13.7,0l-0.5,0.3l-6.3,11.4l0.2,0.1C1230.6,46.4,1230.7,46.5,1230.8,46.6z M852,22.7c-0.1-0.1-0.3-0.1-0.4-0.2
	l-6.7,12h0.7l3.7-6.7l2.8-5L852,22.7z M871.7,19l6.7-12L878.2,7c-0.1-0.1-0.2-0.1-0.3-0.2l0,0.1l-0.1-0.1l-6.7,12l-13.7,0l0,0.2
	l0,0.1c0,0.1,0,0.2,0,0.3l4.9,0l8.8,0l6.6,11.9l0.1-0.1l0,0.1l0.2-0.1c0.1-0.1,0.2-0.1,0.3-0.2L871.7,19z M855.8,46.6L855.8,46.6
	h0.1l6.4-11.5l13.6,0l0-0.2l0-0.1c0-0.1,0-0.2,0-0.3l-13.8,0l-0.5,0.3l-6.3,11.4l0.2,0.1C855.6,46.4,855.7,46.5,855.8,46.6z
	 M862.2,34.5l-6.7-12c-0.2,0.1-0.3,0.2-0.5,0.3l2.8,5l3.7,6.7H862.2z M861.6,3.3l-6.6,12l0.1,0.1c0.1,0.1,0.3,0.1,0.4,0.2l0-0.1
	l0.1,0.1l6.7-11.9l13.6,0l0-0.2l0-0.1c0-0.1,0-0.2,0-0.3l-13.7,0l-1.7-3h-0.8L861.6,3.3z M829.1,31.1c0.1,0.1,0.2,0.1,0.3,0.2
	l6.6-11.9l8.9,0l4.9,0l0-0.2l0-0.1c0-0.1,0-0.2,0-0.3l-13.7,0l-6.7-12l-0.2,0.1c-0.1,0.1-0.2,0.1-0.3,0.2l6.7,12l-6.7,12L829.1,31.1
	z M829.1,62.6c0.1,0.1,0.2,0.1,0.3,0.2l6.6-11.9l8.9,0l5,0l0-0.1c0-0.1,0-0.3-0.1-0.4l-4.9,0l-8.9,0l-6.7-12l-0.2,0.1
	c-0.1,0.1-0.2,0.1-0.3,0.2l6.7,12l-6.7,12L829.1,62.6z M881.9,62.6c0.1,0.1,0.2,0.1,0.3,0.2l0-0.1l0.1,0.1l6.6-11.9l8.8,0l5.1,0
	l0-0.1c0-0.1,0-0.3-0.1-0.4l-5,0l-8.8,0l-6.7-12l-0.1,0.1l0-0.1l-0.2,0.1c-0.1,0.1-0.2,0.1-0.3,0.2l6.7,12l-6.7,12L881.9,62.6z
	 M851.5,46.5c0.1-0.1,0.2-0.1,0.3-0.2l-6.3-11.4l-0.5-0.3l-13.7,0l0,0.2l0,0.1c0,0.1,0,0.2,0,0.3l13.6,0l6.4,11.5L851.5,46.5z
	 M881.9,31.1c0.1,0.1,0.2,0.1,0.3,0.2l0-0.1l0.1,0.1l6.6-11.9l8.7,0l5,0l0-0.2l0-0.1c0,0,0-0.1,0-0.1l0-0.2l-13.7,0l-6.7-12
	l-0.1,0.1l0-0.1l-0.2,0.1c-0.1,0.1-0.2,0.1-0.3,0.2l6.7,12l-6.7,12L881.9,31.1z M899.5,0l-1.7,3l-13.7,0l0,0.2l0,0.1
	c0,0.1,0,0.2,0,0.3l13.6,0l6.7,11.9l0.1-0.1l0,0.1l0.1-0.1c0.1-0.1,0.3-0.1,0.4-0.2l-6.6-12l1.8-3.3H899.5z M878.2,38.5
	c-0.1-0.1-0.2-0.1-0.3-0.2l0,0.1l-0.1-0.1l-6.7,12l-8.8,0l-5,0l0,0.1c0,0.1,0,0.3-0.1,0.4l5.1,0l8.8,0l6.6,11.9l0.1-0.1l0,0.1
	l0.2-0.1c0.1-0.1,0.2-0.1,0.3-0.2l-6.7-12l6.7-12L878.2,38.5z M904.3,46.5L904.3,46.5l0.2,0c0.1-0.1,0.2-0.1,0.3-0.2l-6.3-11.4
	l-0.5-0.3l-13.8,0l0,0.2l0,0.1c0,0.1,0,0.2,0,0.3l13.6,0l6.4,11.5L904.3,46.5z M904.8,22.7c-0.1-0.1-0.3-0.1-0.4-0.2l-6.7,12h0.7
	l3.7-6.7l2.8-5L904.8,22.7z M809.3,34.5l-6.7-12c-0.2,0.1-0.3,0.2-0.5,0.3l2.8,5l3.7,6.7H809.3z M1344.2,34.5l-6.7-12
	c-0.2,0.1-0.3,0.2-0.5,0.3l2.8,5l3.7,6.7H1344.2z M774.9,31.1c0.1,0.1,0.2,0.1,0.3,0.2l0-0.1l0.1,0.1l6.6-11.9l8.7,0l5,0l0-0.2
	l0-0.1c0-0.1,0-0.2,0-0.3l-13.7,0l-6.7-12l-0.1,0.1l0-0.1l-0.2,0.1c-0.1,0.1-0.2,0.1-0.3,0.2l6.7,12l-6.7,12L774.9,31.1z M792.5,0
	l-1.7,3l-13.7,0l0,0.1c0,0.1,0,0.1,0,0.2c0,0.1,0,0.2,0,0.3l13.6,0l6.7,11.9l0.1-0.1l0,0.1l0.1-0.1c0.1-0.1,0.3-0.1,0.4-0.2l-6.6-12
	l1.8-3.3H792.5z M774.9,62.6c0.1,0.1,0.2,0.1,0.3,0.2l0-0.1l0.1,0.1l6.6-11.9l8.8,0l5.1,0l0-0.1c0-0.1,0-0.3-0.1-0.4l-5,0l-8.8,0
	l-6.7-12l-0.1,0.1l0-0.1l-0.2,0.1c-0.1,0.1-0.2,0.1-0.3,0.2l6.7,12l-6.7,12L774.9,62.6z M797.3,46.5L797.3,46.5l0.2,0
	c0.1-0.1,0.2-0.1,0.3-0.2l-6.3-11.4l-0.5-0.3l-13.8,0l0,0.2l0,0.1c0,0.1,0,0.2,0,0.3l13.6,0l6.4,11.5L797.3,46.5z M797.9,22.7
	c-0.1-0.1-0.3-0.1-0.4-0.2l-6.7,12h0.7l3.7-6.7l2.8-5L797.9,22.7z M1065.4,46.5c0.1-0.1,0.2-0.1,0.3-0.2l-6.3-11.4l-0.5-0.3l-13.7,0
	l0,0.2l0,0.1c0,0.1,0,0.2,0,0.3l13.6,0l6.4,11.5L1065.4,46.5z M825.2,38.5c-0.1-0.1-0.2-0.1-0.3-0.2l-6.7,12l-8.9,0l-4.9,0l0,0.1
	c0,0.1,0,0.3-0.1,0.4l5,0l8.9,0l6.6,11.9l0.2-0.1c0.1-0.1,0.2-0.1,0.3-0.2l-6.7-12l6.7-12L825.2,38.5z M818.7,19l6.7-12L825.2,7
	c-0.1-0.1-0.2-0.1-0.3-0.2l-6.7,12l-13.7,0l0,0.2l0,0.1c0,0.1,0,0.2,0,0.3l4.9,0l8.9,0l6.6,11.9l0.2-0.1c0.1-0.1,0.2-0.1,0.3-0.2
	L818.7,19z M846.6,0L845,3l-13.7,0l0,0.2l0,0.1c0,0.1,0,0.2,0,0.3l13.6,0l6.7,11.9l0.1-0.1c0.1-0.1,0.3-0.1,0.4-0.2l-6.6-12l1.8-3.3
	H846.6z M915.8,3.3l-6.6,12l0.1,0.1c0.1,0.1,0.3,0.1,0.4,0.2l6.7-11.9l13.6,0l0-0.2l0-0.1c0-0.1,0-0.2,0-0.3l-13.7,0l-1.7-3h-0.7
	L915.8,3.3z M802.9,46.6l6.4-11.5l13.6,0l0-0.1c0-0.1,0-0.1,0-0.2c0-0.1,0-0.2,0-0.3l-13.7,0l-0.5,0.3l-6.3,11.4l0.2,0.1
	C802.7,46.4,802.8,46.5,802.9,46.6z M808.8,3.3l-6.6,12l0.1,0.1c0.1,0.1,0.3,0.1,0.4,0.2l6.7-11.9l13.6,0l0-0.2l0-0.1
	c0-0.1,0-0.2,0-0.3l-13.7,0l-1.7-3H807L808.8,3.3z M1022.7,3.3l-6.6,12l0.1,0.1c0.1,0.1,0.3,0.1,0.4,0.2l6.7-11.9l13.6,0l0-0.2
	l0-0.1c0-0.1,0-0.2,0-0.3l-13.7,0l-1.7-3h-0.7L1022.7,3.3z M988.8,31.1c0.1,0.1,0.2,0.1,0.3,0.2l0-0.1l0.1,0.1l6.6-11.9l8.7,0l5,0
	l0-0.2l0-0.1c0-0.1,0-0.2,0-0.3l-13.7,0l-6.7-12l-0.1,0.1l0-0.1L989,6.9c-0.1,0.1-0.2,0.1-0.3,0.2l6.7,12l-6.7,12L988.8,31.1z
	 M1006.4,0l-1.7,3L991,3l0,0.1c0,0.1,0,0.1,0,0.2c0,0.1,0,0.2,0,0.3l13.6,0l6.7,11.9l0.1-0.1l0,0.1l0.1-0.1c0.1-0.1,0.3-0.1,0.4-0.2
	l-6.6-12l1.8-3.3H1006.4z M988.8,62.6c0.1,0.1,0.2,0.1,0.3,0.2l0-0.1l0.1,0.1l6.6-11.9l8.8,0l5.1,0l0-0.1c0-0.1,0-0.3-0.1-0.4l-5,0
	l-8.8,0l-6.7-12l-0.1,0.1l0-0.1l-0.2,0.1c-0.1,0.1-0.2,0.1-0.3,0.2l6.7,12l-6.7,12L988.8,62.6z M771.2,38.5
	c-0.1-0.1-0.2-0.1-0.3-0.2l0,0.1l-0.1-0.1l-6.7,12l-8.8,0l-5,0l0,0.1c0,0.1,0,0.3-0.1,0.4l5.1,0l8.8,0l6.6,11.9l0.1-0.1l0,0.1
	l0.2-0.1c0.1-0.1,0.2-0.1,0.3-0.2l-6.7-12l6.7-12L771.2,38.5z M1011.2,46.5L1011.2,46.5l0.2,0c0.1-0.1,0.2-0.1,0.3-0.2l-6.3-11.4
	l-0.5-0.3l-13.8,0l0,0.2l0,0.1c0,0.1,0,0.2,0,0.3l13.6,0l6.4,11.5L1011.2,46.5z M985.1,38.5c-0.1-0.1-0.2-0.1-0.3-0.2l0,0.1
	l-0.1-0.1l-6.7,12l-8.8,0l-5,0l0,0.1c0,0.1,0,0.3-0.1,0.4l5.1,0l8.8,0l6.6,11.9l0.1-0.1l0,0.1l0.2-0.1c0.1-0.1,0.2-0.1,0.3-0.2
	l-6.7-12l6.7-12L985.1,38.5z M1060.6,0l-1.7,3l-13.7,0l0,0.2l0,0.1c0,0.1,0,0.2,0,0.3l13.6,0l6.7,11.9l0.1-0.1
	c0.1-0.1,0.3-0.1,0.4-0.2l-6.6-12l1.8-3.3H1060.6z M1065.9,22.7c-0.1-0.1-0.3-0.1-0.4-0.2l-6.7,12h0.7l3.7-6.7l2.8-5L1065.9,22.7z
	 M1032.6,19l6.7-12l-0.2-0.1c-0.1-0.1-0.2-0.1-0.3-0.2l-6.7,12l-13.7,0l0,0.2l0,0.1c0,0.1,0,0.2,0,0.3l4.9,0l8.9,0l6.6,11.9l0.2-0.1
	c0.1-0.1,0.2-0.1,0.3-0.2L1032.6,19z M1039.1,38.5c-0.1-0.1-0.2-0.1-0.3-0.2l-6.7,12l-8.9,0l-4.9,0l0,0.1c0,0.1,0,0.3-0.1,0.4l5,0
	l8.9,0l6.6,11.9l0.2-0.1c0.1-0.1,0.2-0.1,0.3-0.2l-6.7-12l6.7-12L1039.1,38.5z M925.7,19l6.7-12L932.2,7c-0.1-0.1-0.2-0.1-0.3-0.2
	l-6.7,12l-13.7,0l0,0.2l0,0.1c0,0.1,0,0.2,0,0.3l4.9,0l8.9,0l6.6,11.9l0.2-0.1c0.1-0.1,0.2-0.1,0.3-0.2L925.7,19z M1023.3,34.5
	l-6.7-12c-0.2,0.1-0.3,0.2-0.5,0.3l2.8,5l3.7,6.7H1023.3z M1016.9,46.6l6.4-11.5l13.6,0l0-0.1c0-0.1,0-0.1,0-0.2c0-0.1,0-0.2,0-0.3
	l-13.7,0l-0.5,0.3l-6.3,11.4l0.2,0.1C1016.6,46.4,1016.8,46.5,1016.9,46.6z M953.6,0l-1.7,3l-13.7,0l0,0.2l0,0.1c0,0.1,0,0.2,0,0.3
	l13.6,0l6.7,11.9l0.1-0.1c0.1-0.1,0.3-0.1,0.4-0.2l-6.6-12l1.8-3.3H953.6z M932.2,38.5c-0.1-0.1-0.2-0.1-0.3-0.2l-6.7,12l-8.9,0
	l-4.9,0l0,0.1c0,0.1,0,0.3-0.1,0.4l5,0l8.9,0l6.6,11.9l0.2-0.1c0.1-0.1,0.2-0.1,0.3-0.2l-6.7-12l6.7-12L932.2,38.5z M958.5,46.5
	c0.1-0.1,0.2-0.1,0.3-0.2l-6.3-11.4l-0.5-0.3l-13.7,0l0,0.2l0,0.1c0,0.1,0,0.2,0,0.3l13.6,0l6.4,11.5L958.5,46.5z M959,22.7
	c-0.1-0.1-0.3-0.1-0.4-0.2l-6.7,12h0.7l3.7-6.7l2.8-5L959,22.7z M916.3,34.5l-6.7-12c-0.2,0.1-0.3,0.2-0.5,0.3l2.8,5l3.7,6.7H916.3z
	 M909.9,46.6l6.4-11.5l13.6,0l0-0.2l0-0.1c0-0.1,0-0.2,0-0.3l-13.7,0l-0.5,0.3l-6.3,11.4l0.2,0.1C909.7,46.4,909.8,46.5,909.9,46.6z
	 M936.1,31.1c0.1,0.1,0.2,0.1,0.3,0.2l6.6-11.9l8.9,0l4.9,0l0-0.2l0-0.1c0-0.1,0-0.2,0-0.3l-13.7,0l-6.7-12l-0.2,0.1
	c-0.1,0.1-0.2,0.1-0.3,0.2l6.7,12l-6.7,12L936.1,31.1z M962.7,46.6L962.7,46.6h0.1l6.4-11.5l13.6,0l0-0.1c0-0.1,0-0.1,0-0.2
	c0-0.1,0-0.2,0-0.3l-13.8,0l-0.5,0.3l-6.3,11.4l0.2,0.1C962.5,46.4,962.6,46.5,962.7,46.6z M969.1,34.5l-6.7-12
	c-0.2,0.1-0.3,0.2-0.5,0.3l2.8,5l3.7,6.7H969.1z M978.6,19l6.7-12L985.1,7c-0.1-0.1-0.2-0.1-0.3-0.2l0,0.1l-0.1-0.1l-6.7,12l-13.7,0
	l0,0.2l0,0.1c0,0.1,0,0.2,0,0.3l4.9,0l8.8,0l6.6,11.9l0.1-0.1l0,0.1l0.2-0.1c0.1-0.1,0.2-0.1,0.3-0.2L978.6,19z M968.5,3.3l-6.6,12
	l0.1,0.1c0.1,0.1,0.3,0.1,0.4,0.2l0-0.1l0.1,0.1l6.7-11.9l13.6,0l0-0.2l0-0.1c0-0.1,0-0.2,0-0.3l-13.7,0l-1.7-3h-0.8L968.5,3.3z
	 M936.1,62.6c0.1,0.1,0.2,0.1,0.3,0.2l6.6-11.9l8.9,0l5,0l0-0.1c0-0.1,0-0.3-0.1-0.4l-4.9,0l-8.9,0l-6.7-12l-0.2,0.1
	c-0.1,0.1-0.2,0.1-0.3,0.2l6.7,12l-6.7,12L936.1,62.6z M1011.8,22.7c-0.1-0.1-0.3-0.1-0.4-0.2l-6.7,12h0.7l3.7-6.7l2.8-5
	L1011.8,22.7z M1711.6,46.6L1711.6,46.6h0.1l6.4-11.5l13.6,0l0-0.1c0-0.1,0-0.1,0-0.2c0-0.1,0-0.2,0-0.3l-13.8,0l-0.5,0.3l-6.3,11.4
	l0.2,0.1C1711.4,46.4,1711.5,46.5,1711.6,46.6z M1760.1,46.5L1760.1,46.5l0.2,0c0.1-0.1,0.2-0.1,0.3-0.2l-6.3-11.4l-0.5-0.3l-13.8,0
	l0,0.2l0,0.1c0,0.1,0,0.2,0,0.3l13.6,0l6.4,11.5L1760.1,46.5z M1760.6,22.7c-0.1-0.1-0.3-0.1-0.4-0.2l-6.7,12h0.7l3.7-6.7l2.8-5
	L1760.6,22.7z M1734,38.5c-0.1-0.1-0.2-0.1-0.3-0.2l0,0.1l-0.1-0.1l-6.7,12l-8.8,0l-5,0l0,0.1c0,0.1,0,0.3-0.1,0.4l5.1,0l8.8,0
	l6.6,11.9l0.1-0.1l0,0.1l0.2-0.1c0.1-0.1,0.2-0.1,0.3-0.2l-6.7-12l6.7-12L1734,38.5z M1718,34.5l-6.7-12c-0.2,0.1-0.3,0.2-0.5,0.3
	l2.8,5l3.7,6.7H1718z M1727.5,19l6.7-12L1734,7c-0.1-0.1-0.2-0.1-0.3-0.2l0,0.1l-0.1-0.1l-6.7,12l-13.7,0l0,0.1c0,0.1,0,0.1,0,0.2
	c0,0.1,0,0.2,0,0.3l4.9,0l8.8,0l6.6,11.9l0.1-0.1l0,0.1l0.2-0.1c0.1-0.1,0.2-0.1,0.3-0.2L1727.5,19z M1755.3,0l-1.7,3l-13.7,0l0,0.1
	c0,0.1,0,0.1,0,0.2c0,0.1,0,0.2,0,0.3l13.6,0l6.7,11.9l0.1-0.1l0,0.1l0.1-0.1c0.1-0.1,0.3-0.1,0.4-0.2l-6.6-12l1.8-3.3H1755.3z
	 M1737.7,31.1c0.1,0.1,0.2,0.1,0.3,0.2l0-0.1l0.1,0.1l6.6-11.9l8.7,0l5,0l0-0.2l0-0.1c0-0.1,0-0.2,0-0.3l-13.7,0l-6.7-12l-0.1,0.1
	l0-0.1l-0.2,0.1c-0.1,0.1-0.2,0.1-0.3,0.2l6.7,12l-6.7,12L1737.7,31.1z M1771.6,3.3l-6.6,12l0.1,0.1c0.1,0.1,0.3,0.1,0.4,0.2
	l6.7-11.9l13.6,0l0-0.2l0-0.1c0-0.1,0-0.2,0-0.3l-13.7,0l-1.7-3h-0.7L1771.6,3.3z M1772.1,34.5l-6.7-12c-0.2,0.1-0.3,0.2-0.5,0.3
	l2.8,5l3.7,6.7H1772.1z M1781.5,19l6.7-12L1788,7c-0.1-0.1-0.2-0.1-0.3-0.2l-6.7,12l-13.7,0l0,0.2l0,0.1c0,0.1,0,0.2,0,0.3l4.9,0
	l8.9,0l6.6,11.9l0.2-0.1c0.1-0.1,0.2-0.1,0.3-0.2L1781.5,19z M1717.4,3.3l-6.6,12l0.1,0.1c0.1,0.1,0.3,0.1,0.4,0.2l0-0.1l0.1,0.1
	l6.7-11.9l13.6,0l0-0.2l0-0.1c0-0.1,0-0.2,0-0.3l-13.7,0l-1.7-3h-0.8L1717.4,3.3z M1737.7,62.6c0.1,0.1,0.2,0.1,0.3,0.2l0-0.1
	l0.1,0.1l6.6-11.9l8.8,0l5.1,0l0-0.1c0-0.1,0-0.3-0.1-0.4l-5,0l-8.8,0l-6.7-12l-0.1,0.1l0-0.1l-0.2,0.1c-0.1,0.1-0.2,0.1-0.3,0.2
	l6.7,12l-6.7,12L1737.7,62.6z M1765.7,46.6l6.4-11.5l13.6,0l0-0.1c0-0.1,0-0.1,0-0.2c0-0.1,0-0.2,0-0.3l-13.7,0l-0.5,0.3l-6.3,11.4
	l0.2,0.1C1765.5,46.4,1765.6,46.5,1765.7,46.6z M1674.5,19l6.7-12L1681,7c-0.1-0.1-0.2-0.1-0.3-0.2l-6.7,12l-13.7,0l0,0.1
	c0,0.1,0,0.1,0,0.2c0,0.1,0,0.2,0,0.3l4.9,0l8.9,0l6.6,11.9l0.2-0.1c0.1-0.1,0.2-0.1,0.3-0.2L1674.5,19z M1684.9,62.6
	c0.1,0.1,0.2,0.1,0.3,0.2l6.6-11.9l8.9,0l5,0l0-0.1c0-0.1,0-0.3-0.1-0.4l-4.9,0l-8.9,0l-6.7-12l-0.2,0.1c-0.1,0.1-0.2,0.1-0.3,0.2
	l6.7,12l-6.7,12L1684.9,62.6z M1665.1,34.5l-6.7-12c-0.2,0.1-0.3,0.2-0.5,0.3l2.8,5l3.7,6.7H1665.1z M1648.3,0l-1.7,3l-13.7,0l0,0.2
	l0,0.1c0,0.1,0,0.2,0,0.3l13.6,0l6.7,11.9l0.1-0.1l0,0.1l0.1-0.1c0.1-0.1,0.3-0.1,0.4-0.2l-6.6-12l1.8-3.3H1648.3z M1658.8,46.6
	l6.4-11.5l13.6,0l0-0.2l0-0.1c0-0.1,0-0.2,0-0.3l-13.7,0l-0.5,0.3l-6.3,11.4l0.2,0.1C1658.5,46.4,1658.6,46.5,1658.8,46.6z
	 M1630.7,62.6c0.1,0.1,0.2,0.1,0.3,0.2l0-0.1l0.1,0.1l6.6-11.9l8.8,0l5.1,0l0-0.1c0-0.1,0-0.3-0.1-0.4l-5,0l-8.8,0l-6.7-12l-0.1,0.1
	l0-0.1l-0.2,0.1c-0.1,0.1-0.2,0.1-0.3,0.2l6.7,12l-6.7,12L1630.7,62.6z M1664.6,3.3l-6.6,12l0.1,0.1c0.1,0.1,0.3,0.1,0.4,0.2
	l6.7-11.9l13.6,0l0-0.2l0-0.1c0-0.1,0-0.2,0-0.3l-13.7,0l-1.7-3h-0.7L1664.6,3.3z M1684.9,31.1c0.1,0.1,0.2,0.1,0.3,0.2l6.6-11.9
	l8.9,0l4.9,0l0-0.2l0-0.1l0-0.1l0-0.2l-13.7,0l-6.7-12l-0.2,0.1c-0.1,0.1-0.2,0.1-0.3,0.2l6.7,12l-6.7,12L1684.9,31.1z M1707.3,46.5
	c0.1-0.1,0.2-0.1,0.3-0.2l-6.3-11.4l-0.5-0.3l-13.7,0l0,0.2l0,0.1c0,0.1,0,0.2,0,0.3l13.6,0l6.4,11.5L1707.3,46.5z M1702.4,0l-1.7,3
	l-13.7,0l0,0.2l0,0.1c0,0,0,0.1,0,0.1l0,0.2l13.6,0l6.7,11.9l0.1-0.1c0.1-0.1,0.3-0.1,0.4-0.2l-6.6-12l1.8-3.3H1702.4z M1707.8,22.7
	c-0.1-0.1-0.3-0.1-0.4-0.2l-6.7,12h0.7l3.7-6.7l2.8-5L1707.8,22.7z M1681,38.5c-0.1-0.1-0.2-0.1-0.3-0.2l-6.7,12l-8.9,0l-4.9,0
	l0,0.1c0,0.1,0,0.3-0.1,0.4l5,0l8.9,0l6.6,11.9l0.2-0.1c0.1-0.1,0.2-0.1,0.3-0.2l-6.7-12l6.7-12L1681,38.5z M1791.9,62.6
	c0.1,0.1,0.2,0.1,0.3,0.2l6.6-11.9l8.9,0l5,0l0-0.1c0-0.1,0-0.3-0.1-0.4l-4.9,0l-8.9,0l-6.7-12l-0.2,0.1c-0.1,0.1-0.2,0.1-0.3,0.2
	l6.7,12l-6.7,12L1791.9,62.6z M1888.5,19l6.7-12L1895,7c-0.1-0.1-0.2-0.1-0.3-0.2l-6.7,12l-13.7,0l0,0.2l0,0.1c0,0.1,0,0.2,0,0.3
	l4.9,0l8.9,0l6.6,11.9l0.2-0.1c0.1-0.1,0.2-0.1,0.3-0.2L1888.5,19z M1879.1,34.5l-6.7-12c-0.2,0.1-0.3,0.2-0.5,0.3l2.8,5l3.7,6.7
	H1879.1z M1878.6,3.3l-6.6,12l0.1,0.1c0.1,0.1,0.3,0.1,0.4,0.2l6.7-11.9l13.6,0l0-0.2l0-0.1c0-0.1,0-0.2,0-0.3l-13.7,0l-1.7-3h-0.7
	L1878.6,3.3z M1872.7,46.6l6.4-11.5l13.6,0l0-0.2l0-0.1c0-0.1,0-0.2,0-0.3l-13.7,0l-0.5,0.3l-6.3,11.4l0.2,0.1
	C1872.5,46.4,1872.6,46.5,1872.7,46.6z M1844.7,62.6c0.1,0.1,0.2,0.1,0.3,0.2l0-0.1l0.1,0.1l6.6-11.9l8.8,0l5.1,0l0-0.1
	c0-0.1,0-0.3-0.1-0.4l-5,0l-8.8,0l-6.7-12l-0.1,0.1l0-0.1l-0.2,0.1c-0.1,0.1-0.2,0.1-0.3,0.2l6.7,12l-6.7,12L1844.7,62.6z M1862.2,0
	l-1.7,3l-13.7,0l0,0.2l0,0.1c0,0.1,0,0.2,0,0.3l13.6,0l6.7,11.9l0.1-0.1l0,0.1l0.1-0.1c0.1-0.1,0.3-0.1,0.4-0.2l-6.6-12l1.8-3.3
	H1862.2z M1915.4,34.5l3.7-6.7l1.9-3.3v-1.2l-6.3,11.2H1915.4z M1898.8,31.1c0.1,0.1,0.2,0.1,0.3,0.2l6.6-11.9l8.9,0l4.9,0l0-0.2
	l0-0.1c0-0.1,0-0.2,0-0.3l-13.7,0l-6.7-12l-0.2,0.1c-0.1,0.1-0.2,0.1-0.3,0.2l6.7,12l-6.7,12L1898.8,31.1z M1898.9,62.6
	c0.1,0.1,0.2,0.1,0.3,0.2l6.6-11.9l8.9,0l5,0l0-0.1c0-0.1,0-0.3-0.1-0.4l-4.9,0l-8.9,0l-6.7-12l-0.2,0.1c-0.1,0.1-0.2,0.1-0.3,0.2
	l6.7,12l-6.7,12L1898.9,62.6z M1844.7,31.1c0.1,0.1,0.2,0.1,0.3,0.2l0-0.1l0.1,0.1l6.6-11.9l8.7,0l5,0l0-0.2l0-0.1c0,0,0-0.1,0-0.1
	l0-0.2l-13.7,0l-6.7-12l-0.1,0.1l0-0.1l-0.2,0.1c-0.1,0.1-0.2,0.1-0.3,0.2l6.7,12l-6.7,12L1844.7,31.1z M1788,38.5
	c-0.1-0.1-0.2-0.1-0.3-0.2l-6.7,12l-8.9,0l-4.9,0l0,0.1c0,0.1,0,0.3-0.1,0.4l5,0l8.9,0l6.6,11.9l0.2-0.1c0.1-0.1,0.2-0.1,0.3-0.2
	l-6.7-12l6.7-12L1788,38.5z M1895,38.5c-0.1-0.1-0.2-0.1-0.3-0.2l-6.7,12l-8.9,0l-4.9,0l0,0.1c0,0.1,0,0.3-0.1,0.4l5,0l8.9,0
	l6.6,11.9l0.2-0.1c0.1-0.1,0.2-0.1,0.3-0.2l-6.7-12l6.7-12L1895,38.5z M1921,45.2l-5.8-10.4l-0.5-0.3l-13.7,0l0,0.2l0,0.1
	c0,0.1,0,0.2,0,0.3l13.6,0l6.3,11.3V45.2z M1916.4,0l-1.7,3l-13.7,0l0,0.2l0,0.1c0,0.1,0,0.2,0,0.3l13.6,0l6.3,11.2v-1.2l-5.7-10.4
	l1.8-3.3H1916.4z M1791.9,31.1c0.1,0.1,0.2,0.1,0.3,0.2l6.6-11.9l8.9,0l4.9,0l0-0.2l0-0.1c0-0.1,0-0.2,0-0.3l-13.7,0l-6.7-12
	l-0.2,0.1c-0.1,0.1-0.2,0.1-0.3,0.2l6.7,12l-6.7,12L1791.9,31.1z M1814.3,46.5c0.1-0.1,0.2-0.1,0.3-0.2l-6.3-11.4l-0.5-0.3l-13.7,0
	l0,0.2l0,0.1c0,0.1,0,0.2,0,0.3l13.6,0l6.4,11.5L1814.3,46.5z M1630.7,31.1c0.1,0.1,0.2,0.1,0.3,0.2l0-0.1l0.1,0.1l6.6-11.9l8.7,0
	l5,0l0-0.2l0-0.1c0-0.1,0-0.2,0-0.3l-13.7,0l-6.7-12l-0.1,0.1l0-0.1l-0.2,0.1c-0.1,0.1-0.2,0.1-0.3,0.2l6.7,12l-6.7,12L1630.7,31.1z
	 M1814.8,22.7c-0.1-0.1-0.3-0.1-0.4-0.2l-6.7,12h0.7l3.7-6.7l2.8-5L1814.8,22.7z M1867,46.5L1867,46.5l0.2,0
	c0.1-0.1,0.2-0.1,0.3-0.2l-6.3-11.4l-0.5-0.3l-13.8,0l0,0.2l0,0.1c0,0.1,0,0.2,0,0.3l13.6,0l6.4,11.5L1867,46.5z M1824.4,3.3
	l-6.6,12l0.1,0.1c0.1,0.1,0.3,0.1,0.4,0.2l0-0.1l0.1,0.1l6.7-11.9l13.6,0l0-0.2l0-0.1c0-0.1,0-0.2,0-0.3l-13.7,0l-1.7-3h-0.8
	L1824.4,3.3z M1809.4,0l-1.7,3l-13.7,0l0,0.2l0,0.1c0,0.1,0,0.2,0,0.3l13.6,0l6.7,11.9l0.1-0.1c0.1-0.1,0.3-0.1,0.4-0.2l-6.6-12
	l1.8-3.3H1809.4z M1841,38.5c-0.1-0.1-0.2-0.1-0.3-0.2l0,0.1l-0.1-0.1l-6.7,12l-8.8,0l-5,0l0,0.1c0,0.1,0,0.3-0.1,0.4l5.1,0l8.8,0
	l6.6,11.9l0.1-0.1l0,0.1l0.2-0.1c0.1-0.1,0.2-0.1,0.3-0.2l-6.7-12l6.7-12L1841,38.5z M1867.6,22.7c-0.1-0.1-0.3-0.1-0.4-0.2l-6.7,12
	h0.7l3.7-6.7l2.8-5L1867.6,22.7z M1834.5,19l6.7-12L1841,7c-0.1-0.1-0.2-0.1-0.3-0.2l0,0.1l-0.1-0.1l-6.7,12l-13.7,0l0,0.2l0,0.1
	c0,0.1,0,0.2,0,0.3l4.9,0l8.8,0l6.6,11.9l0.1-0.1l0,0.1l0.2-0.1c0.1-0.1,0.2-0.1,0.3-0.2L1834.5,19z M1824.9,34.5l-6.7-12
	c-0.2,0.1-0.3,0.2-0.5,0.3l2.8,5l3.7,6.7H1824.9z M1818.5,46.6L1818.5,46.6h0.1l6.4-11.5l13.6,0l0-0.2l0-0.1c0-0.1,0-0.2,0-0.3
	l-13.8,0l-0.5,0.3l-6.3,11.4l0.2,0.1C1818.3,46.4,1818.4,46.5,1818.5,46.6z M1600.3,46.5c0.1-0.1,0.2-0.1,0.3-0.2l-6.3-11.4
	l-0.5-0.3l-13.7,0l0,0.2l0,0.1l0,0.1l0,0.2l13.6,0l6.4,11.5L1600.3,46.5z M1450.6,3.3l-6.6,12l0.1,0.1c0.1,0.1,0.3,0.1,0.4,0.2
	l6.7-11.9l13.6,0l0-0.2l0-0.1c0-0.1,0-0.2,0-0.3l-13.7,0l-1.7-3h-0.7L1450.6,3.3z M1460.5,19l6.7-12L1467,7
	c-0.1-0.1-0.2-0.1-0.3-0.2l-6.7,12l-13.7,0l0,0.2l0,0.1c0,0.1,0,0.2,0,0.3l4.9,0l8.9,0l6.6,11.9l0.2-0.1c0.1-0.1,0.2-0.1,0.3-0.2
	L1460.5,19z M1434.3,0l-1.7,3L1419,3l0,0.2l0,0.1l0,0.1l0,0.2l13.6,0l6.7,11.9l0.1-0.1l0,0.1l0.1-0.1c0.1-0.1,0.3-0.1,0.4-0.2
	l-6.6-12l1.8-3.3H1434.3z M1439.1,46.5L1439.1,46.5l0.2,0c0.1-0.1,0.2-0.1,0.3-0.2l-6.3-11.4l-0.5-0.3l-13.8,0l0,0.2l0,0.1
	c0,0.1,0,0.2,0,0.3l13.6,0l6.4,11.5L1439.1,46.5z M1416.8,62.6c0.1,0.1,0.2,0.1,0.3,0.2l0-0.1l0.1,0.1l6.6-11.9l8.8,0l5.1,0l0-0.1
	c0-0.1,0-0.3-0.1-0.4l-5,0l-8.8,0l-6.7-12l-0.1,0.1l0-0.1l-0.2,0.1c-0.1,0.1-0.2,0.1-0.3,0.2l6.7,12l-6.7,12L1416.8,62.6z
	 M1416.7,31.1c0.1,0.1,0.2,0.1,0.3,0.2l0-0.1l0.1,0.1l6.6-11.9l8.7,0l5,0l0-0.2l0-0.1l0-0.1l0-0.2l-13.7,0l-6.7-12l-0.1,0.1l0-0.1
	l-0.2,0.1c-0.1,0.1-0.2,0.1-0.3,0.2l6.7,12l-6.7,12L1416.7,31.1z M1451.2,34.5l-6.7-12c-0.2,0.1-0.3,0.2-0.5,0.3l2.8,5l3.7,6.7
	H1451.2z M1493.3,46.5c0.1-0.1,0.2-0.1,0.3-0.2l-6.3-11.4l-0.5-0.3l-13.7,0l0,0.2l0,0.1l0,0.1l0,0.2l13.6,0l6.4,11.5L1493.3,46.5z
	 M1444.8,46.6l6.4-11.5l13.6,0l0-0.2l0-0.1c0-0.1,0-0.2,0-0.3l-13.7,0l-0.5,0.3l-6.3,11.4l0.2,0.1
	C1444.6,46.4,1444.7,46.5,1444.8,46.6z M1470.9,31.1c0.1,0.1,0.2,0.1,0.3,0.2l6.6-11.9l8.9,0l4.9,0l0-0.2l0-0.1l0-0.1l0-0.2l-13.7,0
	l-6.7-12l-0.2,0.1c-0.1,0.1-0.2,0.1-0.3,0.2l6.7,12l-6.7,12L1470.9,31.1z M1493.9,22.7c-0.1-0.1-0.3-0.1-0.4-0.2l-6.7,12h0.7
	l3.7-6.7l2.8-5L1493.9,22.7z M1488.5,0l-1.7,3l-13.7,0l0,0.1c0,0.1,0,0.1,0,0.2c0,0.1,0,0.2,0,0.3l13.6,0l6.7,11.9l0.1-0.1
	c0.1-0.1,0.3-0.1,0.4-0.2l-6.6-12l1.8-3.3H1488.5z M1470.9,62.6c0.1,0.1,0.2,0.1,0.3,0.2l6.6-11.9l8.9,0l5,0l0-0.1
	c0-0.1,0-0.3-0.1-0.4l-4.9,0l-8.9,0l-6.7-12l-0.2,0.1c-0.1,0.1-0.2,0.1-0.3,0.2l6.7,12l-6.7,12L1470.9,62.6z M1467,38.5
	c-0.1-0.1-0.2-0.1-0.3-0.2l-6.7,12l-8.9,0l-4.9,0l0,0.1c0,0.1,0,0.3-0.1,0.4l5,0l8.9,0l6.6,11.9l0.2-0.1c0.1-0.1,0.2-0.1,0.3-0.2
	l-6.7-12l6.7-12L1467,38.5z M1386.9,22.7c-0.1-0.1-0.3-0.1-0.4-0.2l-6.7,12h0.7l3.7-6.7l2.8-5L1386.9,22.7z M1653.1,46.5
	L1653.1,46.5l0.2,0c0.1-0.1,0.2-0.1,0.3-0.2l-6.3-11.4l-0.5-0.3l-13.8,0l0,0.2l0,0.1c0,0.1,0,0.2,0,0.3l13.6,0l6.4,11.5L1653.1,46.5
	z M1363.9,31.1c0.1,0.1,0.2,0.1,0.3,0.2l6.6-11.9l8.9,0l4.9,0l0-0.2l0-0.1c0,0,0-0.1,0-0.1l0-0.2l-13.7,0l-6.7-12l-0.2,0.1
	c-0.1,0.1-0.2,0.1-0.3,0.2l6.7,12l-6.7,12L1363.9,31.1z M1360.1,38.5c-0.1-0.1-0.2-0.1-0.3-0.2l-6.7,12l-8.9,0l-4.9,0l0,0.1
	c0,0.1,0,0.3-0.1,0.4l5,0l8.9,0l6.6,11.9l0.2-0.1c0.1-0.1,0.2-0.1,0.3-0.2l-6.7-12l6.7-12L1360.1,38.5z M1363.9,62.6
	c0.1,0.1,0.2,0.1,0.3,0.2l6.6-11.9l8.9,0l5,0l0-0.1c0-0.1,0-0.3-0.1-0.4l-4.9,0l-8.9,0l-6.7-12l-0.2,0.1c-0.1,0.1-0.2,0.1-0.3,0.2
	l6.7,12l-6.7,12L1363.9,62.6z M1381.5,0l-1.7,3l-13.7,0l0,0.2l0,0.1c0,0.1,0,0.2,0,0.3l13.6,0l6.7,11.9l0.1-0.1
	c0.1-0.1,0.3-0.1,0.4-0.2l-6.6-12l1.8-3.3H1381.5z M1413,38.5c-0.1-0.1-0.2-0.1-0.3-0.2l0,0.1l-0.1-0.1l-6.7,12l-8.8,0l-5,0l0,0.1
	c0,0.1,0,0.3-0.1,0.4l5.1,0l8.8,0l6.6,11.9l0.1-0.1l0,0.1l0.2-0.1c0.1-0.1,0.2-0.1,0.3-0.2l-6.7-12l6.7-12L1413,38.5z M1390.6,46.6
	L1390.6,46.6h0.1l6.4-11.5l13.6,0l0-0.2l0-0.1c0-0.1,0-0.2,0-0.3l-13.8,0l-0.5,0.3l-6.3,11.4l0.2,0.1
	C1390.4,46.4,1390.5,46.5,1390.6,46.6z M1439.7,22.7c-0.1-0.1-0.3-0.1-0.4-0.2l-6.7,12h0.7l3.7-6.7l2.8-5L1439.7,22.7z M1397,34.5
	l-6.7-12c-0.2,0.1-0.3,0.2-0.5,0.3l2.8,5l3.7,6.7H1397z M1396.5,3.3l-6.6,12l0.1,0.1c0.1,0.1,0.3,0.1,0.4,0.2l0-0.1l0.1,0.1
	l6.7-11.9l13.6,0l0-0.2l0-0.1c0-0.1,0-0.2,0-0.3l-13.7,0l-1.7-3h-0.8L1396.5,3.3z M1406.5,19l6.7-12L1413,7
	c-0.1-0.1-0.2-0.1-0.3-0.2l0,0.1l-0.1-0.1l-6.7,12l-13.7,0l0,0.2l0,0.1c0,0.1,0,0.2,0,0.3l4.9,0l8.8,0l6.6,11.9l0.1-0.1l0,0.1
	l0.2-0.1c0.1-0.1,0.2-0.1,0.3-0.2L1406.5,19z M1386.3,46.5c0.1-0.1,0.2-0.1,0.3-0.2l-6.3-11.4l-0.5-0.3l-13.7,0l0,0.2l0,0.1
	c0,0.1,0,0.2,0,0.3l13.6,0l6.4,11.5L1386.3,46.5z M1577.9,62.6c0.1,0.1,0.2,0.1,0.3,0.2l6.6-11.9l8.9,0l5,0l0-0.1
	c0-0.1,0-0.3-0.1-0.4l-4.9,0l-8.9,0l-6.7-12l-0.2,0.1c-0.1,0.1-0.2,0.1-0.3,0.2l6.7,12l-6.7,12L1577.9,62.6z M1337.8,46.6l6.4-11.5
	l13.6,0l0-0.2l0-0.1c0-0.1,0-0.2,0-0.3l-13.7,0l-0.5,0.3l-6.3,11.4l0.2,0.1C1337.6,46.4,1337.7,46.5,1337.8,46.6z M1577.9,31.1
	c0.1,0.1,0.2,0.1,0.3,0.2l6.6-11.9l8.9,0l4.9,0l0-0.2l0-0.1c0-0.1,0-0.2,0-0.3l-13.7,0l-6.7-12l-0.2,0.1c-0.1,0.1-0.2,0.1-0.3,0.2
	l6.7,12l-6.7,12L1577.9,31.1z M1600.8,22.7c-0.1-0.1-0.3-0.1-0.4-0.2l-6.7,12h0.7l3.7-6.7l2.8-5L1600.8,22.7z M1595.5,0l-1.7,3
	l-13.7,0l0,0.2l0,0.1c0,0.1,0,0.2,0,0.3l13.6,0l6.7,11.9l0.1-0.1c0.1-0.1,0.3-0.1,0.4-0.2l-6.6-12l1.8-3.3H1595.5z M1574,38.5
	c-0.1-0.1-0.2-0.1-0.3-0.2l-6.7,12l-8.9,0l-4.9,0l0,0.1c0,0.1,0,0.3-0.1,0.4l5,0l8.9,0l6.6,11.9l0.2-0.1c0.1-0.1,0.2-0.1,0.3-0.2
	l-6.7-12l6.7-12L1574,38.5z M1610.4,3.3l-6.6,12l0.1,0.1c0.1,0.1,0.3,0.1,0.4,0.2l0-0.1l0.1,0.1l6.7-11.9l13.6,0l0-0.2l0-0.1
	c0-0.1,0-0.2,0-0.3l-13.7,0l-1.7-3h-0.8L1610.4,3.3z M1627,38.5c-0.1-0.1-0.2-0.1-0.3-0.2l0,0.1l-0.1-0.1l-6.7,12l-8.8,0l-5,0l0,0.1
	c0,0.1,0,0.3-0.1,0.4l5.1,0l8.8,0l6.6,11.9l0.1-0.1l0,0.1l0.2-0.1c0.1-0.1,0.2-0.1,0.3-0.2l-6.7-12l6.7-12L1627,38.5z M1604.6,46.6
	L1604.6,46.6h0.1l6.4-11.5l13.6,0l0-0.2l0-0.1c0-0.1,0-0.2,0-0.3l-13.8,0l-0.5,0.3l-6.3,11.4l0.2,0.1
	C1604.4,46.4,1604.5,46.5,1604.6,46.6z M1653.7,22.7c-0.1-0.1-0.3-0.1-0.4-0.2l-6.7,12h0.7l3.7-6.7l2.8-5L1653.7,22.7z M1620.5,19
	l6.7-12L1627,7c-0.1-0.1-0.2-0.1-0.3-0.2l0,0.1l-0.1-0.1l-6.7,12l-13.7,0l0,0.2l0,0.1c0,0.1,0,0.2,0,0.3l4.9,0l8.8,0l6.6,11.9
	l0.1-0.1l0,0.1l0.2-0.1c0.1-0.1,0.2-0.1,0.3-0.2L1620.5,19z M1611,34.5l-6.7-12c-0.2,0.1-0.3,0.2-0.5,0.3l2.8,5l3.7,6.7H1611z
	 M1551.8,46.6l6.4-11.5l13.6,0l0-0.1c0-0.1,0-0.1,0-0.2c0-0.1,0-0.2,0-0.3l-13.7,0l-0.5,0.3l-6.3,11.4l0.2,0.1
	C1551.6,46.4,1551.7,46.5,1551.8,46.6z M1523.7,31.1c0.1,0.1,0.2,0.1,0.3,0.2l0-0.1l0.1,0.1l6.6-11.9l8.7,0l5,0l0-0.2l0-0.1
	c0,0,0-0.1,0-0.1l0-0.2l-13.7,0l-6.7-12l-0.1,0.1l0-0.1l-0.2,0.1c-0.1,0.1-0.2,0.1-0.3,0.2l6.7,12l-6.7,12L1523.7,31.1z
	 M1497.6,46.6L1497.6,46.6h0.1l6.4-11.5l13.6,0l0-0.1c0-0.1,0-0.1,0-0.2c0-0.1,0-0.2,0-0.3l-13.8,0l-0.5,0.3l-6.3,11.4l0.2,0.1
	C1497.4,46.4,1497.5,46.5,1497.6,46.6z M1520,38.5c-0.1-0.1-0.2-0.1-0.3-0.2l0,0.1l-0.1-0.1l-6.7,12l-8.8,0l-5,0l0,0.1
	c0,0.1,0,0.3-0.1,0.4l5.1,0l8.8,0l6.6,11.9l0.1-0.1l0,0.1l0.2-0.1c0.1-0.1,0.2-0.1,0.3-0.2l-6.7-12l6.7-12L1520,38.5z M1546.7,22.7
	c-0.1-0.1-0.3-0.1-0.4-0.2l-6.7,12h0.7l3.7-6.7l2.8-5L1546.7,22.7z M1558.2,34.5l-6.7-12c-0.2,0.1-0.3,0.2-0.5,0.3l2.8,5l3.7,6.7
	H1558.2z M1504,34.5l-6.7-12c-0.2,0.1-0.3,0.2-0.5,0.3l2.8,5l3.7,6.7H1504z M1513.5,19l6.7-12L1520,7c-0.1-0.1-0.2-0.1-0.3-0.2
	l0,0.1l-0.1-0.1l-6.7,12l-13.7,0l0,0.2l0,0.1c0,0.1,0,0.2,0,0.3l4.9,0l8.8,0l6.6,11.9l0.1-0.1l0,0.1l0.2-0.1
	c0.1-0.1,0.2-0.1,0.3-0.2L1513.5,19z M1546.1,46.5L1546.1,46.5l0.2,0c0.1-0.1,0.2-0.1,0.3-0.2l-6.3-11.4l-0.5-0.3l-13.8,0l0,0.2
	l0,0.1c0,0.1,0,0.2,0,0.3l13.6,0l6.4,11.5L1546.1,46.5z M1567.5,19l6.7-12L1574,7c-0.1-0.1-0.2-0.1-0.3-0.2l-6.7,12l-13.7,0l0,0.2
	l0,0.1c0,0.1,0,0.2,0,0.3l4.9,0l8.9,0l6.6,11.9l0.2-0.1c0.1-0.1,0.2-0.1,0.3-0.2L1567.5,19z M1557.6,3.3l-6.6,12l0.1,0.1
	c0.1,0.1,0.3,0.1,0.4,0.2l6.7-11.9l13.6,0l0-0.2l0-0.1c0-0.1,0-0.2,0-0.3l-13.7,0l-1.7-3h-0.7L1557.6,3.3z M1541.3,0l-1.7,3l-13.7,0
	l0,0.1c0,0.1,0,0.1,0,0.2c0,0.1,0,0.2,0,0.3l13.6,0l6.7,11.9l0.1-0.1l0,0.1l0.1-0.1c0.1-0.1,0.3-0.1,0.4-0.2l-6.6-12l1.8-3.3H1541.3
	z M1523.7,62.6c0.1,0.1,0.2,0.1,0.3,0.2l0-0.1l0.1,0.1l6.6-11.9l8.8,0l5.1,0l0-0.1c0-0.1,0-0.3-0.1-0.4l-5,0l-8.8,0l-6.7-12
	l-0.1,0.1l0-0.1l-0.2,0.1c-0.1,0.1-0.2,0.1-0.3,0.2l6.7,12l-6.7,12L1523.7,62.6z M1503.4,3.3l-6.6,12l0.1,0.1
	c0.1,0.1,0.3,0.1,0.4,0.2l0-0.1l0.1,0.1l6.7-11.9l13.6,0l0-0.2l0-0.1c0-0.1,0-0.2,0-0.3l-13.7,0l-1.7-3h-0.8L1503.4,3.3z M1183,34.5
	l-6.7-12c-0.2,0.1-0.3,0.2-0.5,0.3l2.8,5l3.7,6.7H1183z M487.1,69l1.3-2.4l13.6,0l0-0.2l0-0.1c0-0.1,0-0.2,0-0.3l-13.7,0l-6.5-11.5
	l-0.5-1l-0.2,0.1c-0.1,0.1-0.2,0.1-0.3,0.1l0.5,1l6.4,11.6l-1.5,2.7H487.1z M42.6,66.3L49,54.7l0.6-1l-0.2-0.1
	c-0.1,0-0.2-0.1-0.3-0.2l0,0.1l-0.1-0.1l-0.5,1L41.9,66l-13.7,0l0,0.1c0,0.1,0,0.1,0,0.2c0,0.1,0,0.2,0,0.3l13.6,0l1.3,2.4h0.9
	L42.6,66.3z M5.7,3.3L0,13.7v1.4L6.4,3.6l13.6,0l0-0.2l0-0.1c0-0.1,0-0.2,0-0.3L6.4,3L4.7,0H3.9L5.7,3.3z M5.1,69l1.3-2.4l13.6,0
	l0-0.2l0-0.1c0-0.1,0-0.2,0-0.3L6.4,66L0,54.5V56l5.7,10.4L4.2,69H5.1z M59.1,69l1.3-2.4l13.6,0l0-0.2l0-0.1c0-0.1,0-0.2,0-0.3
	l-13.7,0L54,54.5l-0.5-1l-0.2,0.1c-0.1,0.1-0.2,0.1-0.3,0.1l0.5,1l6.4,11.6L58.4,69H59.1z M96.6,66.3l6.4-11.6l0.6-1l-0.2-0.1
	c-0.1,0-0.2-0.1-0.3-0.2l-0.5,1L96.1,66l-13.7,0l0,0.2l0,0.1c0,0.1,0,0.2,0,0.3l13.6,0l1.3,2.4h0.7L96.6,66.3z M22.3,38.5
	c-0.1-0.1-0.2-0.1-0.3-0.2l0,0.1l-0.1-0.1l-6.7,12l-8.8,0l-5,0l0,0.1c0,0.1,0,0.3-0.1,0.4l5.1,0l8.8,0l6.6,11.9l0.1-0.1l0,0.1
	l0.2-0.1c0.1-0.1,0.2-0.1,0.3-0.2l-6.7-12l6.7-12L22.3,38.5z M48.4,46.5L48.4,46.5l0.2,0c0.1-0.1,0.2-0.1,0.3-0.2l-6.3-11.4
	l-0.5-0.3l-13.8,0l0,0.2l0,0.1c0,0.1,0,0.2,0,0.3l13.6,0l6.4,11.5L48.4,46.5z M49,22.7c-0.1-0.1-0.3-0.1-0.4-0.2l-6.7,12h0.7
	l3.7-6.7l2.8-5L49,22.7z M26,31.1c0.1,0.1,0.2,0.1,0.3,0.2l0-0.1l0.1,0.1l6.6-11.9l8.7,0l5,0l0-0.2l0-0.1c0-0.1,0-0.2,0-0.3l-13.7,0
	l-6.7-12l-0.1,0.1l0-0.1l-0.2,0.1C26.1,6.9,26,7,25.9,7.1l6.7,12l-6.7,12L26,31.1z M26,62.6c0.1,0.1,0.2,0.1,0.3,0.2l0-0.1l0.1,0.1
	l6.6-11.9l8.8,0l5.1,0l0-0.1c0-0.1,0-0.3-0.1-0.4l-5,0l-8.8,0l-6.7-12l-0.1,0.1l0-0.1l-0.2,0.1c-0.1,0.1-0.2,0.1-0.3,0.2l6.7,12
	l-6.7,12L26,62.6z M5.6,34.5h0.7L0,23.3v1.2l1.8,3.3L5.6,34.5z M6.5,35.1l13.6,0l0-0.1c0-0.1,0-0.1,0-0.2c0-0.1,0-0.2,0-0.3l-13.8,0
	l-0.5,0.3L0,45.2v1.4l0,0L6.5,35.1z M112.1,69l1.3-2.4l13.6,0l0-0.2l0-0.1c0-0.1,0-0.2,0-0.3l-13.7,0l-6.5-11.5l-0.5-1l-0.1,0.1
	l0-0.1l-0.2,0.1c-0.1,0.1-0.2,0.1-0.3,0.1l0.5,1l6.4,11.6l-1.5,2.7H112.1z M380.1,69l1.3-2.4l13.6,0l0-0.2l0-0.1c0-0.1,0-0.2,0-0.3
	l-13.7,0l-6.5-11.5l-0.5-1l-0.2,0.1c-0.1,0.1-0.2,0.1-0.3,0.1l0.5,1l6.4,11.6l-1.5,2.7H380.1z M326,69l1.3-2.4l13.6,0l0-0.2l0-0.1
	c0-0.1,0-0.2,0-0.3l-13.7,0l-6.5-11.5l-0.5-1l-0.1,0.1l0-0.1l-0.2,0.1c-0.1,0.1-0.2,0.1-0.3,0.1l0.5,1l6.4,11.6l-1.5,2.7H326z
	 M363.5,66.3l6.4-11.6l0.6-1l-0.2-0.1c-0.1,0-0.2-0.1-0.3-0.2l0,0.1l-0.1-0.1l-0.5,1L362.9,66l-13.7,0l0,0.2l0,0.1
	c0,0.1,0,0.2,0,0.3l13.6,0l1.3,2.4h0.9L363.5,66.3z M417.6,66.3l6.4-11.6l0.6-1l-0.2-0.1c-0.1,0-0.2-0.1-0.3-0.2l-0.5,1L417,66
	l-13.7,0l0,0.2l0,0.1c0,0.1,0,0.2,0,0.3l13.6,0l1.3,2.4h0.7L417.6,66.3z M470.5,66.3l6.4-11.6l0.6-1l-0.2-0.1
	c-0.1,0-0.2-0.1-0.3-0.2l0,0.1l-0.1-0.1l-0.5,1L469.8,66l-13.7,0l0,0.2l0,0.1l0,0.1l0,0.2l13.6,0l1.3,2.4h0.9L470.5,66.3z M433,69
	l1.3-2.4l13.6,0l0-0.2l0-0.1c0-0.1,0-0.2,0-0.3l-13.7,0l-6.5-11.5l-0.5-1l-0.1,0.1l0-0.1l-0.2,0.1c-0.1,0.1-0.2,0.1-0.3,0.1l0.5,1
	l6.4,11.6l-1.5,2.7H433z M149.6,66.3l6.4-11.6l0.6-1l-0.2-0.1c-0.1,0-0.2-0.1-0.3-0.2l0,0.1l-0.1-0.1l-0.5,1L148.9,66l-13.7,0l0,0.2
	l0,0.1c0,0.1,0,0.2,0,0.3l13.6,0l1.3,2.4h0.9L149.6,66.3z M310.6,66.3l6.4-11.6l0.6-1l-0.2-0.1c-0.1,0-0.2-0.1-0.3-0.2l-0.5,1
	L310,66l-13.7,0l0,0.1c0,0.1,0,0.1,0,0.2c0,0.1,0,0.2,0,0.3l13.6,0l1.3,2.4h0.7L310.6,66.3z M203.6,66.3l6.4-11.6l0.6-1l-0.2-0.1
	c-0.1,0-0.2-0.1-0.3-0.2l-0.5,1L203.1,66l-13.7,0l0,0.2l0,0.1c0,0.1,0,0.2,0,0.3l13.6,0l1.3,2.4h0.7L203.6,66.3z M166.1,69l1.3-2.4
	l13.6,0l0-0.2l0-0.1c0-0.1,0-0.2,0-0.3l-13.7,0L161,54.5l-0.5-1l-0.2,0.1c-0.1,0.1-0.2,0.1-0.3,0.1l0.5,1l6.4,11.6l-1.5,2.7H166.1z
	 M219.1,69l1.3-2.4l13.6,0l0-0.2l0-0.1c0-0.1,0-0.2,0-0.3l-13.7,0l-6.5-11.5l-0.5-1l-0.1,0.1l0-0.1l-0.2,0.1
	c-0.1,0.1-0.2,0.1-0.3,0.1l0.5,1l6.4,11.6l-1.5,2.7H219.1z M273.1,69l1.3-2.4l13.6,0l0-0.2l0-0.1c0-0.1,0-0.2,0-0.3l-13.7,0
	l-6.5-11.5l-0.5-1l-0.2,0.1c-0.1,0.1-0.2,0.1-0.3,0.1l0.5,1l6.4,11.6l-1.5,2.7H273.1z M204.7,0l-1.7,3l-13.7,0l0,0.2l0,0.1
	c0,0.1,0,0.2,0,0.3l13.6,0l6.7,11.9l0.1-0.1c0.1-0.1,0.3-0.1,0.4-0.2l-6.6-12l1.8-3.3H204.7z M15.8,19l6.7-12L22.3,7
	c-0.1-0.1-0.2-0.1-0.3-0.2l0,0.1l-0.1-0.1l-6.7,12l-13.7,0l0,0.2l0,0.1c0,0.1,0,0.2,0,0.3l4.9,0l8.8,0l6.6,11.9l0.1-0.1l0,0.1
	l0.2-0.1c0.1-0.1,0.2-0.1,0.3-0.2L15.8,19z M133,62.6c0.1,0.1,0.2,0.1,0.3,0.2l0-0.1l0.1,0.1l6.6-11.9l8.8,0l5.1,0l0-0.1
	c0-0.1,0-0.3-0.1-0.4l-5,0l-8.8,0l-6.7-12l-0.1,0.1l0-0.1l-0.2,0.1c-0.1,0.1-0.2,0.1-0.3,0.2l6.7,12l-6.7,12L133,62.6z M43.6,0
	l-1.7,3L28.2,3l0,0.1c0,0.1,0,0.1,0,0.2c0,0.1,0,0.2,0,0.3l13.6,0l6.7,11.9l0.1-0.1l0,0.1l0.1-0.1c0.1-0.1,0.3-0.1,0.4-0.2l-6.6-12
	L44.4,0H43.6z M133,31.1c0.1,0.1,0.2,0.1,0.3,0.2l0-0.1l0.1,0.1l6.6-11.9l8.7,0l5,0l0-0.2l0-0.1c0-0.1,0-0.2,0-0.3l-13.7,0l-6.7-12
	l-0.1,0.1l0-0.1l-0.2,0.1c-0.1,0.1-0.2,0.1-0.3,0.2l6.7,12l-6.7,12L133,31.1z M156,22.7c-0.1-0.1-0.3-0.1-0.4-0.2l-6.7,12h0.7
	l3.7-6.7l2.8-5L156,22.7z M106.9,46.6L106.9,46.6h0.1l6.4-11.5l13.6,0l0-0.2l0-0.1c0-0.1,0-0.2,0-0.3l-13.8,0l-0.5,0.3l-6.3,11.4
	l0.2,0.1C106.7,46.4,106.8,46.5,106.9,46.6z M748.8,46.6L748.8,46.6h0.1l6.4-11.5l13.6,0l0-0.1c0-0.1,0-0.1,0-0.2c0-0.1,0-0.2,0-0.3
	l-13.8,0l-0.5,0.3l-6.3,11.4l0.2,0.1C748.6,46.4,748.7,46.5,748.8,46.6z M183.3,38.5c-0.1-0.1-0.2-0.1-0.3-0.2l-6.7,12l-8.9,0
	l-4.9,0l0,0.1c0,0.1,0,0.3-0.1,0.4l5,0l8.9,0l6.6,11.9l0.2-0.1c0.1-0.1,0.2-0.1,0.3-0.2l-6.7-12l6.7-12L183.3,38.5z M161,46.6
	l6.4-11.5l13.6,0l0-0.2l0-0.1c0-0.1,0-0.2,0-0.3l-13.7,0l-0.5,0.3l-6.3,11.4l0.2,0.1C160.8,46.4,160.9,46.5,161,46.6z M167.4,34.5
	l-6.7-12c-0.2,0.1-0.3,0.2-0.5,0.3l2.8,5l3.7,6.7H167.4z M150.6,0l-1.7,3l-13.7,0l0,0.2l0,0.1c0,0.1,0,0.2,0,0.3l13.6,0l6.7,11.9
	l0.1-0.1l0,0.1l0.1-0.1c0.1-0.1,0.3-0.1,0.4-0.2l-6.6-12l1.8-3.3H150.6z M113.3,34.5l-6.7-12c-0.2,0.1-0.3,0.2-0.5,0.3l2.8,5
	l3.7,6.7H113.3z M176.8,19l6.7-12L183.3,7c-0.1-0.1-0.2-0.1-0.3-0.2l-6.7,12l-13.7,0l0,0.1c0,0.1,0,0.1,0,0.2c0,0.1,0,0.2,0,0.3
	l4.9,0l8.9,0l6.6,11.9l0.2-0.1c0.1-0.1,0.2-0.1,0.3-0.2L176.8,19z M166.9,3.3l-6.6,12l0.1,0.1c0.1,0.1,0.3,0.1,0.4,0.2l6.7-11.9
	l13.6,0l0-0.2l0-0.1c0-0.1,0-0.2,0-0.3l-13.7,0l-1.7-3h-0.7L166.9,3.3z M155.4,46.5L155.4,46.5l0.2,0c0.1-0.1,0.2-0.1,0.3-0.2
	l-6.3-11.4l-0.5-0.3l-13.8,0l0,0.2l0,0.1c0,0.1,0,0.2,0,0.3l13.6,0l6.4,11.5L155.4,46.5z M54.1,46.6l6.4-11.5l13.6,0l0-0.1
	c0-0.1,0-0.1,0-0.2c0-0.1,0-0.2,0-0.3l-13.7,0l-0.5,0.3l-6.3,11.4l0.2,0.1C53.9,46.4,54,46.5,54.1,46.6z M76.3,38.5
	c-0.1-0.1-0.2-0.1-0.3-0.2l-6.7,12l-8.9,0l-4.9,0l0,0.1c0,0.1,0,0.3-0.1,0.4l5,0l8.9,0L76,62.8l0.2-0.1c0.1-0.1,0.2-0.1,0.3-0.2
	l-6.7-12l6.7-12L76.3,38.5z M60.5,34.5l-6.7-12c-0.2,0.1-0.3,0.2-0.5,0.3l2.8,5l3.7,6.7H60.5z M59.9,3.3l-6.6,12l0.1,0.1
	c0.1,0.1,0.3,0.1,0.4,0.2l6.7-11.9l13.6,0l0-0.2l0-0.1c0-0.1,0-0.2,0-0.3L60.4,3l-1.7-3h-0.7L59.9,3.3z M69.8,19l6.7-12L76.3,7
	c-0.1-0.1-0.2-0.1-0.3-0.2l-6.7,12l-13.7,0l0,0.2l0,0.1c0,0.1,0,0.2,0,0.3l4.9,0l8.9,0L76,31.3l0.2-0.1c0.1-0.1,0.2-0.1,0.3-0.2
	L69.8,19z M97.8,0l-1.7,3L82.4,3l0,0.2l0,0.1c0,0.1,0,0.2,0,0.3l13.6,0l6.7,11.9l0.1-0.1c0.1-0.1,0.3-0.1,0.4-0.2l-6.6-12L98.4,0
	H97.8z M102.6,46.5c0.1-0.1,0.2-0.1,0.3-0.2l-6.3-11.4l-0.5-0.3l-13.7,0l0,0.2l0,0.1c0,0.1,0,0.2,0,0.3l13.6,0l6.4,11.5L102.6,46.5z
	 M112.7,3.3l-6.6,12l0.1,0.1c0.1,0.1,0.3,0.1,0.4,0.2l0-0.1l0.1,0.1l6.7-11.9l13.6,0l0-0.2l0-0.1c0-0.1,0-0.2,0-0.3l-13.7,0l-1.7-3
	h-0.8L112.7,3.3z M80.2,62.6c0.1,0.1,0.2,0.1,0.3,0.2l6.6-11.9l8.9,0l5,0l0-0.1c0-0.1,0-0.3-0.1-0.4l-4.9,0l-8.9,0l-6.7-12l-0.2,0.1
	c-0.1,0.1-0.2,0.1-0.3,0.2l6.7,12l-6.7,12L80.2,62.6z M103.1,22.7c-0.1-0.1-0.3-0.1-0.4-0.2l-6.7,12h0.7l3.7-6.7l2.8-5L103.1,22.7z
	 M80.2,31.1c0.1,0.1,0.2,0.1,0.3,0.2l6.6-11.9l8.9,0l4.9,0l0-0.2l0-0.1c0-0.1,0-0.2,0-0.3l-13.7,0l-6.7-12l-0.2,0.1
	C80.2,6.9,80.1,7,80,7.1l6.7,12L80,31L80.2,31.1z M122.8,19l6.7-12L129.3,7c-0.1-0.1-0.2-0.1-0.3-0.2l0,0.1l-0.1-0.1l-6.7,12
	l-13.7,0l0,0.2l0,0.1c0,0.1,0,0.2,0,0.3l4.9,0l8.8,0l6.6,11.9l0.1-0.1l0,0.1l0.2-0.1c0.1-0.1,0.2-0.1,0.3-0.2L122.8,19z M256.6,66.3
	l6.4-11.6l0.6-1l-0.2-0.1c-0.1,0-0.2-0.1-0.3-0.2l0,0.1l-0.1-0.1l-0.5,1L255.9,66l-13.7,0l0,0.2l0,0.1c0,0.1,0,0.2,0,0.3l13.6,0
	l1.3,2.4h0.9L256.6,66.3z M1487.3,66.3l6.4-11.6l0.6-1l-0.2-0.1c-0.1,0-0.2-0.1-0.3-0.2l-0.5,1l-6.5,11.6l-13.7,0l0,0.1
	c0,0.1,0,0.1,0,0.2c0,0.1,0,0.2,0,0.3l13.6,0l1.3,2.4h0.7L1487.3,66.3z M1235.9,69l1.3-2.4l13.6,0l0-0.2l0-0.1c0-0.1,0-0.2,0-0.3
	l-13.7,0l-6.5-11.5l-0.5-1l-0.2,0.1c-0.1,0.1-0.2,0.1-0.3,0.1l0.5,1l6.4,11.6l-1.5,2.7H1235.9z M1594.3,66.3l6.4-11.6l0.6-1
	l-0.2-0.1c-0.1,0-0.2-0.1-0.3-0.2l-0.5,1l-6.5,11.6l-13.7,0l0,0.2l0,0.1c0,0.1,0,0.2,0,0.3l13.6,0l1.3,2.4h0.7L1594.3,66.3z
	 M1502.8,69l1.3-2.4l13.6,0l0-0.2l0-0.1c0-0.1,0-0.2,0-0.3l-13.7,0l-6.5-11.5l-0.5-1l-0.1,0.1l0-0.1l-0.2,0.1
	c-0.1,0.1-0.2,0.1-0.3,0.1l0.5,1l6.4,11.6l-1.5,2.7H1502.8z M1556.8,69l1.3-2.4l13.6,0l0-0.2l0-0.1c0-0.1,0-0.2,0-0.3l-13.7,0
	l-6.5-11.5l-0.5-1l-0.2,0.1c-0.1,0.1-0.2,0.1-0.3,0.1l0.5,1l6.4,11.6l-1.5,2.7H1556.8z M1540.3,66.3l6.4-11.6l0.6-1l-0.2-0.1
	c-0.1,0-0.2-0.1-0.3-0.2l0,0.1l-0.1-0.1l-0.5,1l-6.5,11.6l-13.7,0l0,0.1c0,0.1,0,0.1,0,0.2c0,0.1,0,0.2,0,0.3l13.6,0l1.3,2.4h0.9
	L1540.3,66.3z M1433.3,66.3l6.4-11.6l0.6-1l-0.2-0.1c-0.1,0-0.2-0.1-0.3-0.2l0,0.1l-0.1-0.1l-0.5,1l-6.5,11.6l-13.7,0l0,0.2l0,0.1
	l0,0.1l0,0.2l13.6,0l1.3,2.4h0.9L1433.3,66.3z M1288.8,69l1.3-2.4l13.6,0l0-0.2l0-0.1c0-0.1,0-0.2,0-0.3l-13.7,0l-6.5-11.5l-0.5-1
	l-0.1,0.1l0-0.1l-0.2,0.1c-0.1,0.1-0.2,0.1-0.3,0.1l0.5,1l6.4,11.6L1288,69H1288.8z M1395.8,69l1.3-2.4l13.6,0l0-0.2l0-0.1
	c0-0.1,0-0.2,0-0.3l-13.7,0l-6.5-11.5l-0.5-1l-0.1,0.1l0-0.1l-0.2,0.1c-0.1,0.1-0.2,0.1-0.3,0.1l0.5,1l6.4,11.6L1395,69H1395.8z
	 M1326.3,66.3l6.4-11.6l0.6-1l-0.2-0.1c-0.1,0-0.2-0.1-0.3-0.2l0,0.1l-0.1-0.1l-0.5,1l-6.5,11.6l-13.7,0l0,0.2l0,0.1
	c0,0.1,0,0.2,0,0.3l13.6,0l1.3,2.4h0.9L1326.3,66.3z M1273.4,66.3l6.4-11.6l0.6-1l-0.2-0.1c-0.1,0-0.2-0.1-0.3-0.2l-0.5,1l-6.5,11.6
	l-13.7,0l0,0.1c0,0.1,0,0.1,0,0.2c0,0.1,0,0.2,0,0.3l13.6,0l1.3,2.4h0.7L1273.4,66.3z M1380.3,66.3l6.4-11.6l0.6-1l-0.2-0.1
	c-0.1,0-0.2-0.1-0.3-0.2l-0.5,1l-6.5,11.6l-13.7,0l0,0.2l0,0.1c0,0.1,0,0.2,0,0.3l13.6,0l1.3,2.4h0.7L1380.3,66.3z M1342.9,69
	l1.3-2.4l13.6,0l0-0.2l0-0.1c0-0.1,0-0.2,0-0.3l-13.7,0l-6.5-11.5l-0.5-1l-0.2,0.1c-0.1,0.1-0.2,0.1-0.3,0.1l0.5,1l6.4,11.6
	l-1.5,2.7H1342.9z M1449.8,69l1.3-2.4l13.6,0l0-0.2l0-0.1c0-0.1,0-0.2,0-0.3l-13.7,0l-6.5-11.5l-0.5-1l-0.2,0.1
	c-0.1,0.1-0.2,0.1-0.3,0.1l0.5,1l6.4,11.6l-1.5,2.7H1449.8z M1823.8,69l1.3-2.4l13.6,0l0-0.2l0-0.1c0-0.1,0-0.2,0-0.3l-13.7,0
	l-6.5-11.5l-0.5-1l-0.1,0.1l0-0.1l-0.2,0.1c-0.1,0.1-0.2,0.1-0.3,0.1l0.5,1l6.4,11.6l-1.5,2.7H1823.8z M1770.8,69l1.3-2.4l13.6,0
	l0-0.2l0-0.1c0-0.1,0-0.2,0-0.3l-13.7,0l-6.5-11.5l-0.5-1l-0.2,0.1c-0.1,0.1-0.2,0.1-0.3,0.1l0.5,1l6.4,11.6l-1.5,2.7H1770.8z
	 M1861.2,66.3l6.4-11.6l0.6-1l-0.2-0.1c-0.1,0-0.2-0.1-0.3-0.2l0,0.1l-0.1-0.1l-0.5,1l-6.5,11.6l-13.7,0l0,0.2l0,0.1
	c0,0.1,0,0.2,0,0.3l13.6,0l1.3,2.4h0.9L1861.2,66.3z M1808.3,66.3l6.4-11.6l0.6-1l-0.2-0.1c-0.1,0-0.2-0.1-0.3-0.2l-0.5,1l-6.5,11.6
	l-13.7,0l0,0.2l0,0.1c0,0.1,0,0.2,0,0.3l13.6,0l1.3,2.4h0.7L1808.3,66.3z M1877.8,69l1.3-2.4l13.6,0l0-0.2l0-0.1c0-0.1,0-0.2,0-0.3
	l-13.7,0l-6.5-11.5l-0.5-1l-0.2,0.1c-0.1,0.1-0.2,0.1-0.3,0.1l0.5,1l6.4,11.6l-1.5,2.7H1877.8z M1609.8,69l1.3-2.4l13.6,0l0-0.2
	l0-0.1c0-0.1,0-0.2,0-0.3l-13.7,0l-6.5-11.5l-0.5-1l-0.1,0.1l0-0.1l-0.2,0.1c-0.1,0.1-0.2,0.1-0.3,0.1l0.5,1l6.4,11.6l-1.5,2.7
	H1609.8z M1915.3,66.3L1921,56v-1.1l-6.3,11.2l-13.7,0l0,0.2l0,0.1c0,0.1,0,0.2,0,0.3l13.6,0l1.3,2.4h0.7L1915.3,66.3z M1663.8,69
	l1.3-2.4l13.6,0l0-0.2l0-0.1c0-0.1,0-0.2,0-0.3l-13.7,0l-6.5-11.5l-0.5-1l-0.2,0.1c-0.1,0.1-0.2,0.1-0.3,0.1l0.5,1l6.4,11.6
	l-1.5,2.7H1663.8z M1647.3,66.3l6.4-11.6l0.6-1l-0.2-0.1c-0.1,0-0.2-0.1-0.3-0.2l0,0.1l-0.1-0.1l-0.5,1l-6.5,11.6l-13.7,0l0,0.2
	l0,0.1c0,0.1,0,0.2,0,0.3l13.6,0l1.3,2.4h0.9L1647.3,66.3z M1701.3,66.3l6.4-11.6l0.6-1l-0.2-0.1c-0.1,0-0.2-0.1-0.3-0.2l-0.5,1
	l-6.5,11.6l-13.7,0l0,0.2l0,0.1l0,0.1l0,0.2l13.6,0l1.3,2.4h0.7L1701.3,66.3z M1754.3,66.3l6.4-11.6l0.6-1l-0.2-0.1
	c-0.1,0-0.2-0.1-0.3-0.2l0,0.1l-0.1-0.1l-0.5,1l-6.5,11.6l-13.7,0l0,0.1c0,0.1,0,0.1,0,0.2c0,0.1,0,0.2,0,0.3l13.6,0l1.3,2.4h0.9
	L1754.3,66.3z M1716.8,69l1.3-2.4l13.6,0l0-0.2l0-0.1c0-0.1,0-0.2,0-0.3l-13.7,0l-6.5-11.5l-0.5-1l-0.1,0.1l0-0.1l-0.2,0.1
	c-0.1,0.1-0.2,0.1-0.3,0.1l0.5,1l6.4,11.6l-1.5,2.7H1716.8z M1181.9,69l1.3-2.4l13.6,0l0-0.2l0-0.1c0-0.1,0-0.2,0-0.3l-13.7,0
	l-6.5-11.5l-0.5-1l-0.1,0.1l0-0.1l-0.2,0.1c-0.1,0.1-0.2,0.1-0.3,0.1l0.5,1l6.4,11.6L1181,69H1181.9z M701,69l1.3-2.4l13.6,0l0-0.2
	l0-0.1c0-0.1,0-0.2,0-0.3l-13.7,0l-6.5-11.5l-0.5-1l-0.2,0.1c-0.1,0.1-0.2,0.1-0.3,0.1l0.5,1l6.4,11.6l-1.5,2.7H701z M791.5,66.3
	l6.4-11.6l0.6-1l-0.2-0.1c-0.1,0-0.2-0.1-0.3-0.2l0,0.1l-0.1-0.1l-0.5,1L790.8,66l-13.7,0l0,0.1c0,0.1,0,0.1,0,0.2
	c0,0.1,0,0.2,0,0.3l13.6,0l1.3,2.4h0.9L791.5,66.3z M861,69l1.3-2.4l13.6,0l0-0.2l0-0.1c0-0.1,0-0.2,0-0.3l-13.7,0l-6.5-11.5l-0.5-1
	l-0.1,0.1l0-0.1l-0.2,0.1c-0.1,0.1-0.2,0.1-0.3,0.1l0.5,1l6.4,11.6l-1.5,2.7H861z M754,69l1.3-2.4l13.6,0l0-0.2l0-0.1
	c0-0.1,0-0.2,0-0.3l-13.7,0l-6.5-11.5l-0.5-1l-0.1,0.1l0-0.1l-0.2,0.1c-0.1,0.1-0.2,0.1-0.3,0.1l0.5,1l6.4,11.6l-1.5,2.7H754z
	 M808,69l1.3-2.4l13.6,0l0-0.2l0-0.1c0-0.1,0-0.2,0-0.3l-13.7,0l-6.5-11.5l-0.5-1l-0.2,0.1c-0.1,0.1-0.2,0.1-0.3,0.1l0.5,1l6.4,11.6
	l-1.5,2.7H808z M845.5,66.3l6.4-11.6l0.6-1l-0.2-0.1c-0.1,0-0.2-0.1-0.3-0.2l-0.5,1L845,66l-13.7,0l0,0.2l0,0.1c0,0.1,0,0.2,0,0.3
	l13.6,0l1.3,2.4h0.7L845.5,66.3z M738.5,66.3l6.4-11.6l0.6-1l-0.2-0.1c-0.1,0-0.2-0.1-0.3-0.2l-0.5,1L738,66l-13.7,0l0,0.2l0,0.1
	l0,0.1l0,0.2l13.6,0l1.3,2.4h0.7L738.5,66.3z M577.5,66.3l6.4-11.6l0.6-1l-0.2-0.1c-0.1,0-0.2-0.1-0.3-0.2l0,0.1l-0.1-0.1l-0.5,1
	L576.8,66l-13.7,0l0,0.1c0,0.1,0,0.1,0,0.2c0,0.1,0,0.2,0,0.3l13.6,0l1.3,2.4h0.9L577.5,66.3z M540,69l1.3-2.4l13.6,0l0-0.2l0-0.1
	c0-0.1,0-0.2,0-0.3l-13.7,0l-6.5-11.5l-0.5-1l-0.1,0.1l0-0.1l-0.2,0.1c-0.1,0.1-0.2,0.1-0.3,0.1l0.5,1l6.4,11.6l-1.5,2.7H540z
	 M594,69l1.3-2.4l13.6,0l0-0.2l0-0.1c0-0.1,0-0.2,0-0.3l-13.7,0l-6.5-11.5l-0.5-1l-0.2,0.1c-0.1,0.1-0.2,0.1-0.3,0.1l0.5,1l6.4,11.6
	l-1.5,2.7H594z M684.5,66.3l6.4-11.6l0.6-1l-0.2-0.1c-0.1,0-0.2-0.1-0.3-0.2l0,0.1l-0.1-0.1l-0.5,1L683.8,66l-13.7,0l0,0.2l0,0.1
	c0,0.1,0,0.2,0,0.3l13.6,0l1.3,2.4h0.9L684.5,66.3z M631.5,66.3l6.4-11.6l0.6-1l-0.2-0.1c-0.1,0-0.2-0.1-0.3-0.2l-0.5,1L631,66
	l-13.7,0l0,0.2l0,0.1c0,0.1,0,0.2,0,0.3l13.6,0l1.3,2.4h0.7L631.5,66.3z M647,69l1.3-2.4l13.6,0l0-0.2l0-0.1c0-0.1,0-0.2,0-0.3
	l-13.7,0l-6.5-11.5l-0.5-1l-0.1,0.1l0-0.1l-0.2,0.1c-0.1,0.1-0.2,0.1-0.3,0.1l0.5,1l6.4,11.6l-1.5,2.7H647z M1112.4,66.3l6.4-11.6
	l0.6-1l-0.2-0.1c-0.1,0-0.2-0.1-0.3-0.2l0,0.1l-0.1-0.1l-0.5,1l-6.5,11.6l-13.7,0l0,0.2l0,0.1c0,0.1,0,0.2,0,0.3l13.6,0l1.3,2.4h0.9
	L1112.4,66.3z M898.5,66.3l6.4-11.6l0.6-1l-0.2-0.1c-0.1,0-0.2-0.1-0.3-0.2l0,0.1l-0.1-0.1l-0.5,1L897.8,66l-13.7,0l0,0.2l0,0.1
	c0,0.1,0,0.2,0,0.3l13.6,0l1.3,2.4h0.9L898.5,66.3z M1128.9,69l1.3-2.4l13.6,0l0-0.2l0-0.1c0-0.1,0-0.2,0-0.3l-13.7,0l-6.5-11.5
	l-0.5-1l-0.2,0.1c-0.1,0.1-0.2,0.1-0.3,0.1l0.5,1l6.4,11.6l-1.5,2.7H1128.9z M1074.9,69l1.3-2.4l13.6,0l0-0.2l0-0.1
	c0-0.1,0-0.2,0-0.3l-13.7,0l-6.5-11.5l-0.5-1l-0.1,0.1l0-0.1l-0.2,0.1c-0.1,0.1-0.2,0.1-0.3,0.1l0.5,1l6.4,11.6L1074,69H1074.9z
	 M1219.3,66.3l6.4-11.6l0.6-1l-0.2-0.1c-0.1,0-0.2-0.1-0.3-0.2l0,0.1l-0.1-0.1l-0.5,1l-6.5,11.6l-13.7,0l0,0.2l0,0.1
	c0,0.1,0,0.2,0,0.3l13.6,0l1.3,2.4h0.9L1219.3,66.3z M1166.4,66.3l6.4-11.6l0.6-1l-0.2-0.1c-0.1,0-0.2-0.1-0.3-0.2l-0.5,1l-6.5,11.6
	l-13.7,0l0,0.2l0,0.1c0,0.1,0,0.2,0,0.3l13.6,0l1.3,2.4h0.7L1166.4,66.3z M524.5,66.3l6.4-11.6l0.6-1l-0.2-0.1
	c-0.1,0-0.2-0.1-0.3-0.2l-0.5,1L524,66l-13.7,0l0,0.1c0,0.1,0,0.1,0,0.2c0,0.1,0,0.2,0,0.3l13.6,0l1.3,2.4h0.7L524.5,66.3z
	 M1059.4,66.3l6.4-11.6l0.6-1l-0.2-0.1c-0.1,0-0.2-0.1-0.3-0.2l-0.5,1l-6.5,11.6l-13.7,0l0,0.2l0,0.1c0,0.1,0,0.2,0,0.3l13.6,0
	l1.3,2.4h0.7L1059.4,66.3z M915,69l1.3-2.4l13.6,0l0-0.2l0-0.1c0-0.1,0-0.2,0-0.3l-13.7,0l-6.5-11.5l-0.5-1l-0.2,0.1
	c-0.1,0.1-0.2,0.1-0.3,0.1l0.5,1l6.4,11.6l-1.5,2.7H915z M952.5,66.3l6.4-11.6l0.6-1l-0.2-0.1c-0.1,0-0.2-0.1-0.3-0.2l-0.5,1
	L951.9,66l-13.7,0l0,0.2l0,0.1c0,0.1,0,0.2,0,0.3l13.6,0l1.3,2.4h0.7L952.5,66.3z M967.9,69l1.3-2.4l13.6,0l0-0.2l0-0.1
	c0-0.1,0-0.2,0-0.3l-13.7,0l-6.5-11.5l-0.5-1l-0.1,0.1l0-0.1l-0.2,0.1c-0.1,0.1-0.2,0.1-0.3,0.1l0.5,1l6.4,11.6L967,69H967.9z
	 M1005.4,66.3l6.4-11.6l0.6-1l-0.2-0.1c-0.1,0-0.2-0.1-0.3-0.2l0,0.1l-0.1-0.1l-0.5,1l-6.5,11.6L991,66l0,0.1c0,0.1,0,0.1,0,0.2
	c0,0.1,0,0.2,0,0.3l13.6,0l1.3,2.4h0.9L1005.4,66.3z M1021.9,69l1.3-2.4l13.6,0l0-0.2l0-0.1c0-0.1,0-0.2,0-0.3l-13.7,0l-6.5-11.5
	l-0.5-1l-0.2,0.1c-0.1,0.1-0.2,0.1-0.3,0.1l0.5,1l6.4,11.6l-1.5,2.7H1021.9z M129.3,38.5c-0.1-0.1-0.2-0.1-0.3-0.2l0,0.1l-0.1-0.1
	l-6.7,12l-8.8,0l-5,0l0,0.1c0,0.1,0,0.3-0.1,0.4l5.1,0l8.8,0l6.6,11.9l0.1-0.1l0,0.1l0.2-0.1c0.1-0.1,0.2-0.1,0.3-0.2l-6.7-12
	l6.7-12L129.3,38.5z M534.8,46.6L534.8,46.6h0.1l6.4-11.5l13.6,0l0-0.1c0-0.1,0-0.1,0-0.2c0-0.1,0-0.2,0-0.3l-13.8,0l-0.5,0.3
	l-6.3,11.4l0.2,0.1C534.6,46.4,534.7,46.5,534.8,46.6z M561,62.6c0.1,0.1,0.2,0.1,0.3,0.2l0-0.1l0.1,0.1l6.6-11.9l8.8,0l5.1,0l0-0.1
	c0-0.1,0-0.3-0.1-0.4l-5,0l-8.8,0l-6.7-12l-0.1,0.1l0-0.1l-0.2,0.1c-0.1,0.1-0.2,0.1-0.3,0.2l6.7,12l-6.7,12L561,62.6z M583.3,46.5
	L583.3,46.5l0.2,0c0.1-0.1,0.2-0.1,0.3-0.2l-6.3-11.4l-0.5-0.3l-13.8,0l0,0.2l0,0.1c0,0.1,0,0.2,0,0.3l13.6,0l6.4,11.5L583.3,46.5z
	 M560.9,31.1c0.1,0.1,0.2,0.1,0.3,0.2l0-0.1l0.1,0.1l6.6-11.9l8.7,0l5,0l0-0.2l0-0.1c0,0,0-0.1,0-0.1l0-0.2l-13.7,0l-6.7-12
	l-0.1,0.1l0-0.1l-0.2,0.1c-0.1,0.1-0.2,0.1-0.3,0.2l6.7,12l-6.7,12L560.9,31.1z M583.9,22.7c-0.1-0.1-0.3-0.1-0.4-0.2l-6.7,12h0.7
	l3.7-6.7l2.8-5L583.9,22.7z M638.1,22.7c-0.1-0.1-0.3-0.1-0.4-0.2l-6.7,12h0.7l3.7-6.7l2.8-5L638.1,22.7z M578.5,0l-1.7,3l-13.7,0
	l0,0.1c0,0.1,0,0.1,0,0.2c0,0.1,0,0.2,0,0.3l13.6,0l6.7,11.9l0.1-0.1l0,0.1l0.1-0.1c0.1-0.1,0.3-0.1,0.4-0.2l-6.6-12l1.8-3.3H578.5z
	 M611.2,38.5c-0.1-0.1-0.2-0.1-0.3-0.2l-6.7,12l-8.9,0l-4.9,0l0,0.1c0,0.1,0,0.3-0.1,0.4l5,0l8.9,0l6.6,11.9l0.2-0.1
	c0.1-0.1,0.2-0.1,0.3-0.2l-6.7-12l6.7-12L611.2,38.5z M589,46.6l6.4-11.5l13.6,0l0-0.1c0-0.1,0-0.1,0-0.2c0-0.1,0-0.2,0-0.3l-13.7,0
	l-0.5,0.3l-6.3,11.4l0.2,0.1C588.8,46.4,588.9,46.5,589,46.6z M632.7,0L631,3l-13.7,0l0,0.2l0,0.1c0,0.1,0,0.2,0,0.3l13.6,0
	l6.7,11.9l0.1-0.1c0.1-0.1,0.3-0.1,0.4-0.2l-6.6-12l1.8-3.3H632.7z M594.8,3.3l-6.6,12l0.1,0.1c0.1,0.1,0.3,0.1,0.4,0.2l6.7-11.9
	l13.6,0l0-0.2l0-0.1c0-0.1,0-0.2,0-0.3l-13.7,0l-1.7-3H593L594.8,3.3z M595.4,34.5l-6.7-12c-0.2,0.1-0.3,0.2-0.5,0.3l2.8,5l3.7,6.7
	H595.4z M604.7,19l6.7-12L611.2,7c-0.1-0.1-0.2-0.1-0.3-0.2l-6.7,12l-13.7,0l0,0.2l0,0.1c0,0.1,0,0.2,0,0.3l4.9,0l8.9,0l6.6,11.9
	l0.2-0.1c0.1-0.1,0.2-0.1,0.3-0.2L604.7,19z M487.8,3.3l-6.6,12l0.1,0.1c0.1,0.1,0.3,0.1,0.4,0.2l6.7-11.9l13.6,0l0-0.2l0-0.1
	c0-0.1,0-0.2,0-0.3l-13.7,0l-1.7-3H486L487.8,3.3z M482,46.6l6.4-11.5l13.6,0l0-0.2l0-0.1c0-0.1,0-0.2,0-0.3l-13.7,0l-0.5,0.3
	l-6.3,11.4l0.2,0.1C481.8,46.4,481.9,46.5,482,46.6z M504.3,38.5c-0.1-0.1-0.2-0.1-0.3-0.2l-6.7,12l-8.9,0l-4.9,0l0,0.1
	c0,0.1,0,0.3-0.1,0.4l5,0l8.9,0l6.6,11.9l0.2-0.1c0.1-0.1,0.2-0.1,0.3-0.2l-6.7-12l6.7-12L504.3,38.5z M525.7,0L524,3l-13.7,0l0,0.1
	c0,0.1,0,0.1,0,0.2c0,0.1,0,0.2,0,0.3l13.6,0l6.7,11.9l0.1-0.1c0.1-0.1,0.3-0.1,0.4-0.2l-6.6-12l1.8-3.3H525.7z M497.8,19l6.7-12
	L504.3,7c-0.1-0.1-0.2-0.1-0.3-0.2l-6.7,12l-13.7,0l0,0.2l0,0.1c0,0.1,0,0.2,0,0.3l4.9,0l8.9,0l6.6,11.9l0.2-0.1
	c0.1-0.1,0.2-0.1,0.3-0.2L497.8,19z M488.4,34.5l-6.7-12c-0.2,0.1-0.3,0.2-0.5,0.3l2.8,5l3.7,6.7H488.4z M531.1,22.7
	c-0.1-0.1-0.3-0.1-0.4-0.2l-6.7,12h0.7l3.7-6.7l2.8-5L531.1,22.7z M530.5,46.5c0.1-0.1,0.2-0.1,0.3-0.2l-6.3-11.4l-0.5-0.3l-13.7,0
	l0,0.2l0,0.1l0,0.1l0,0.2l13.6,0l6.4,11.5L530.5,46.5z M550.7,19l6.7-12L557.2,7c-0.1-0.1-0.2-0.1-0.3-0.2l0,0.1l-0.1-0.1l-6.7,12
	l-13.7,0l0,0.2l0,0.1c0,0.1,0,0.2,0,0.3l4.9,0l8.8,0l6.6,11.9l0.1-0.1l0,0.1l0.2-0.1c0.1-0.1,0.2-0.1,0.3-0.2L550.7,19z M540.7,3.3
	l-6.6,12l0.1,0.1c0.1,0.1,0.3,0.1,0.4,0.2l0-0.1l0.1,0.1l6.7-11.9l13.6,0l0-0.2l0-0.1c0-0.1,0-0.2,0-0.3l-13.7,0l-1.7-3h-0.8
	L540.7,3.3z M508.1,62.6c0.1,0.1,0.2,0.1,0.3,0.2l6.6-11.9l8.9,0l5,0l0-0.1c0-0.1,0-0.3-0.1-0.4l-4.9,0l-8.9,0l-6.7-12l-0.2,0.1
	c-0.1,0.1-0.2,0.1-0.3,0.2l6.7,12l-6.7,12L508.1,62.6z M508.1,31.1c0.1,0.1,0.2,0.1,0.3,0.2l6.6-11.9l8.9,0l4.9,0l0-0.2l0-0.1l0-0.1
	l0-0.2l-13.7,0l-6.7-12l-0.2,0.1c-0.1,0.1-0.2,0.1-0.3,0.2l6.7,12L508,31L508.1,31.1z M541.2,34.5l-6.7-12c-0.2,0.1-0.3,0.2-0.5,0.3
	l2.8,5l3.7,6.7H541.2z M210.1,22.7c-0.1-0.1-0.3-0.1-0.4-0.2l-6.7,12h0.7l3.7-6.7l2.8-5L210.1,22.7z M718.2,38.5
	c-0.1-0.1-0.2-0.1-0.3-0.2l-6.7,12l-8.9,0l-4.9,0l0,0.1c0,0.1,0,0.3-0.1,0.4l5,0l8.9,0l6.6,11.9l0.2-0.1c0.1-0.1,0.2-0.1,0.3-0.2
	l-6.7-12l6.7-12L718.2,38.5z M739.7,0L738,3l-13.7,0l0,0.2l0,0.1c0,0,0,0.1,0,0.1l0,0.2l13.6,0l6.7,11.9l0.1-0.1
	c0.1-0.1,0.3-0.1,0.4-0.2l-6.6-12l1.8-3.3H739.7z M696,46.6l6.4-11.5l13.6,0l0-0.2l0-0.1c0-0.1,0-0.2,0-0.3l-13.7,0l-0.5,0.3
	l-6.3,11.4l0.2,0.1C695.8,46.4,695.9,46.5,696,46.6z M702.4,34.5l-6.7-12c-0.2,0.1-0.3,0.2-0.5,0.3l2.8,5l3.7,6.7H702.4z M745,22.7
	c-0.1-0.1-0.3-0.1-0.4-0.2l-6.7,12h0.7l3.7-6.7l2.8-5L745,22.7z M711.7,19l6.7-12L718.2,7c-0.1-0.1-0.2-0.1-0.3-0.2l-6.7,12l-13.7,0
	l0,0.1c0,0.1,0,0.1,0,0.2c0,0.1,0,0.2,0,0.3l4.9,0l8.9,0l6.6,11.9l0.2-0.1c0.1-0.1,0.2-0.1,0.3-0.2L711.7,19z M722.1,31.1
	c0.1,0.1,0.2,0.1,0.3,0.2l6.6-11.9l8.9,0l4.9,0l0-0.2l0-0.1l0-0.1l0-0.2l-13.7,0l-6.7-12l-0.2,0.1c-0.1,0.1-0.2,0.1-0.3,0.2l6.7,12
	l-6.7,12L722.1,31.1z M764.7,19l6.7-12L771.2,7c-0.1-0.1-0.2-0.1-0.3-0.2l0,0.1l-0.1-0.1l-6.7,12l-13.7,0l0,0.1c0,0.1,0,0.1,0,0.2
	c0,0.1,0,0.2,0,0.3l4.9,0l8.8,0l6.6,11.9l0.1-0.1l0,0.1l0.2-0.1c0.1-0.1,0.2-0.1,0.3-0.2L764.7,19z M755.2,34.5l-6.7-12
	c-0.2,0.1-0.3,0.2-0.5,0.3l2.8,5l3.7,6.7H755.2z M754.6,3.3l-6.6,12l0.1,0.1c0.1,0.1,0.3,0.1,0.4,0.2l0-0.1l0.1,0.1l6.7-11.9l13.6,0
	l0-0.2l0-0.1c0-0.1,0-0.2,0-0.3l-13.7,0l-1.7-3h-0.8L754.6,3.3z M744.5,46.5c0.1-0.1,0.2-0.1,0.3-0.2l-6.3-11.4l-0.5-0.3l-13.7,0
	l0,0.2l0,0.1c0,0.1,0,0.2,0,0.3l13.6,0l6.4,11.5L744.5,46.5z M701.8,3.3l-6.6,12l0.1,0.1c0.1,0.1,0.3,0.1,0.4,0.2l6.7-11.9l13.6,0
	l0-0.2l0-0.1c0-0.1,0-0.2,0-0.3l-13.7,0l-1.7-3H700L701.8,3.3z M722.1,62.6c0.1,0.1,0.2,0.1,0.3,0.2l6.6-11.9l8.9,0l5,0l0-0.1
	c0-0.1,0-0.3-0.1-0.4l-4.9,0l-8.9,0l-6.7-12l-0.2,0.1c-0.1,0.1-0.2,0.1-0.3,0.2l6.7,12l-6.7,12L722.1,62.6z M690.9,22.7
	c-0.1-0.1-0.3-0.1-0.4-0.2l-6.7,12h0.7l3.7-6.7l2.8-5L690.9,22.7z M685.5,0l-1.7,3l-13.7,0l0,0.2l0,0.1c0,0.1,0,0.2,0,0.3l13.6,0
	l6.7,11.9l0.1-0.1l0,0.1l0.1-0.1c0.1-0.1,0.3-0.1,0.4-0.2l-6.6-12l1.8-3.3H685.5z M641.8,46.6L641.8,46.6h0.1l6.4-11.5l13.6,0l0-0.2
	l0-0.1c0-0.1,0-0.2,0-0.3l-13.8,0l-0.5,0.3l-6.3,11.4l0.2,0.1C641.6,46.4,641.7,46.5,641.8,46.6z M648.2,34.5l-6.7-12
	c-0.2,0.1-0.3,0.2-0.5,0.3l2.8,5l3.7,6.7H648.2z M647.6,3.3l-6.6,12l0.1,0.1c0.1,0.1,0.3,0.1,0.4,0.2l0-0.1l0.1,0.1l6.7-11.9l13.6,0
	l0-0.2l0-0.1c0-0.1,0-0.2,0-0.3l-13.7,0l-1.7-3h-0.8L647.6,3.3z M615.1,62.6c0.1,0.1,0.2,0.1,0.3,0.2l6.6-11.9l8.9,0l5,0l0-0.1
	c0-0.1,0-0.3-0.1-0.4l-4.9,0l-8.9,0l-6.7-12l-0.2,0.1c-0.1,0.1-0.2,0.1-0.3,0.2l6.7,12l-6.7,12L615.1,62.6z M615.1,31.1
	c0.1,0.1,0.2,0.1,0.3,0.2l6.6-11.9l8.9,0l4.9,0l0-0.2l0-0.1c0-0.1,0-0.2,0-0.3l-13.7,0l-6.7-12l-0.2,0.1c-0.1,0.1-0.2,0.1-0.3,0.2
	l6.7,12l-6.7,12L615.1,31.1z M657.7,19l6.7-12L664.2,7c-0.1-0.1-0.2-0.1-0.3-0.2l0,0.1l-0.1-0.1l-6.7,12l-13.7,0l0,0.2l0,0.1
	c0,0.1,0,0.2,0,0.3l4.9,0l8.8,0l6.6,11.9l0.1-0.1l0,0.1l0.2-0.1c0.1-0.1,0.2-0.1,0.3-0.2L657.7,19z M664.2,38.5
	c-0.1-0.1-0.2-0.1-0.3-0.2l0,0.1l-0.1-0.1l-6.7,12l-8.8,0l-5,0l0,0.1c0,0.1,0,0.3-0.1,0.4l5.1,0l8.8,0l6.6,11.9l0.1-0.1l0,0.1
	l0.2-0.1c0.1-0.1,0.2-0.1,0.3-0.2l-6.7-12l6.7-12L664.2,38.5z M667.9,31.1c0.1,0.1,0.2,0.1,0.3,0.2l0-0.1l0.1,0.1l6.6-11.9l8.7,0
	l5,0l0-0.2l0-0.1c0-0.1,0-0.2,0-0.3l-13.7,0l-6.7-12l-0.1,0.1l0-0.1l-0.2,0.1c-0.1,0.1-0.2,0.1-0.3,0.2l6.7,12l-6.7,12L667.9,31.1z
	 M667.9,62.6c0.1,0.1,0.2,0.1,0.3,0.2l0-0.1l0.1,0.1l6.6-11.9l8.8,0l5.1,0l0-0.1c0-0.1,0-0.3-0.1-0.4l-5,0l-8.8,0l-6.7-12l-0.1,0.1
	l0-0.1l-0.2,0.1c-0.1,0.1-0.2,0.1-0.3,0.2l6.7,12l-6.7,12L667.9,62.6z M690.3,46.5L690.3,46.5l0.2,0c0.1-0.1,0.2-0.1,0.3-0.2
	l-6.3-11.4l-0.5-0.3l-13.8,0l0,0.2l0,0.1c0,0.1,0,0.2,0,0.3l13.6,0l6.4,11.5L690.3,46.5z M637.5,46.5c0.1-0.1,0.2-0.1,0.3-0.2
	l-6.3-11.4l-0.5-0.3l-13.7,0l0,0.2l0,0.1l0,0.1l0,0.2l13.6,0l6.4,11.5L637.5,46.5z M557.2,38.5c-0.1-0.1-0.2-0.1-0.3-0.2l0,0.1
	l-0.1-0.1l-6.7,12l-8.8,0l-5,0l0,0.1c0,0.1,0,0.3-0.1,0.4l5.1,0l8.8,0l6.6,11.9l0.1-0.1l0,0.1l0.2-0.1c0.1-0.1,0.2-0.1,0.3-0.2
	l-6.7-12l6.7-12L557.2,38.5z M268,46.6l6.4-11.5l13.6,0l0-0.1c0-0.1,0-0.1,0-0.2c0-0.1,0-0.2,0-0.3l-13.7,0l-0.5,0.3l-6.3,11.4
	l0.2,0.1C267.8,46.4,267.9,46.5,268,46.6z M290.3,38.5c-0.1-0.1-0.2-0.1-0.3-0.2l-6.7,12l-8.9,0l-4.9,0l0,0.1c0,0.1,0,0.3-0.1,0.4
	l5,0l8.9,0l6.6,11.9l0.2-0.1c0.1-0.1,0.2-0.1,0.3-0.2l-6.7-12l6.7-12L290.3,38.5z M311.7,0L310,3l-13.7,0l0,0.1c0,0.1,0,0.1,0,0.2
	c0,0.1,0,0.2,0,0.3l13.6,0l6.7,11.9l0.1-0.1c0.1-0.1,0.3-0.1,0.4-0.2l-6.6-12l1.8-3.3H311.7z M274.4,34.5l-6.7-12
	c-0.2,0.1-0.3,0.2-0.5,0.3l2.8,5l3.7,6.7H274.4z M283.8,19l6.7-12L290.3,7c-0.1-0.1-0.2-0.1-0.3-0.2l-6.7,12l-13.7,0l0,0.2l0,0.1
	c0,0.1,0,0.2,0,0.3l4.9,0l8.9,0l6.6,11.9l0.2-0.1c0.1-0.1,0.2-0.1,0.3-0.2L283.8,19z M273.9,3.3l-6.6,12l0.1,0.1
	c0.1,0.1,0.3,0.1,0.4,0.2l6.7-11.9l13.6,0l0-0.2l0-0.1c0-0.1,0-0.2,0-0.3l-13.7,0l-1.7-3H272L273.9,3.3z M294.2,31.1
	c0.1,0.1,0.2,0.1,0.3,0.2l6.6-11.9l8.9,0l4.9,0l0-0.2l0-0.1c0-0.1,0-0.2,0-0.3l-13.7,0l-6.7-12l-0.2,0.1c-0.1,0.1-0.2,0.1-0.3,0.2
	l6.7,12L294,31L294.2,31.1z M326.7,3.3l-6.6,12l0.1,0.1c0.1,0.1,0.3,0.1,0.4,0.2l0-0.1l0.1,0.1l6.7-11.9l13.6,0l0-0.2l0-0.1
	c0-0.1,0-0.2,0-0.3l-13.7,0l-1.7-3h-0.8L326.7,3.3z M317.1,22.7c-0.1-0.1-0.3-0.1-0.4-0.2l-6.7,12h0.7l3.7-6.7l2.8-5L317.1,22.7z
	 M294.2,62.6c0.1,0.1,0.2,0.1,0.3,0.2l6.6-11.9l8.9,0l5,0l0-0.1c0-0.1,0-0.3-0.1-0.4l-4.9,0l-8.9,0l-6.7-12l-0.2,0.1
	c-0.1,0.1-0.2,0.1-0.3,0.2l6.7,12l-6.7,12L294.2,62.6z M336.8,19l6.7-12L343.3,7c-0.1-0.1-0.2-0.1-0.3-0.2l0,0.1l-0.1-0.1l-6.7,12
	l-13.7,0l0,0.2l0,0.1c0,0.1,0,0.2,0,0.3l4.9,0l8.8,0l6.6,11.9l0.1-0.1l0,0.1l0.2-0.1c0.1-0.1,0.2-0.1,0.3-0.2L336.8,19z M257.6,0
	l-1.7,3l-13.7,0l0,0.2l0,0.1c0,0.1,0,0.2,0,0.3l13.6,0l6.7,11.9l0.1-0.1l0,0.1l0.1-0.1c0.1-0.1,0.3-0.1,0.4-0.2l-6.6-12l1.8-3.3
	H257.6z M316.6,46.5c0.1-0.1,0.2-0.1,0.3-0.2l-6.3-11.4l-0.5-0.3l-13.7,0l0,0.2l0,0.1c0,0.1,0,0.2,0,0.3l13.6,0l6.4,11.5L316.6,46.5
	z M229.8,19l6.7-12L236.3,7c-0.1-0.1-0.2-0.1-0.3-0.2l0,0.1l-0.1-0.1l-6.7,12l-13.7,0l0,0.1c0,0.1,0,0.1,0,0.2c0,0.1,0,0.2,0,0.3
	l4.9,0l8.8,0l6.6,11.9l0.1-0.1l0,0.1l0.2-0.1c0.1-0.1,0.2-0.1,0.3-0.2L229.8,19z M219.7,3.3l-6.6,12l0.1,0.1
	c0.1,0.1,0.3,0.1,0.4,0.2l0-0.1l0.1,0.1l6.7-11.9l13.6,0l0-0.2l0-0.1c0-0.1,0-0.2,0-0.3l-13.7,0l-1.7-3h-0.8L219.7,3.3z M187.2,62.6
	c0.1,0.1,0.2,0.1,0.3,0.2l6.6-11.9l8.9,0l5,0l0-0.1c0-0.1,0-0.3-0.1-0.4l-4.9,0l-8.9,0l-6.7-12l-0.2,0.1c-0.1,0.1-0.2,0.1-0.3,0.2
	l6.7,12l-6.7,12L187.2,62.6z M327.2,34.5l-6.7-12c-0.2,0.1-0.3,0.2-0.5,0.3l2.8,5l3.7,6.7H327.2z M187.2,31.1
	c0.1,0.1,0.2,0.1,0.3,0.2l6.6-11.9l8.9,0l4.9,0l0-0.2l0-0.1c0-0.1,0-0.2,0-0.3l-13.7,0l-6.7-12l-0.2,0.1c-0.1,0.1-0.2,0.1-0.3,0.2
	l6.7,12L187,31L187.2,31.1z M220.3,34.5l-6.7-12c-0.2,0.1-0.3,0.2-0.5,0.3l2.8,5l3.7,6.7H220.3z M209.6,46.5
	c0.1-0.1,0.2-0.1,0.3-0.2l-6.3-11.4l-0.5-0.3l-13.7,0l0,0.2l0,0.1c0,0.1,0,0.2,0,0.3l13.6,0l6.4,11.5L209.6,46.5z M240,62.6
	c0.1,0.1,0.2,0.1,0.3,0.2l0-0.1l0.1,0.1l6.6-11.9l8.8,0l5.1,0l0-0.1c0-0.1,0-0.3-0.1-0.4l-5,0l-8.8,0l-6.7-12l-0.1,0.1l0-0.1
	l-0.2,0.1c-0.1,0.1-0.2,0.1-0.3,0.2l6.7,12l-6.7,12L240,62.6z M240,31.1c0.1,0.1,0.2,0.1,0.3,0.2l0-0.1l0.1,0.1l6.6-11.9l8.7,0l5,0
	l0-0.2l0-0.1l0-0.1l0-0.2l-13.7,0l-6.7-12l-0.1,0.1l0-0.1l-0.2,0.1c-0.1,0.1-0.2,0.1-0.3,0.2l6.7,12l-6.7,12L240,31.1z M213.9,46.6
	L213.9,46.6h0.1l6.4-11.5l13.6,0l0-0.2l0-0.1c0-0.1,0-0.2,0-0.3l-13.8,0l-0.5,0.3l-6.3,11.4l0.2,0.1
	C213.7,46.4,213.8,46.5,213.9,46.6z M262.4,46.5L262.4,46.5l0.2,0c0.1-0.1,0.2-0.1,0.3-0.2l-6.3-11.4l-0.5-0.3l-13.8,0l0,0.2l0,0.1
	c0,0,0,0.1,0,0.1l0,0.2l13.6,0l6.4,11.5L262.4,46.5z M236.3,38.5c-0.1-0.1-0.2-0.1-0.3-0.2l0,0.1l-0.1-0.1l-6.7,12l-8.8,0l-5,0
	l0,0.1c0,0.1,0,0.3-0.1,0.4l5.1,0l8.8,0l6.6,11.9l0.1-0.1l0,0.1l0.2-0.1c0.1-0.1,0.2-0.1,0.3-0.2l-6.7-12l6.7-12L236.3,38.5z
	 M262.9,22.7c-0.1-0.1-0.3-0.1-0.4-0.2l-6.7,12h0.7l3.7-6.7l2.8-5L262.9,22.7z M390.8,19l6.7-12L397.3,7c-0.1-0.1-0.2-0.1-0.3-0.2
	l-6.7,12l-13.7,0l0,0.2l0,0.1c0,0.1,0,0.2,0,0.3l4.9,0l8.9,0l6.6,11.9l0.2-0.1c0.1-0.1,0.2-0.1,0.3-0.2L390.8,19z M433.7,3.3
	l-6.6,12l0.1,0.1c0.1,0.1,0.3,0.1,0.4,0.2l0-0.1l0.1,0.1l6.7-11.9l13.6,0l0-0.2l0-0.1c0-0.1,0-0.2,0-0.3l-13.7,0l-1.7-3h-0.8
	L433.7,3.3z M401.2,62.6c0.1,0.1,0.2,0.1,0.3,0.2l6.6-11.9l8.9,0l5,0l0-0.1c0-0.1,0-0.3-0.1-0.4l-4.9,0l-8.9,0l-6.7-12l-0.2,0.1
	c-0.1,0.1-0.2,0.1-0.3,0.2l6.7,12l-6.7,12L401.2,62.6z M443.7,19l6.7-12L450.2,7c-0.1-0.1-0.2-0.1-0.3-0.2l0,0.1l-0.1-0.1l-6.7,12
	l-13.7,0l0,0.2l0,0.1c0,0.1,0,0.2,0,0.3l4.9,0l8.8,0l6.6,11.9l0.1-0.1l0,0.1l0.2-0.1c0.1-0.1,0.2-0.1,0.3-0.2L443.7,19z M401.1,31.1
	c0.1,0.1,0.2,0.1,0.3,0.2l6.6-11.9l8.9,0l4.9,0l0-0.2l0-0.1c0,0,0-0.1,0-0.1l0-0.2l-13.7,0l-6.7-12l-0.2,0.1
	c-0.1,0.1-0.2,0.1-0.3,0.2l6.7,12L401,31L401.1,31.1z M434.2,34.5l-6.7-12c-0.2,0.1-0.3,0.2-0.5,0.3l2.8,5l3.7,6.7H434.2z
	 M423.6,46.5c0.1-0.1,0.2-0.1,0.3-0.2l-6.3-11.4l-0.5-0.3l-13.7,0l0,0.2l0,0.1c0,0.1,0,0.2,0,0.3l13.6,0l6.4,11.5L423.6,46.5z
	 M427.8,46.6L427.8,46.6h0.1l6.4-11.5l13.6,0l0-0.2l0-0.1c0-0.1,0-0.2,0-0.3l-13.8,0l-0.5,0.3l-6.3,11.4l0.2,0.1
	C427.6,46.4,427.7,46.5,427.8,46.6z M476.3,46.5L476.3,46.5l0.2,0c0.1-0.1,0.2-0.1,0.3-0.2l-6.3-11.4l-0.5-0.3l-13.8,0l0,0.2l0,0.1
	c0,0.1,0,0.2,0,0.3l13.6,0l6.4,11.5L476.3,46.5z M454,31.1c0.1,0.1,0.2,0.1,0.3,0.2l0-0.1l0.1,0.1l6.6-11.9l8.7,0l5,0l0-0.2l0-0.1
	l0-0.1l0-0.2l-13.7,0l-6.7-12l-0.1,0.1l0-0.1l-0.2,0.1c-0.1,0.1-0.2,0.1-0.3,0.2l6.7,12l-6.7,12L454,31.1z M454,62.6
	c0.1,0.1,0.2,0.1,0.3,0.2l0-0.1l0.1,0.1l6.6-11.9l8.8,0l5.1,0l0-0.1c0-0.1,0-0.3-0.1-0.4l-5,0l-8.8,0l-6.7-12l-0.1,0.1l0-0.1
	l-0.2,0.1c-0.1,0.1-0.2,0.1-0.3,0.2l6.7,12l-6.7,12L454,62.6z M450.2,38.5c-0.1-0.1-0.2-0.1-0.3-0.2l0,0.1l-0.1-0.1l-6.7,12l-8.8,0
	l-5,0l0,0.1c0,0.1,0,0.3-0.1,0.4l5.1,0l8.8,0l6.6,11.9l0.1-0.1l0,0.1l0.2-0.1c0.1-0.1,0.2-0.1,0.3-0.2l-6.7-12l6.7-12L450.2,38.5z
	 M424.1,22.7c-0.1-0.1-0.3-0.1-0.4-0.2l-6.7,12h0.7l3.7-6.7l2.8-5L424.1,22.7z M476.9,22.7c-0.1-0.1-0.3-0.1-0.4-0.2l-6.7,12h0.7
	l3.7-6.7l2.8-5L476.9,22.7z M418.7,0L417,3l-13.7,0l0,0.2l0,0.1c0,0.1,0,0.2,0,0.3l13.6,0l6.7,11.9l0.1-0.1c0.1-0.1,0.3-0.1,0.4-0.2
	l-6.6-12l1.8-3.3H418.7z M364.5,0l-1.7,3l-13.7,0l0,0.2l0,0.1c0,0.1,0,0.2,0,0.3l13.6,0l6.7,11.9l0.1-0.1l0,0.1l0.1-0.1
	c0.1-0.1,0.3-0.1,0.4-0.2l-6.6-12l1.8-3.3H364.5z M347,31.1c0.1,0.1,0.2,0.1,0.3,0.2l0-0.1l0.1,0.1l6.6-11.9l8.7,0l5,0l0-0.2l0-0.1
	c0,0,0-0.1,0-0.1l0-0.2l-13.7,0l-6.7-12l-0.1,0.1l0-0.1l-0.2,0.1c-0.1,0.1-0.2,0.1-0.3,0.2l6.7,12l-6.7,12L347,31.1z M347,62.6
	c0.1,0.1,0.2,0.1,0.3,0.2l0-0.1l0.1,0.1l6.6-11.9l8.8,0l5.1,0l0-0.1c0-0.1,0-0.3-0.1-0.4l-5,0l-8.8,0l-6.7-12l-0.1,0.1l0-0.1
	l-0.2,0.1c-0.1,0.1-0.2,0.1-0.3,0.2l6.7,12l-6.7,12L347,62.6z M369.3,46.5L369.3,46.5l0.2,0c0.1-0.1,0.2-0.1,0.3-0.2l-6.3-11.4
	l-0.5-0.3l-13.8,0l0,0.2l0,0.1l0,0.1l0,0.2l13.6,0l6.4,11.5L369.3,46.5z M343.3,38.5c-0.1-0.1-0.2-0.1-0.3-0.2l0,0.1l-0.1-0.1
	l-6.7,12l-8.8,0l-5,0l0,0.1c0,0.1,0,0.3-0.1,0.4l5.1,0l8.8,0l6.6,11.9l0.1-0.1l0,0.1l0.2-0.1c0.1-0.1,0.2-0.1,0.3-0.2l-6.7-12
	l6.7-12L343.3,38.5z M320.8,46.6L320.8,46.6h0.1l6.4-11.5l13.6,0l0-0.1c0-0.1,0-0.1,0-0.2c0-0.1,0-0.2,0-0.3l-13.8,0l-0.5,0.3
	l-6.3,11.4l0.2,0.1C320.6,46.4,320.7,46.5,320.8,46.6z M369.9,22.7c-0.1-0.1-0.3-0.1-0.4-0.2l-6.7,12h0.7l3.7-6.7l2.8-5L369.9,22.7z
	 M375,46.6l6.4-11.5l13.6,0l0-0.2l0-0.1c0-0.1,0-0.2,0-0.3l-13.7,0l-0.5,0.3l-6.3,11.4l0.2,0.1C374.8,46.4,374.9,46.5,375,46.6z
	 M397.3,38.5c-0.1-0.1-0.2-0.1-0.3-0.2l-6.7,12l-8.9,0l-4.9,0l0,0.1c0,0.1,0,0.3-0.1,0.4l5,0l8.9,0l6.6,11.9l0.2-0.1
	c0.1-0.1,0.2-0.1,0.3-0.2l-6.7-12l6.7-12L397.3,38.5z M380.9,3.3l-6.6,12l0.1,0.1c0.1,0.1,0.3,0.1,0.4,0.2l6.7-11.9l13.6,0l0-0.2
	l0-0.1c0-0.1,0-0.2,0-0.3l-13.7,0l-1.7-3H379L380.9,3.3z M381.4,34.5l-6.7-12c-0.2,0.1-0.3,0.2-0.5,0.3l2.8,5l3.7,6.7H381.4z
	 M471.5,0l-1.7,3l-13.7,0l0,0.2l0,0.1l0,0.1l0,0.2l13.6,0l6.7,11.9l0.1-0.1l0,0.1l0.1-0.1c0.1-0.1,0.3-0.1,0.4-0.2l-6.6-12l1.8-3.3
	H471.5z"/>
</svg>
