<?xml version="1.0" encoding="UTF-8" standalone="no"?>
<!-- Generator: Adobe Illustrator 26.2.1, SVG Export Plug-In . SVG Version: 6.00 Build 0)  -->

<svg
   version="1.1"
   id="_x34_20x120"
   x="0px"
   y="0px"
   viewBox="0 0 361.39999 41.527"
   xml:space="preserve"
   sodipodi:docname="evo-priv-logo.svg"
   width="361.39999"
   height="41.527"
   inkscape:version="1.1.1 (c3084ef, 2021-09-22)"
   xmlns:inkscape="http://www.inkscape.org/namespaces/inkscape"
   xmlns:sodipodi="http://sodipodi.sourceforge.net/DTD/sodipodi-0.dtd"
   xmlns="http://www.w3.org/2000/svg"
   xmlns:svg="http://www.w3.org/2000/svg"><defs
   id="defs211" /><sodipodi:namedview
   id="namedview209"
   pagecolor="#505050"
   bordercolor="#ffffff"
   borderopacity="1"
   inkscape:pageshadow="0"
   inkscape:pageopacity="0"
   inkscape:pagecheckerboard="1"
   showgrid="false"
   inkscape:zoom="2.6833333"
   inkscape:cx="79.378882"
   inkscape:cy="77.142857"
   inkscape:window-width="1462"
   inkscape:window-height="916"
   inkscape:window-x="50"
   inkscape:window-y="38"
   inkscape:window-maximized="1"
   inkscape:current-layer="_x34_20x120" />
<style
   type="text/css"
   id="style2">
	.st0{display:none;}
	.st1{opacity:0.98;}
	.st2{fill:url(#SVGID_1_);}
	.st3{fill:url(#SVGID_00000018943667995555910140000004700869535545337775_);}
	.st4{fill:url(#SVGID_00000116915648752298383380000001351460346675438230_);}
	.st5{fill:url(#SVGID_00000111898678545702199480000012702282505739618742_);}
	.st6{fill:url(#SVGID_00000139269226839353137720000003546193120399936955_);}
	.st7{fill:url(#SVGID_00000065753489879693299970000014316639971255679361_);}
	.st8{fill:url(#SVGID_00000072989010785548866240000003664289566236246206_);}
	.st9{fill:url(#SVGID_00000024710885068816498560000015125154990895661706_);}
	.st10{fill:url(#SVGID_00000085971178887116411320000001478534457384624296_);}
	.st11{fill:url(#SVGID_00000013165803689949711420000014071807645207373230_);}
	.st12{fill:url(#SVGID_00000183965935086474599780000001861996658039251092_);}
	.st13{fill:url(#SVGID_00000073713400838337018150000003596409055015569034_);}
	.st14{fill:url(#SVGID_00000141415977747658957900000015760234613683869329_);}
	.st15{fill:url(#SVGID_00000018224794659652117570000014491660419818075026_);}
	.st16{fill:url(#SVGID_00000114768819825190628220000016324796521358357413_);}
</style>
<rect
   id="BG"
   class="st0"
   width="420"
   height="120"
   x="0"
   y="0" />
<g
   id="g206"
   transform="translate(-29.3,-39.171886)">
	<g
   class="st1"
   id="g174">
		<linearGradient
   id="SVGID_1_"
   gradientUnits="userSpaceOnUse"
   x1="393.37979"
   y1="54.7798"
   x2="-21.7882"
   y2="61.508598">
			<stop
   offset="0"
   style="stop-color:#BD965E"
   id="stop5" />
			<stop
   offset="0.5219"
   style="stop-color:#FECB86"
   id="stop7" />
			<stop
   offset="0.6412"
   style="stop-color:#E2B375"
   id="stop9" />
			<stop
   offset="0.8778"
   style="stop-color:#B08552"
   id="stop11" />
			<stop
   offset="1"
   style="stop-color:#987041"
   id="stop13" />
		</linearGradient>
		<path
   class="st2"
   d="M 72.2,62.5 V 72.7 H 70.4 V 47.4 h 6.5 c 3,0 5.2,0.6 6.7,1.9 1.5,1.3 2.3,3.2 2.3,5.6 0,1.1 -0.2,2.1 -0.6,3.1 -0.4,0.9 -1,1.7 -1.8,2.4 -0.8,0.7 -1.7,1.2 -2.8,1.6 -1.1,0.4 -2.4,0.6 -3.8,0.6 h -4.7 z m 0,-1.5 h 4.7 c 1.1,0 2.1,-0.2 3,-0.5 0.9,-0.3 1.6,-0.7 2.2,-1.3 0.6,-0.5 1.1,-1.2 1.4,-1.9 0.3,-0.7 0.5,-1.6 0.5,-2.4 0,-1.9 -0.6,-3.4 -1.8,-4.5 -1.2,-1 -3,-1.6 -5.4,-1.6 H 72.1 V 61 Z"
   id="path16"
   style="fill:url(#SVGID_1_)" />
		
			<linearGradient
   id="SVGID_00000000189603178466983260000009985178285530198964_"
   gradientUnits="userSpaceOnUse"
   x1="393.3884"
   y1="55.307999"
   x2="-21.779699"
   y2="62.0368">
			<stop
   offset="0"
   style="stop-color:#BD965E"
   id="stop18" />
			<stop
   offset="0.5219"
   style="stop-color:#FECB86"
   id="stop20" />
			<stop
   offset="0.6412"
   style="stop-color:#E2B375"
   id="stop22" />
			<stop
   offset="0.8778"
   style="stop-color:#B08552"
   id="stop24" />
			<stop
   offset="1"
   style="stop-color:#987041"
   id="stop26" />
		</linearGradient>
		<path
   style="fill:url(#SVGID_00000000189603178466983260000009985178285530198964_)"
   d="M 97,61.2 V 72.6 H 95.2 V 47.4 h 6.5 c 2.9,0 5.1,0.6 6.5,1.7 1.4,1.1 2.2,2.8 2.2,5 0,1 -0.2,1.8 -0.5,2.6 -0.3,0.8 -0.8,1.5 -1.4,2.1 -0.6,0.6 -1.4,1.1 -2.3,1.5 -0.9,0.4 -1.9,0.6 -3,0.8 0.3,0.2 0.5,0.4 0.8,0.7 l 8.7,10.9 H 111 c -0.2,0 -0.4,0 -0.5,-0.1 -0.1,-0.1 -0.3,-0.2 -0.4,-0.4 L 102,61.9 c -0.2,-0.3 -0.4,-0.4 -0.7,-0.6 -0.2,-0.1 -0.6,-0.2 -1.1,-0.2 H 97 Z m 0,-1.4 h 4.4 c 1.1,0 2.1,-0.1 3,-0.4 0.9,-0.3 1.6,-0.7 2.3,-1.2 0.6,-0.5 1.1,-1.1 1.4,-1.8 0.3,-0.7 0.5,-1.5 0.5,-2.4 0,-1.8 -0.6,-3.1 -1.8,-4 -1.2,-0.9 -2.9,-1.3 -5.1,-1.3 H 97 Z"
   id="path29" />
		
			<linearGradient
   id="SVGID_00000142138711841072663140000014470794038655522473_"
   gradientUnits="userSpaceOnUse"
   x1="393.39319"
   y1="55.606998"
   x2="-21.774799"
   y2="62.3358">
			<stop
   offset="0"
   style="stop-color:#BD965E"
   id="stop31" />
			<stop
   offset="0.5219"
   style="stop-color:#FECB86"
   id="stop33" />
			<stop
   offset="0.6412"
   style="stop-color:#E2B375"
   id="stop35" />
			<stop
   offset="0.8778"
   style="stop-color:#B08552"
   id="stop37" />
			<stop
   offset="1"
   style="stop-color:#987041"
   id="stop39" />
		</linearGradient>
		<path
   style="fill:url(#SVGID_00000142138711841072663140000014470794038655522473_)"
   d="m 123.3,72.6 h -1.8 V 47.4 h 1.8 z"
   id="path42" />
		
			<linearGradient
   id="SVGID_00000049216199150024312880000002484216670415853466_"
   gradientUnits="userSpaceOnUse"
   x1="393.39719"
   y1="55.853802"
   x2="-21.7708"
   y2="62.5826">
			<stop
   offset="0"
   style="stop-color:#BD965E"
   id="stop44" />
			<stop
   offset="0.5219"
   style="stop-color:#FECB86"
   id="stop46" />
			<stop
   offset="0.6412"
   style="stop-color:#E2B375"
   id="stop48" />
			<stop
   offset="0.8778"
   style="stop-color:#B08552"
   id="stop50" />
			<stop
   offset="1"
   style="stop-color:#987041"
   id="stop52" />
		</linearGradient>
		<path
   style="fill:url(#SVGID_00000049216199150024312880000002484216670415853466_)"
   d="m 131.5,47.4 h 1.4 c 0.2,0 0.3,0 0.4,0.1 0.1,0.1 0.2,0.2 0.2,0.3 l 8.6,21 c 0.2,0.5 0.4,1.1 0.6,1.8 0.1,-0.6 0.3,-1.2 0.5,-1.8 l 8.6,-21 c 0.1,-0.1 0.1,-0.2 0.3,-0.3 0.1,-0.1 0.3,-0.1 0.4,-0.1 h 1.4 L 143.5,72.7 H 142 Z"
   id="path55" />
		
			<linearGradient
   id="SVGID_00000164487953247285368360000012546370865928130960_"
   gradientUnits="userSpaceOnUse"
   x1="393.40399"
   y1="56.269299"
   x2="-21.764099"
   y2="62.9981">
			<stop
   offset="0"
   style="stop-color:#BD965E"
   id="stop57" />
			<stop
   offset="0.5219"
   style="stop-color:#FECB86"
   id="stop59" />
			<stop
   offset="0.6412"
   style="stop-color:#E2B375"
   id="stop61" />
			<stop
   offset="0.8778"
   style="stop-color:#B08552"
   id="stop63" />
			<stop
   offset="1"
   style="stop-color:#987041"
   id="stop65" />
		</linearGradient>
		<path
   style="fill:url(#SVGID_00000164487953247285368360000012546370865928130960_)"
   d="m 164.1,72.6 h -1.8 V 47.4 h 1.8 z"
   id="path68" />
		
			<linearGradient
   id="SVGID_00000074416342101390650720000008241378516061649836_"
   gradientUnits="userSpaceOnUse"
   x1="393.40909"
   y1="56.5867"
   x2="-21.747801"
   y2="63.315399">
			<stop
   offset="0"
   style="stop-color:#BD965E"
   id="stop70" />
			<stop
   offset="0.5219"
   style="stop-color:#FECB86"
   id="stop72" />
			<stop
   offset="0.6412"
   style="stop-color:#E2B375"
   id="stop74" />
			<stop
   offset="0.8778"
   style="stop-color:#B08552"
   id="stop76" />
			<stop
   offset="1"
   style="stop-color:#987041"
   id="stop78" />
		</linearGradient>
		<path
   style="fill:url(#SVGID_00000074416342101390650720000008241378516061649836_)"
   d="m 177.7,71.1 h 12 v 1.6 H 175.9 V 47.4 h 1.8 z"
   id="path81" />
		
			<linearGradient
   id="SVGID_00000022543770844015101410000016417805030746696627_"
   gradientUnits="userSpaceOnUse"
   x1="393.41501"
   y1="56.951801"
   x2="-21.753"
   y2="63.680599">
			<stop
   offset="0"
   style="stop-color:#BD965E"
   id="stop83" />
			<stop
   offset="0.5219"
   style="stop-color:#FECB86"
   id="stop85" />
			<stop
   offset="0.6412"
   style="stop-color:#E2B375"
   id="stop87" />
			<stop
   offset="0.8778"
   style="stop-color:#B08552"
   id="stop89" />
			<stop
   offset="1"
   style="stop-color:#987041"
   id="stop91" />
		</linearGradient>
		<path
   style="fill:url(#SVGID_00000022543770844015101410000016417805030746696627_)"
   d="m 212.9,47.4 v 1.5 h -13.3 v 10.2 h 11.1 v 1.5 h -11.1 v 10.5 h 13.3 v 1.5 H 197.7 V 47.4 Z"
   id="path94" />
		
			<linearGradient
   id="SVGID_00000121252976160984079110000002152945291758272436_"
   gradientUnits="userSpaceOnUse"
   x1="393.42239"
   y1="57.4072"
   x2="-21.7456"
   y2="64.136002">
			<stop
   offset="0"
   style="stop-color:#BD965E"
   id="stop96" />
			<stop
   offset="0.5219"
   style="stop-color:#FECB86"
   id="stop98" />
			<stop
   offset="0.6412"
   style="stop-color:#E2B375"
   id="stop100" />
			<stop
   offset="0.8778"
   style="stop-color:#B08552"
   id="stop102" />
			<stop
   offset="1"
   style="stop-color:#987041"
   id="stop104" />
		</linearGradient>
		<path
   style="fill:url(#SVGID_00000121252976160984079110000002152945291758272436_)"
   d="m 233.3,71.4 c 0.9,0 1.7,0 2.4,-0.1 0.7,-0.1 1.4,-0.2 2,-0.4 0.6,-0.2 1.2,-0.4 1.8,-0.7 0.6,-0.3 1.1,-0.5 1.7,-0.9 v -6.8 h -4.9 c -0.1,0 -0.2,0 -0.3,-0.1 -0.1,-0.1 -0.1,-0.2 -0.1,-0.3 v -1 h 7 v 9 c -0.6,0.4 -1.3,0.8 -2,1.2 -0.7,0.3 -1.4,0.6 -2.2,0.9 -0.8,0.2 -1.6,0.4 -2.5,0.5 -0.9,0.1 -1.9,0.2 -2.9,0.2 -1.8,0 -3.5,-0.3 -5,-0.9 -1.5,-0.6 -2.8,-1.5 -3.9,-2.6 -1.1,-1.1 -1.9,-2.5 -2.5,-4.1 -0.6,-1.6 -0.9,-3.4 -0.9,-5.3 0,-1.9 0.3,-3.7 0.9,-5.3 0.6,-1.6 1.4,-2.9 2.5,-4.1 1.1,-1.1 2.4,-2 4,-2.6 1.6,-0.6 3.3,-0.9 5.3,-0.9 1,0 1.9,0.1 2.7,0.2 0.8,0.1 1.6,0.3 2.3,0.6 0.7,0.3 1.4,0.6 2,0.9 0.6,0.4 1.2,0.8 1.7,1.3 l -0.5,0.8 c -0.1,0.2 -0.3,0.3 -0.4,0.3 -0.1,0 -0.2,0 -0.3,-0.1 -0.2,-0.1 -0.4,-0.2 -0.8,-0.5 -0.3,-0.3 -0.8,-0.5 -1.4,-0.8 -0.6,-0.3 -1.3,-0.5 -2.2,-0.8 -0.9,-0.2 -1.9,-0.3 -3.2,-0.3 -1.6,0 -3.1,0.3 -4.5,0.8 -1.4,0.5 -2.5,1.3 -3.4,2.3 -0.9,1 -1.7,2.2 -2.2,3.6 -0.5,1.4 -0.8,3 -0.8,4.7 0,1.8 0.3,3.4 0.8,4.8 0.5,1.4 1.2,2.6 2.2,3.6 0.9,1 2,1.7 3.3,2.3 1.3,0.6 2.8,0.6 4.3,0.6 z"
   id="path107" />
		
			<linearGradient
   id="SVGID_00000155146718897497639240000016022318588393424575_"
   gradientUnits="userSpaceOnUse"
   x1="393.4295"
   y1="57.843498"
   x2="-21.7386"
   y2="64.572304">
			<stop
   offset="0"
   style="stop-color:#BD965E"
   id="stop109" />
			<stop
   offset="0.5219"
   style="stop-color:#FECB86"
   id="stop111" />
			<stop
   offset="0.6412"
   style="stop-color:#E2B375"
   id="stop113" />
			<stop
   offset="0.8778"
   style="stop-color:#B08552"
   id="stop115" />
			<stop
   offset="1"
   style="stop-color:#987041"
   id="stop117" />
		</linearGradient>
		<path
   style="fill:url(#SVGID_00000155146718897497639240000016022318588393424575_)"
   d="m 268,47.4 v 1.5 h -13.3 v 10.2 h 11.1 v 1.5 H 254.7 V 71.1 H 268 v 1.5 H 252.8 V 47.4 Z"
   id="path120" />
		
			<linearGradient
   id="SVGID_00000095304959951296702950000003088550021971347876_"
   gradientUnits="userSpaceOnUse"
   x1="393.43951"
   y1="58.462601"
   x2="-21.7285"
   y2="65.191399">
			<stop
   offset="0"
   style="stop-color:#BD965E"
   id="stop122" />
			<stop
   offset="0.5219"
   style="stop-color:#FECB86"
   id="stop124" />
			<stop
   offset="0.6412"
   style="stop-color:#E2B375"
   id="stop126" />
			<stop
   offset="0.8778"
   style="stop-color:#B08552"
   id="stop128" />
			<stop
   offset="1"
   style="stop-color:#987041"
   id="stop130" />
		</linearGradient>
		<path
   style="fill:url(#SVGID_00000095304959951296702950000003088550021971347876_)"
   d="m 306.3,68.4 c 0.1,0 0.2,0 0.3,0.1 l 0.7,0.8 c -0.5,0.6 -1.1,1.1 -1.7,1.5 -0.6,0.4 -1.3,0.8 -2,1.1 -0.7,0.3 -1.5,0.6 -2.4,0.7 -0.9,0.2 -1.8,0.3 -2.9,0.3 -1.8,0 -3.4,-0.3 -4.8,-0.9 -1.4,-0.6 -2.7,-1.5 -3.8,-2.6 -1,-1.1 -1.9,-2.5 -2.4,-4.1 -0.6,-1.6 -0.9,-3.4 -0.9,-5.3 0,-1.9 0.3,-3.7 0.9,-5.3 0.6,-1.6 1.4,-2.9 2.5,-4.1 1.1,-1.1 2.4,-2 3.9,-2.6 1.5,-0.6 3.2,-0.9 5,-0.9 0.9,0 1.8,0.1 2.5,0.2 0.8,0.1 1.5,0.3 2.1,0.6 0.7,0.3 1.3,0.6 1.9,1 0.6,0.4 1.2,0.8 1.7,1.3 l -0.6,0.8 c -0.1,0.1 -0.2,0.2 -0.4,0.2 -0.1,0 -0.2,-0.1 -0.4,-0.2 -0.2,-0.1 -0.4,-0.3 -0.6,-0.5 -0.3,-0.2 -0.6,-0.4 -0.9,-0.6 -0.4,-0.2 -0.8,-0.4 -1.3,-0.6 -0.5,-0.2 -1.1,-0.3 -1.7,-0.5 -0.7,-0.1 -1.4,-0.2 -2.2,-0.2 -1.5,0 -2.9,0.3 -4.2,0.8 -1.3,0.5 -2.4,1.3 -3.3,2.3 -0.9,1 -1.7,2.2 -2.2,3.6 -0.5,1.4 -0.8,3 -0.8,4.7 0,1.8 0.3,3.4 0.8,4.8 0.5,1.4 1.2,2.6 2.1,3.6 0.9,1 2,1.7 3.2,2.2 1.2,0.5 2.6,0.8 4,0.8 0.9,0 1.7,-0.1 2.4,-0.2 0.7,-0.1 1.4,-0.3 2,-0.5 0.6,-0.2 1.1,-0.5 1.7,-0.9 0.5,-0.3 1,-0.8 1.5,-1.2 0.1,0 0.1,-0.1 0.2,-0.1 0,-0.1 0.1,-0.1 0.1,-0.1 z"
   id="path133" />
		
			<linearGradient
   id="SVGID_00000056415314468003709700000012155445485295171764_"
   gradientUnits="userSpaceOnUse"
   x1="393.44769"
   y1="58.9659"
   x2="-21.7204"
   y2="65.694702">
			<stop
   offset="0"
   style="stop-color:#BD965E"
   id="stop135" />
			<stop
   offset="0.5219"
   style="stop-color:#FECB86"
   id="stop137" />
			<stop
   offset="0.6412"
   style="stop-color:#E2B375"
   id="stop139" />
			<stop
   offset="0.8778"
   style="stop-color:#B08552"
   id="stop141" />
			<stop
   offset="1"
   style="stop-color:#987041"
   id="stop143" />
		</linearGradient>
		<path
   style="fill:url(#SVGID_00000056415314468003709700000012155445485295171764_)"
   d="m 335.7,72.6 h -1.4 c -0.2,0 -0.3,0 -0.4,-0.1 -0.1,-0.1 -0.2,-0.2 -0.3,-0.3 l -3,-7.3 h -12.4 l -3,7.3 c 0,0.1 -0.1,0.2 -0.3,0.3 -0.1,0.1 -0.3,0.1 -0.4,0.1 h -1.4 l 10.3,-25.3 h 1.8 z m -16.9,-9.1 h 11.3 L 325,50.7 c -0.1,-0.2 -0.2,-0.4 -0.3,-0.7 -0.1,-0.3 -0.2,-0.5 -0.3,-0.8 -0.1,0.3 -0.2,0.6 -0.2,0.8 -0.1,0.3 -0.2,0.5 -0.3,0.7 z"
   id="path146" />
		
			<linearGradient
   id="SVGID_00000098191097118196999130000016751519099585569154_"
   gradientUnits="userSpaceOnUse"
   x1="393.4537"
   y1="59.337299"
   x2="-21.714399"
   y2="66.066101">
			<stop
   offset="0"
   style="stop-color:#BD965E"
   id="stop148" />
			<stop
   offset="0.5219"
   style="stop-color:#FECB86"
   id="stop150" />
			<stop
   offset="0.6412"
   style="stop-color:#E2B375"
   id="stop152" />
			<stop
   offset="0.8778"
   style="stop-color:#B08552"
   id="stop154" />
			<stop
   offset="1"
   style="stop-color:#987041"
   id="stop156" />
		</linearGradient>
		<path
   style="fill:url(#SVGID_00000098191097118196999130000016751519099585569154_)"
   d="m 345.7,61.2 v 11.4 h -1.8 V 47.4 h 6.5 c 2.9,0 5.1,0.6 6.5,1.7 1.4,1.1 2.2,2.8 2.2,5 0,1 -0.2,1.8 -0.5,2.6 -0.3,0.8 -0.8,1.5 -1.4,2.1 -0.6,0.6 -1.4,1.1 -2.3,1.5 -0.9,0.4 -1.9,0.6 -3,0.8 0.3,0.2 0.5,0.4 0.8,0.7 l 8.7,10.9 h -1.6 c -0.2,0 -0.4,0 -0.5,-0.1 -0.1,-0.1 -0.3,-0.2 -0.4,-0.4 l -8.1,-10.3 c -0.2,-0.3 -0.4,-0.4 -0.7,-0.6 -0.2,-0.1 -0.6,-0.2 -1.1,-0.2 h -3.3 z m 0,-1.4 h 4.4 c 1.1,0 2.1,-0.1 3,-0.4 0.9,-0.3 1.6,-0.7 2.3,-1.2 0.6,-0.5 1.1,-1.1 1.4,-1.8 0.3,-0.7 0.5,-1.5 0.5,-2.4 0,-1.8 -0.6,-3.1 -1.8,-4 -1.2,-0.9 -2.9,-1.3 -5.1,-1.3 h -4.6 v 11.1 z"
   id="path159" />
		
			<linearGradient
   id="SVGID_00000106112769899804758140000012303816578985042332_"
   gradientUnits="userSpaceOnUse"
   x1="393.45941"
   y1="59.686501"
   x2="-21.7087"
   y2="66.415298">
			<stop
   offset="0"
   style="stop-color:#BD965E"
   id="stop161" />
			<stop
   offset="0.5219"
   style="stop-color:#FECB86"
   id="stop163" />
			<stop
   offset="0.6412"
   style="stop-color:#E2B375"
   id="stop165" />
			<stop
   offset="0.8778"
   style="stop-color:#B08552"
   id="stop167" />
			<stop
   offset="1"
   style="stop-color:#987041"
   id="stop169" />
		</linearGradient>
		<path
   style="fill:url(#SVGID_00000106112769899804758140000012303816578985042332_)"
   d="m 390.7,60 c 0,2 -0.3,3.7 -0.9,5.3 -0.6,1.6 -1.4,2.9 -2.5,4 -1.1,1.1 -2.3,1.9 -3.8,2.5 -1.5,0.6 -3.1,0.9 -4.9,0.9 h -9.2 V 47.4 h 9.2 c 1.8,0 3.4,0.3 4.9,0.9 1.5,0.6 2.7,1.4 3.8,2.5 1.1,1.1 1.9,2.4 2.5,4 0.6,1.6 0.9,3.3 0.9,5.2 z m -1.9,0 c 0,-1.8 -0.2,-3.3 -0.7,-4.7 -0.5,-1.4 -1.2,-2.5 -2.1,-3.5 -0.9,-1 -2,-1.7 -3.2,-2.2 -1.2,-0.5 -2.6,-0.8 -4.2,-0.8 h -7.4 v 22.3 h 7.4 c 1.5,0 2.9,-0.3 4.2,-0.8 1.3,-0.5 2.3,-1.2 3.2,-2.2 0.9,-1 1.6,-2.1 2.1,-3.5 0.5,-1.4 0.7,-2.8 0.7,-4.6 z"
   id="path172" />
	</g>
	<g
   id="g204">
		<g
   id="g202">
			
				<linearGradient
   id="SVGID_00000099656075565870148390000015794903603397020549_"
   gradientUnits="userSpaceOnUse"
   x1="15.4067"
   y1="69.7071"
   x2="53.292599"
   y2="44.3909">
				<stop
   offset="0"
   style="stop-color:#BD965E"
   id="stop176" />
				<stop
   offset="0.5219"
   style="stop-color:#FECB86"
   id="stop178" />
				<stop
   offset="0.6412"
   style="stop-color:#E2B375"
   id="stop180" />
				<stop
   offset="0.8778"
   style="stop-color:#B08552"
   id="stop182" />
				<stop
   offset="1"
   style="stop-color:#987041"
   id="stop184" />
			</linearGradient>
			<path
   style="fill:url(#SVGID_00000099656075565870148390000015794903603397020549_)"
   d="M 54.9,46.9 C 49,39.1 38.2,36.9 29.3,41.7 c 3.5,7.9 6.1,17.1 23.3,17.6 2,0.1 4.2,0 6.7,-0.2 -0.4,-4.9 -2,-9 -4.4,-12.2"
   id="path187" />
			
				<linearGradient
   id="SVGID_00000052801898364238052470000005965606869274266004_"
   gradientUnits="userSpaceOnUse"
   x1="24.936199"
   y1="83.968102"
   x2="62.822102"
   y2="58.651798">
				<stop
   offset="0"
   style="stop-color:#BD965E"
   id="stop189" />
				<stop
   offset="0.5219"
   style="stop-color:#FECB86"
   id="stop191" />
				<stop
   offset="0.6412"
   style="stop-color:#E2B375"
   id="stop193" />
				<stop
   offset="0.8778"
   style="stop-color:#B08552"
   id="stop195" />
				<stop
   offset="1"
   style="stop-color:#987041"
   id="stop197" />
			</linearGradient>
			<path
   style="fill:url(#SVGID_00000052801898364238052470000005965606869274266004_)"
   d="m 51.8,60.7 c -10.4,0.5 -15.2,4.3 -18.3,8.9 -1.8,2.7 -2.9,5.8 -4.2,8.6 12.6,6.7 28.8,-0.4 30,-17.4 -2.8,-0.2 -5.3,-0.2 -7.5,-0.1"
   id="path200" />
		</g>
	</g>
</g>
</svg>
