<?xml version="1.0" encoding="UTF-8"?>
<!-- Generator: Adobe Illustrator 26.2.1, SVG Export Plug-In . SVG Version: 6.00 Build 0)  -->
<svg id="_x31_00x100_00000106836175572483559210000013882309719335000255_" width="16" height="16" version="1.1" viewBox="0 0 73.6 73.6" xml:space="preserve" xmlns="http://www.w3.org/2000/svg">
<style type="text/css">
	.st0{opacity:0.5;fill:url(#SVGID_1_);}
	.st1{fill:url(#SVGID_00000099632683082659402510000009116418079303391406_);}
	.st2{fill:url(#SVGID_00000163051212540961274740000002988160919324701832_);}
</style>
<radialGradient id="SVGID_1_" cx="13.853" cy="54.5" r="7.8102" gradientTransform="matrix(.9545 0 0 .5 17.776 51.75)" gradientUnits="userSpaceOnUse">
	<stop stop-color="#9D9FA2" offset="0"/>
	<stop stop-color="#9FA1A4" stop-opacity=".7421" offset=".2579"/>
	<stop stop-color="#A6A9AB" stop-opacity=".5631" offset=".4369"/>
	<stop stop-color="#B3B5B7" stop-opacity=".4081" offset=".5919"/>
	<stop stop-color="#C5C7C9" stop-opacity=".2667" offset=".7333"/>
	<stop stop-color="#DCDEDF" stop-opacity=".1344" offset=".8656"/>
	<stop stop-color="#FAFAFA" stop-opacity=".010647" offset=".9894"/>
	<stop stop-color="#fff" stop-opacity="0" offset="1"/>
</radialGradient>


<path d="m36.8 0.9483c-1.4182-1.1051e-4 -2.8345 0.10106-4.2383 0.30273-1.4045 0.2021-2.7928 0.5043-4.1543 0.9043-1.3605 0.39942-2.6907 0.89545-3.9805 1.4844-1.2904 0.58934-2.5371 1.2701-3.7305 2.0371-1.1933 0.76686-2.3303 1.618-3.4023 2.5469-1.0723 0.92909-2.0768 1.9336-3.0059 3.0059-0.92889 1.072-1.78 2.209-2.5469 3.4023-0.767 1.1934-1.4478 2.4401-2.0371 3.7305-0.5889 1.2898-1.085 2.62-1.4844 3.9805-0.4 1.3615-0.7022 2.7498-0.9043 4.1543-0.20168 1.4038-0.30284 2.8201-0.30273 4.2383-1.105e-4 1.4182 0.10106 2.8345 0.30273 4.2383 0.2021 1.4045 0.5043 2.7928 0.9043 4.1543 0.39942 1.3605 0.89546 2.6907 1.4844 3.9805 0.58934 1.2904 1.2701 2.5371 2.0371 3.7305 0.76686 1.1933 1.618 2.3303 2.5469 3.4023 0.92909 1.0723 2.664 2.9714 3.7363 3.9004 0.0022 0.0019 0.0037 4e-3 0.0059 0.0059l17.955 18.354c0.19255 0.19685 0.50628 0.20037 0.70312 0.0078l21.285-20.818h-0.0078c0.4638-0.46848 0.91373-0.95067 1.3457-1.4492 0.92888-1.072 1.78-2.209 2.5469-3.4023 0.767-1.1934 1.4478-2.4401 2.0371-3.7305 0.5889-1.2898 1.085-2.62 1.4844-3.9805 0.4-1.3615 0.70221-2.7498 0.9043-4.1543 0.20168-1.4038 0.30284-2.8201 0.30273-4.2383 2.16e-4 -0.48719-0.01148-0.97436-0.03516-1.4609-0.02451-0.48715-0.06097-0.9736-0.10938-1.459-0.04736-0.4851-0.10662-0.96895-0.17773-1.4512-0.07155-0.48179-0.15491-0.9617-0.25-1.4395-0.09507-0.47846-0.20186-0.95455-0.32031-1.4277-0.11867-0.47252-0.24892-0.94207-0.39062-1.4082-0.1416-0.46658-0.29464-0.92958-0.45898-1.3887-0.16396-0.45866-0.33914-0.9132-0.52539-1.3633-0.18628-0.45074-0.38361-0.89683-0.5918-1.3379-0.2087-0.44021-0.42816-0.87523-0.6582-1.3047-0.22977-0.43032-0.47008-0.85496-0.7207-1.2734-0.25029-0.41778-0.51078-0.82934-0.78125-1.2344-0.27078-0.40526-0.55146-0.80383-0.8418-1.1953-0.29065-0.39142-0.59088-0.7757-0.90039-1.1523-0.30925-0.3769-0.6277-0.74617-0.95508-1.1074-0.32723-0.36105-0.66328-0.71402-1.0078-1.0586-0.34455-0.34454-0.6975-0.68059-1.0586-1.0078-0.36127-0.32737-0.73054-0.64583-1.1074-0.95508-0.37669-0.30952-0.76096-0.60974-1.1523-0.90039-0.39149-0.29034-0.79006-0.57102-1.1953-0.8418-0.40501-0.27047-0.81656-0.53096-1.2344-0.78125-0.41851-0.25063-0.84316-0.49093-1.2734-0.7207-0.42945-0.23004-0.86447-0.4495-1.3047-0.6582-0.44105-0.20819-0.88714-0.40551-1.3379-0.5918-0.45006-0.18625-0.90461-0.36143-1.3633-0.52539-0.45906-0.16434-0.92206-0.31738-1.3887-0.45898-0.46614-0.14171-0.93568-0.27196-1.4082-0.39062-0.47322-0.11845-0.9493-0.22525-1.4277-0.32031-0.4777-0.09509-0.95771-0.17845-1.4395-0.25-0.4822-0.071109-0.96603-0.13037-1.4512-0.17773-0.48536-0.048398-0.97181-0.084863-1.459-0.10938-0.48662-0.023666-0.97379-0.035385-1.4609-0.035156zm0 9.0645a20 20 0 0 1 20 20 20 20 0 0 1-20 20 20 20 0 0 1-20-20 20 20 0 0 1 20-20z"/></svg>
