<?xml version="1.0" encoding="UTF-8" standalone="no"?>
<!-- Generator: Adobe Illustrator 26.2.1, SVG Export Plug-In . SVG Version: 6.00 Build 0)  -->

<svg
   version="1.1"
   x="0px"
   y="0px"
   viewBox="0 0 243.8 153.1"
   style="enable-background:new 0 0 243.8 153.1;"
   xml:space="preserve"
   id="svg1019"
   sodipodi:docname="EBIC-2975-privilege_card_design-2022.svg"
   inkscape:version="1.1.1 (c3084ef, 2021-09-22)"
   xmlns:inkscape="http://www.inkscape.org/namespaces/inkscape"
   xmlns:sodipodi="http://sodipodi.sourceforge.net/DTD/sodipodi-0.dtd"
   xmlns:xlink="http://www.w3.org/1999/xlink"
   xmlns="http://www.w3.org/2000/svg"
   xmlns:svg="http://www.w3.org/2000/svg"><defs
   id="defs1023" /><sodipodi:namedview
   id="namedview1021"
   pagecolor="#505050"
   bordercolor="#ffffff"
   borderopacity="1"
   inkscape:pageshadow="0"
   inkscape:pageopacity="0"
   inkscape:pagecheckerboard="1"
   showgrid="false"
   inkscape:zoom="1.8609404"
   inkscape:cx="123.05606"
   inkscape:cy="40.839567"
   inkscape:window-width="1312"
   inkscape:window-height="916"
   inkscape:window-x="50"
   inkscape:window-y="38"
   inkscape:window-maximized="0"
   inkscape:current-layer="svg1019" />
<style
   type="text/css"
   id="style9">
	.st0{clip-path:url(#SVGID_00000108308195229482675230000010199273575458689707_);}
	.st1{display:none;}
	.st2{display:inline;}
	.st3{fill:#FFFFFF;}
	.st4{display:inline;opacity:0.98;fill:#FECB86;}
	.st5{font-family:'Lato-Light';}
	.st6{font-size:10px;}
	.st7{letter-spacing:1;}
	.st8{opacity:0.98;}
	.st9{fill:url(#SVGID_00000031197865602871170750000013644013216650359723_);}
	.st10{fill:url(#SVGID_00000107556038908168862850000000563328912314450101_);}
	.st11{fill:url(#SVGID_00000150070935419186899940000017380995382831912600_);}
	.st12{fill:url(#SVGID_00000098937820035828833380000002755622406095299988_);}
	.st13{fill:url(#SVGID_00000040546795695809781050000012413190369755704488_);}
	.st14{fill:url(#SVGID_00000008841225516609215210000006158932704147835317_);}
	.st15{fill:url(#SVGID_00000168838735582764796330000002928727662728590781_);}
	.st16{fill:url(#SVGID_00000011753863088403627240000001069647451514422161_);}
	.st17{fill:url(#SVGID_00000059288452751065026590000011935145394997031556_);}
	.st18{fill:url(#SVGID_00000010277054410212035520000002120302152476697512_);}
	.st19{fill:url(#SVGID_00000054988797823029374220000017252539258032388271_);}
	.st20{fill:url(#SVGID_00000092457410176739096480000017466684409010253700_);}
	.st21{fill:url(#SVGID_00000172439571034615204320000003697501353966774669_);}
	.st22{clip-path:url(#SVGID_00000103948806578699706990000003488172881541111958_);fill:#FFFFFF;}
	.st23{clip-path:url(#SVGID_00000103948806578699706990000003488172881541111958_);}
	.st24{clip-path:url(#SVGID_00000017502780649296483420000013522676012931675306_);fill:#FFFFFF;}
	.st25{display:none;clip-path:url(#SVGID_00000108308195229482675230000010199273575458689707_);}
	.st26{display:inline;fill:none;stroke:#FECB86;stroke-width:0.5;stroke-miterlimit:10;}
	.st27{fill:none;stroke:#FECB86;stroke-width:0.5;stroke-miterlimit:10;}
	.st28{clip-path:url(#SVGID_00000151536671373776712250000016132477564097753240_);fill:#F7F7F7;}
	.st29{clip-path:url(#SVGID_00000151536671373776712250000016132477564097753240_);}
	.st30{fill:url(#SVGID_00000044873549118013760770000003044030957738386863_);}
</style>
<g
   id="New_style_3_-front">
	<g
   id="FINAL">
		<defs
   id="defs12">
			<rect
   id="SVGID_1_"
   x="-15.9"
   y="-14.4"
   width="275"
   height="181.8" />
		</defs>
		<clipPath
   id="SVGID_00000008110226388274732560000000677809741102490249_">
			<use
   xlink:href="#SVGID_1_"
   style="overflow:visible;"
   id="use14" />
		</clipPath>
		
			<rect
   x="-15.9"
   y="-14.4"
   style="clip-path:url(#SVGID_00000008110226388274732560000000677809741102490249_);"
   width="275"
   height="181.8"
   clip-path="url(#SVGID_00000008110226388274732560000000677809741102490249_)"
   id="rect17" />
		<g
   style="clip-path:url(#SVGID_00000008110226388274732560000000677809741102490249_);"
   clip-path="url(#SVGID_00000008110226388274732560000000677809741102490249_)"
   id="g243">
			<g
   class="st1"
   id="g25">
				<g
   class="st2"
   id="g23">
					<path
   class="st3"
   d="M259.7,24.6c-23.4-30.9-66-39.6-101.3-20.7c13.8,31.1,24.1,67.5,92.1,69.6c8,0.3,16.7,0,26.4-0.7       C275.5,53.3,269.2,37.2,259.7,24.6"
   id="path19" />
					<path
   class="st3"
   d="M247.2,79.1c-40.9,2-60.1,16.9-72.1,35.3c-7.1,10.8-11.6,22.9-16.7,34.2c49.6,26.5,113.7-1.4,118.5-68.9       C265.9,78.8,256,78.6,247.2,79.1"
   id="path21" />
				</g>
			</g>
			<g
   class="st1"
   id="g29">
				<text
   transform="matrix(1 0 0 1 75.3336 89.1109)"
   class="st4 st5 st6 st7"
   id="text27">PRIVILEGE CARD</text>
			</g>
			<g
   id="g241">
				<g
   class="st8"
   id="g200">
					
						<linearGradient
   id="SVGID_00000080888378167445936500000007430963560691098032_"
   gradientUnits="userSpaceOnUse"
   x1="166.8909"
   y1="95.934"
   x2="50.75"
   y2="97.8164">
						<stop
   offset="0"
   style="stop-color:#BE965D"
   id="stop31" />
						<stop
   offset="0.5219"
   style="stop-color:#FFCB85"
   id="stop33" />
						<stop
   offset="0.626"
   style="stop-color:#EEBC79"
   id="stop35" />
						<stop
   offset="0.8323"
   style="stop-color:#C0935B"
   id="stop37" />
						<stop
   offset="1"
   style="stop-color:#976F40"
   id="stop39" />
					</linearGradient>
					<path
   style="fill:url(#SVGID_00000080888378167445936500000007430963560691098032_);"
   d="M77,98.1v2.8h-0.5v-7.1h1.8       c0.8,0,1.5,0.2,1.9,0.5c0.4,0.4,0.6,0.9,0.6,1.6c0,0.3-0.1,0.6-0.2,0.9c-0.1,0.3-0.3,0.5-0.5,0.7c-0.2,0.2-0.5,0.3-0.8,0.4       c-0.3,0.1-0.7,0.2-1.1,0.2H77z M77,97.7h1.3c0.3,0,0.6,0,0.8-0.1c0.2-0.1,0.5-0.2,0.6-0.4c0.2-0.2,0.3-0.3,0.4-0.5       c0.1-0.2,0.1-0.4,0.1-0.7c0-0.5-0.2-1-0.5-1.3c-0.3-0.3-0.8-0.4-1.5-0.4H77V97.7z"
   id="path42" />
					
						<linearGradient
   id="SVGID_00000114790546744619495190000017097704655374193067_"
   gradientUnits="userSpaceOnUse"
   x1="166.8933"
   y1="96.0818"
   x2="50.7524"
   y2="97.9642">
						<stop
   offset="0"
   style="stop-color:#BE965D"
   id="stop44" />
						<stop
   offset="0.5219"
   style="stop-color:#FFCB85"
   id="stop46" />
						<stop
   offset="0.626"
   style="stop-color:#EEBC79"
   id="stop48" />
						<stop
   offset="0.8323"
   style="stop-color:#C0935B"
   id="stop50" />
						<stop
   offset="1"
   style="stop-color:#976F40"
   id="stop52" />
					</linearGradient>
					<path
   style="fill:url(#SVGID_00000114790546744619495190000017097704655374193067_);"
   d="M84,97.7v3.2h-0.5v-7.1h1.8       c0.8,0,1.4,0.2,1.8,0.5s0.6,0.8,0.6,1.4c0,0.3,0,0.5-0.1,0.7c-0.1,0.2-0.2,0.4-0.4,0.6c-0.2,0.2-0.4,0.3-0.6,0.4       c-0.2,0.1-0.5,0.2-0.8,0.2c0.1,0,0.2,0.1,0.2,0.2l2.4,3.1h-0.4c-0.1,0-0.1,0-0.1,0c0,0-0.1-0.1-0.1-0.1l-2.3-2.9       c-0.1-0.1-0.1-0.1-0.2-0.2c-0.1,0-0.2,0-0.3,0H84z M84,97.4h1.2c0.3,0,0.6,0,0.8-0.1c0.2-0.1,0.5-0.2,0.6-0.3       c0.2-0.1,0.3-0.3,0.4-0.5c0.1-0.2,0.1-0.4,0.1-0.7c0-0.5-0.2-0.9-0.5-1.1c-0.3-0.2-0.8-0.4-1.4-0.4H84V97.4z"
   id="path55" />
					
						<linearGradient
   id="SVGID_00000162332854706503359930000015587905620094170549_"
   gradientUnits="userSpaceOnUse"
   x1="166.8947"
   y1="96.1655"
   x2="50.7538"
   y2="98.0478">
						<stop
   offset="0"
   style="stop-color:#BE965D"
   id="stop57" />
						<stop
   offset="0.5219"
   style="stop-color:#FFCB85"
   id="stop59" />
						<stop
   offset="0.626"
   style="stop-color:#EEBC79"
   id="stop61" />
						<stop
   offset="0.8323"
   style="stop-color:#C0935B"
   id="stop63" />
						<stop
   offset="1"
   style="stop-color:#976F40"
   id="stop65" />
					</linearGradient>
					<path
   style="fill:url(#SVGID_00000162332854706503359930000015587905620094170549_);"
   d="M91.3,100.9h-0.5v-7.1h0.5V100.9z"
   id="path68" />
					
						<linearGradient
   id="SVGID_00000176004356118413989410000007027416823903752590_"
   gradientUnits="userSpaceOnUse"
   x1="166.8958"
   y1="96.2345"
   x2="50.7549"
   y2="98.1168">
						<stop
   offset="0"
   style="stop-color:#BE965D"
   id="stop70" />
						<stop
   offset="0.5219"
   style="stop-color:#FFCB85"
   id="stop72" />
						<stop
   offset="0.626"
   style="stop-color:#EEBC79"
   id="stop74" />
						<stop
   offset="0.8323"
   style="stop-color:#C0935B"
   id="stop76" />
						<stop
   offset="1"
   style="stop-color:#976F40"
   id="stop78" />
					</linearGradient>
					<path
   style="fill:url(#SVGID_00000176004356118413989410000007027416823903752590_);"
   d="M93.6,93.9H94c0,0,0.1,0,0.1,0       c0,0,0.1,0.1,0.1,0.1l2.4,5.9c0.1,0.2,0.1,0.3,0.2,0.5c0-0.2,0.1-0.3,0.1-0.5l2.4-5.9c0,0,0-0.1,0.1-0.1c0,0,0.1,0,0.1,0h0.4       l-2.9,7.1h-0.5L93.6,93.9z"
   id="path81" />
					
						<linearGradient
   id="SVGID_00000061450087631438361910000008662145640529294466_"
   gradientUnits="userSpaceOnUse"
   x1="166.8977"
   y1="96.3507"
   x2="50.7568"
   y2="98.2331">
						<stop
   offset="0"
   style="stop-color:#BE965D"
   id="stop83" />
						<stop
   offset="0.5219"
   style="stop-color:#FFCB85"
   id="stop85" />
						<stop
   offset="0.626"
   style="stop-color:#EEBC79"
   id="stop87" />
						<stop
   offset="0.8323"
   style="stop-color:#C0935B"
   id="stop89" />
						<stop
   offset="1"
   style="stop-color:#976F40"
   id="stop91" />
					</linearGradient>
					<path
   style="fill:url(#SVGID_00000061450087631438361910000008662145640529294466_);"
   d="M102.8,100.9h-0.5v-7.1h0.5V100.9z"
   id="path94" />
					
						<linearGradient
   id="SVGID_00000017509571955624085420000013979658301849477047_"
   gradientUnits="userSpaceOnUse"
   x1="166.8991"
   y1="96.4395"
   x2="50.7613"
   y2="98.3218">
						<stop
   offset="0"
   style="stop-color:#BE965D"
   id="stop96" />
						<stop
   offset="0.5219"
   style="stop-color:#FFCB85"
   id="stop98" />
						<stop
   offset="0.626"
   style="stop-color:#EEBC79"
   id="stop100" />
						<stop
   offset="0.8323"
   style="stop-color:#C0935B"
   id="stop102" />
						<stop
   offset="1"
   style="stop-color:#976F40"
   id="stop104" />
					</linearGradient>
					<path
   style="fill:url(#SVGID_00000017509571955624085420000013979658301849477047_);"
   d="M106.6,100.5h3.4v0.4h-3.9v-7.1h0.5       V100.5z"
   id="path107" />
					
						<linearGradient
   id="SVGID_00000038371711231303248950000017733219124337118105_"
   gradientUnits="userSpaceOnUse"
   x1="166.9008"
   y1="96.5417"
   x2="50.7598"
   y2="98.424">
						<stop
   offset="0"
   style="stop-color:#BE965D"
   id="stop109" />
						<stop
   offset="0.5219"
   style="stop-color:#FFCB85"
   id="stop111" />
						<stop
   offset="0.626"
   style="stop-color:#EEBC79"
   id="stop113" />
						<stop
   offset="0.8323"
   style="stop-color:#C0935B"
   id="stop115" />
						<stop
   offset="1"
   style="stop-color:#976F40"
   id="stop117" />
					</linearGradient>
					<path
   style="fill:url(#SVGID_00000038371711231303248950000017733219124337118105_);"
   d="M116.4,93.9v0.4h-3.7v2.9h3.1v0.4       h-3.1v3h3.7v0.4h-4.2v-7.1H116.4z"
   id="path120" />
					
						<linearGradient
   id="SVGID_00000018930491700004976770000001933212495206707861_"
   gradientUnits="userSpaceOnUse"
   x1="166.9029"
   y1="96.6691"
   x2="50.7619"
   y2="98.5514">
						<stop
   offset="0"
   style="stop-color:#BE965D"
   id="stop122" />
						<stop
   offset="0.5219"
   style="stop-color:#FFCB85"
   id="stop124" />
						<stop
   offset="0.626"
   style="stop-color:#EEBC79"
   id="stop126" />
						<stop
   offset="0.8323"
   style="stop-color:#C0935B"
   id="stop128" />
						<stop
   offset="1"
   style="stop-color:#976F40"
   id="stop130" />
					</linearGradient>
					<path
   style="fill:url(#SVGID_00000018930491700004976770000001933212495206707861_);"
   d="M122.1,100.6c0.2,0,0.5,0,0.7,0       c0.2,0,0.4-0.1,0.6-0.1c0.2,0,0.3-0.1,0.5-0.2c0.2-0.1,0.3-0.2,0.5-0.2v-1.9h-1.4c0,0-0.1,0-0.1,0c0,0,0-0.1,0-0.1v-0.3h2v2.5       c-0.2,0.1-0.4,0.2-0.6,0.3c-0.2,0.1-0.4,0.2-0.6,0.2c-0.2,0.1-0.5,0.1-0.7,0.1s-0.5,0.1-0.8,0.1c-0.5,0-1-0.1-1.4-0.3       s-0.8-0.4-1.1-0.7c-0.3-0.3-0.5-0.7-0.7-1.1c-0.2-0.4-0.2-0.9-0.2-1.5s0.1-1,0.2-1.5s0.4-0.8,0.7-1.1c0.3-0.3,0.7-0.6,1.1-0.7       s0.9-0.3,1.5-0.3c0.3,0,0.5,0,0.7,0.1c0.2,0,0.4,0.1,0.6,0.2c0.2,0.1,0.4,0.2,0.6,0.3c0.2,0.1,0.3,0.2,0.5,0.4l-0.1,0.2       c0,0-0.1,0.1-0.1,0.1c0,0-0.1,0-0.1,0c0,0-0.1-0.1-0.2-0.1c-0.1-0.1-0.2-0.2-0.4-0.2s-0.4-0.2-0.6-0.2s-0.5-0.1-0.9-0.1       c-0.5,0-0.9,0.1-1.2,0.2s-0.7,0.4-0.9,0.6s-0.5,0.6-0.6,1c-0.1,0.4-0.2,0.8-0.2,1.3c0,0.5,0.1,0.9,0.2,1.3       c0.1,0.4,0.3,0.7,0.6,1c0.3,0.3,0.6,0.5,0.9,0.6S121.7,100.6,122.1,100.6z"
   id="path133" />
					
						<linearGradient
   id="SVGID_00000090260881201064619760000008320828709451980981_"
   gradientUnits="userSpaceOnUse"
   x1="166.9048"
   y1="96.7911"
   x2="50.7639"
   y2="98.6735">
						<stop
   offset="0"
   style="stop-color:#BE965D"
   id="stop135" />
						<stop
   offset="0.5219"
   style="stop-color:#FFCB85"
   id="stop137" />
						<stop
   offset="0.626"
   style="stop-color:#EEBC79"
   id="stop139" />
						<stop
   offset="0.8323"
   style="stop-color:#C0935B"
   id="stop141" />
						<stop
   offset="1"
   style="stop-color:#976F40"
   id="stop143" />
					</linearGradient>
					<path
   style="fill:url(#SVGID_00000090260881201064619760000008320828709451980981_);"
   d="M131.8,93.9v0.4h-3.7v2.9h3.1v0.4       h-3.1v3h3.7v0.4h-4.2v-7.1H131.8z"
   id="path146" />
					
						<linearGradient
   id="SVGID_00000130635386242960341340000003591267871692125116_"
   gradientUnits="userSpaceOnUse"
   x1="166.9076"
   y1="96.9643"
   x2="50.7667"
   y2="98.8466">
						<stop
   offset="0"
   style="stop-color:#BE965D"
   id="stop148" />
						<stop
   offset="0.5219"
   style="stop-color:#FFCB85"
   id="stop150" />
						<stop
   offset="0.626"
   style="stop-color:#EEBC79"
   id="stop152" />
						<stop
   offset="0.8323"
   style="stop-color:#C0935B"
   id="stop154" />
						<stop
   offset="1"
   style="stop-color:#976F40"
   id="stop156" />
					</linearGradient>
					<path
   style="fill:url(#SVGID_00000130635386242960341340000003591267871692125116_);"
   d="M142.5,99.7       C142.6,99.7,142.6,99.8,142.5,99.7l0.3,0.2c-0.1,0.2-0.3,0.3-0.5,0.4c-0.2,0.1-0.4,0.2-0.6,0.3c-0.2,0.1-0.4,0.2-0.7,0.2       c-0.2,0-0.5,0.1-0.8,0.1c-0.5,0-0.9-0.1-1.3-0.3s-0.8-0.4-1-0.7c-0.3-0.3-0.5-0.7-0.7-1.1c-0.2-0.4-0.2-0.9-0.2-1.5       c0-0.5,0.1-1,0.3-1.5c0.2-0.4,0.4-0.8,0.7-1.1c0.3-0.3,0.7-0.6,1.1-0.7s0.9-0.3,1.4-0.3c0.3,0,0.5,0,0.7,0.1       c0.2,0,0.4,0.1,0.6,0.2c0.2,0.1,0.4,0.2,0.5,0.3s0.3,0.2,0.5,0.4l-0.2,0.2c0,0-0.1,0.1-0.1,0.1c0,0-0.1,0-0.1-0.1       s-0.1-0.1-0.2-0.1s-0.2-0.1-0.3-0.2s-0.2-0.1-0.4-0.2c-0.1-0.1-0.3-0.1-0.5-0.1c-0.2,0-0.4-0.1-0.6-0.1c-0.4,0-0.8,0.1-1.2,0.2       c-0.4,0.1-0.7,0.4-0.9,0.6c-0.3,0.3-0.5,0.6-0.6,1c-0.1,0.4-0.2,0.8-0.2,1.3c0,0.5,0.1,0.9,0.2,1.3c0.1,0.4,0.3,0.7,0.6,1       c0.3,0.3,0.6,0.5,0.9,0.6c0.3,0.1,0.7,0.2,1.1,0.2c0.3,0,0.5,0,0.7,0s0.4-0.1,0.5-0.1c0.2-0.1,0.3-0.1,0.5-0.2s0.3-0.2,0.4-0.3       C142.5,99.8,142.5,99.8,142.5,99.7C142.5,99.7,142.5,99.7,142.5,99.7z"
   id="path159" />
					
						<linearGradient
   id="SVGID_00000010999440122176977850000011889883963289523377_"
   gradientUnits="userSpaceOnUse"
   x1="166.9099"
   y1="97.1051"
   x2="50.769"
   y2="98.9874">
						<stop
   offset="0"
   style="stop-color:#BE965D"
   id="stop161" />
						<stop
   offset="0.5219"
   style="stop-color:#FFCB85"
   id="stop163" />
						<stop
   offset="0.626"
   style="stop-color:#EEBC79"
   id="stop165" />
						<stop
   offset="0.8323"
   style="stop-color:#C0935B"
   id="stop167" />
						<stop
   offset="1"
   style="stop-color:#976F40"
   id="stop169" />
					</linearGradient>
					<path
   style="fill:url(#SVGID_00000010999440122176977850000011889883963289523377_);"
   d="M150.8,100.9h-0.4c0,0-0.1,0-0.1,0       c0,0-0.1-0.1-0.1-0.1l-0.8-2.1h-3.5l-0.8,2.1c0,0,0,0.1-0.1,0.1s-0.1,0-0.1,0h-0.4l2.9-7.1h0.5L150.8,100.9z M146,98.4h3.2       l-1.4-3.6c0-0.1,0-0.1-0.1-0.2c0-0.1,0-0.1-0.1-0.2c0,0.1,0,0.2-0.1,0.2c0,0.1,0,0.1-0.1,0.2L146,98.4z"
   id="path172" />
					
						<linearGradient
   id="SVGID_00000055687073844562747120000004048917358196488600_"
   gradientUnits="userSpaceOnUse"
   x1="166.9116"
   y1="97.209"
   x2="50.7707"
   y2="99.0913">
						<stop
   offset="0"
   style="stop-color:#BE965D"
   id="stop174" />
						<stop
   offset="0.5219"
   style="stop-color:#FFCB85"
   id="stop176" />
						<stop
   offset="0.626"
   style="stop-color:#EEBC79"
   id="stop178" />
						<stop
   offset="0.8323"
   style="stop-color:#C0935B"
   id="stop180" />
						<stop
   offset="1"
   style="stop-color:#976F40"
   id="stop182" />
					</linearGradient>
					<path
   style="fill:url(#SVGID_00000055687073844562747120000004048917358196488600_);"
   d="M153.5,97.7v3.2H153v-7.1h1.8       c0.8,0,1.4,0.2,1.8,0.5s0.6,0.8,0.6,1.4c0,0.3,0,0.5-0.1,0.7c-0.1,0.2-0.2,0.4-0.4,0.6c-0.2,0.2-0.4,0.3-0.6,0.4       c-0.2,0.1-0.5,0.2-0.8,0.2c0.1,0,0.2,0.1,0.2,0.2l2.4,3.1h-0.4c-0.1,0-0.1,0-0.1,0c0,0-0.1-0.1-0.1-0.1l-2.3-2.9       c-0.1-0.1-0.1-0.1-0.2-0.2c-0.1,0-0.2,0-0.3,0H153.5z M153.5,97.4h1.2c0.3,0,0.6,0,0.8-0.1c0.2-0.1,0.5-0.2,0.6-0.3       c0.2-0.1,0.3-0.3,0.4-0.5c0.1-0.2,0.1-0.4,0.1-0.7c0-0.5-0.2-0.9-0.5-1.1s-0.8-0.4-1.4-0.4h-1.3V97.4z"
   id="path185" />
					
						<linearGradient
   id="SVGID_00000030481924115401374810000000132457181648580235_"
   gradientUnits="userSpaceOnUse"
   x1="166.9132"
   y1="97.3067"
   x2="50.7722"
   y2="99.189">
						<stop
   offset="0"
   style="stop-color:#BE965D"
   id="stop187" />
						<stop
   offset="0.5219"
   style="stop-color:#FFCB85"
   id="stop189" />
						<stop
   offset="0.626"
   style="stop-color:#EEBC79"
   id="stop191" />
						<stop
   offset="0.8323"
   style="stop-color:#C0935B"
   id="stop193" />
						<stop
   offset="1"
   style="stop-color:#976F40"
   id="stop195" />
					</linearGradient>
					<path
   style="fill:url(#SVGID_00000030481924115401374810000000132457181648580235_);"
   d="M166.1,97.4c0,0.5-0.1,1-0.2,1.5       c-0.2,0.4-0.4,0.8-0.7,1.1c-0.3,0.3-0.7,0.5-1.1,0.7s-0.9,0.2-1.4,0.2h-2.6v-7.1h2.6c0.5,0,1,0.1,1.4,0.2s0.8,0.4,1.1,0.7       c0.3,0.3,0.5,0.7,0.7,1.1S166.1,96.8,166.1,97.4z M165.6,97.4c0-0.5-0.1-0.9-0.2-1.3s-0.3-0.7-0.6-1s-0.5-0.5-0.9-0.6       c-0.3-0.1-0.7-0.2-1.2-0.2h-2.1v6.2h2.1c0.4,0,0.8-0.1,1.2-0.2s0.6-0.3,0.9-0.6s0.4-0.6,0.6-1S165.6,97.9,165.6,97.4z"
   id="path198" />
				</g>
				<g
   id="evolution_x5F_logo_x5F_print_x5F_white_00000163763122277451988070000008072076729451872898_">
					<g
   id="g238">
						<defs
   id="defs203">
							<rect
   id="SVGID_00000142864846106861169840000010296067641811253426_"
   x="36.9"
   y="42.1"
   width="170.1"
   height="52.8" />
						</defs>
						<clipPath
   id="SVGID_00000156562562656901132830000015560582820274269060_">
							<use
   xlink:href="#SVGID_00000142864846106861169840000010296067641811253426_"
   style="overflow:visible;"
   id="use205" />
						</clipPath>
						<polygon
   style="clip-path:url(#SVGID_00000156562562656901132830000015560582820274269060_);fill:#FFFFFF;"
   points="        71.8,57.2 87.5,57.2 87.5,60.8 75.8,60.8 75.8,66 83.6,66 83.6,69.6 75.8,69.6 75.8,75.4 87.8,75.4 87.8,78.9 71.8,78.9               "
   clip-path="url(#SVGID_00000156562562656901132830000015560582820274269060_)"
   id="polygon208" />
						<polygon
   style="clip-path:url(#SVGID_00000156562562656901132830000015560582820274269060_);fill:#FFFFFF;"
   points="        86.7,63.5 90.9,63.5 94.6,74.3 98,63.5 102,63.5 96.4,78.9 92.6,78.9       "
   clip-path="url(#SVGID_00000156562562656901132830000015560582820274269060_)"
   id="polygon210" />
						<g
   style="clip-path:url(#SVGID_00000156562562656901132830000015560582820274269060_);"
   clip-path="url(#SVGID_00000156562562656901132830000015560582820274269060_)"
   id="g236">
							<defs
   id="defs213">
								<rect
   id="SVGID_00000168085596822723235090000002821921500245518240_"
   x="36.9"
   y="42.1"
   width="170.1"
   height="52.8" />
							</defs>
							<clipPath
   id="SVGID_00000106127771782657748780000013811886969320631438_">
								<use
   xlink:href="#SVGID_00000168085596822723235090000002821921500245518240_"
   style="overflow:visible;"
   id="use215" />
							</clipPath>
							<path
   style="clip-path:url(#SVGID_00000106127771782657748780000013811886969320631438_);fill:#FFFFFF;"
   d="M101.4,71.3         c0-4.7,3.3-8,7.9-8c4.6,0,7.9,3.3,7.9,8c0,4.6-3.3,8-8,8C104.6,79.2,101.4,76,101.4,71.3 M113.1,71.4v-0.1         c0-2.9-1.4-4.7-3.8-4.7c-2.4,0-3.8,1.8-3.8,4.7v0.1c0,2.9,1.4,4.6,3.8,4.6C111.6,75.9,113.1,74.2,113.1,71.4"
   clip-path="url(#SVGID_00000106127771782657748780000013811886969320631438_)"
   id="path218" />
							
								<rect
   x="119.1"
   y="56.9"
   style="clip-path:url(#SVGID_00000106127771782657748780000013811886969320631438_);fill:#FFFFFF;"
   width="4.1"
   height="22"
   clip-path="url(#SVGID_00000106127771782657748780000013811886969320631438_)"
   id="rect220" />
							<path
   style="clip-path:url(#SVGID_00000106127771782657748780000013811886969320631438_);fill:#FFFFFF;"
   d="M125.5,72.8v-9.3         h4.1v9c0,2.1,1,3.3,2.8,3.3c2.1,0,3-1.8,3-4.4v-7.8h4.1v15.4h-4.1v-2.2c-0.8,1.6-2.2,2.5-4.2,2.5         C127.6,79.2,125.5,76.8,125.5,72.8"
   clip-path="url(#SVGID_00000106127771782657748780000013811886969320631438_)"
   id="path222" />
							<path
   style="clip-path:url(#SVGID_00000106127771782657748780000013811886969320631438_);fill:#FFFFFF;"
   d="M143.1,74.9v-8.1         h-2.2v-3.3h2.2v-2.9l4-2.2v5.1h3v3.3h-3.1v7.7c0,0.8,0.4,1.1,1.1,1.1h1.8v3.4h-3.1C143.8,78.8,143.2,77.4,143.1,74.9"
   clip-path="url(#SVGID_00000106127771782657748780000013811886969320631438_)"
   id="path224" />
							<path
   style="clip-path:url(#SVGID_00000106127771782657748780000013811886969320631438_);fill:#FFFFFF;"
   d="M152,57.3h4.2v4         H152V57.3z M152,63.5h4.1v15.4H152V63.5z"
   clip-path="url(#SVGID_00000106127771782657748780000013811886969320631438_)"
   id="path226" />
							<path
   style="clip-path:url(#SVGID_00000106127771782657748780000013811886969320631438_);fill:#FFFFFF;"
   d="M158,71.3         c0-4.7,3.3-8,7.9-8c4.6,0,7.9,3.3,7.9,8c0,4.6-3.3,8-8,8C161.2,79.2,158,76,158,71.3 M169.7,71.4v-0.1c0-2.9-1.4-4.7-3.8-4.7         c-2.4,0-3.8,1.8-3.8,4.7v0.1c0,2.9,1.4,4.6,3.8,4.6C168.2,75.9,169.7,74.2,169.7,71.4"
   clip-path="url(#SVGID_00000106127771782657748780000013811886969320631438_)"
   id="path228" />
							<path
   style="clip-path:url(#SVGID_00000106127771782657748780000013811886969320631438_);fill:#FFFFFF;"
   d="M175.6,63.5h4.1         V66c0.8-1.8,2.3-2.8,4.5-2.8c3.4,0,5.4,2.3,5.4,6.5v9.3h-4.1v-9c0-2.2-0.8-3.3-2.7-3.3c-1.9,0-3.1,1.6-3.1,4.4v7.8h-4.1V63.5         z"
   clip-path="url(#SVGID_00000106127771782657748780000013811886969320631438_)"
   id="path230" />
							<path
   style="clip-path:url(#SVGID_00000106127771782657748780000013811886969320631438_);fill:#FFFFFF;"
   d="M64.9,59.6         c-3.7-4.9-10.4-6.2-16-3.3c2.2,4.9,3.8,10.7,14.5,11c1.3,0,2.6,0,4.2-0.1C67.4,64.1,66.4,61.6,64.9,59.6"
   clip-path="url(#SVGID_00000106127771782657748780000013811886969320631438_)"
   id="path232" />
							<path
   style="clip-path:url(#SVGID_00000106127771782657748780000013811886969320631438_);fill:#FFFFFF;"
   d="M62.9,68.2         c-6.5,0.3-9.5,2.7-11.4,5.6c-1.1,1.7-1.8,3.6-2.6,5.4c7.8,4.2,17.9-0.2,18.7-10.9C65.8,68.2,64.3,68.1,62.9,68.2"
   clip-path="url(#SVGID_00000106127771782657748780000013811886969320631438_)"
   id="path234" />
						</g>
					</g>
				</g>
			</g>
		</g>
		<g
   style="display:none;clip-path:url(#SVGID_00000008110226388274732560000000677809741102490249_);"
   clip-path="url(#SVGID_00000008110226388274732560000000677809741102490249_)"
   id="g249">
			<path
   class="st26"
   d="M323.3-38.6c-41.5-54.8-117.1-70.2-179.7-36.8C168-20.3,186.4,44.4,307,48.1c14.2,0.4,29.7,0.1,46.9-1.3     C351.4,12.3,340.1-16.4,323.3-38.6z"
   id="path245" />
			<path
   class="st26"
   d="M301,57.9c-72.6,3.6-106.7,30.1-128,62.7c-12.5,19.2-20.6,40.5-29.5,60.6c88,47,201.7-2.6,210.3-122.3     C334.2,57.4,316.7,57.1,301,57.9z"
   id="path247" />
		</g>
		<g
   style="clip-path:url(#SVGID_00000008110226388274732560000000677809741102490249_);"
   clip-path="url(#SVGID_00000008110226388274732560000000677809741102490249_)"
   id="g255">
			<path
   class="st27"
   d="M305.3-20.2c-25.6-33.7-72.1-43.2-110.6-22.6c15.1,33.9,26.4,73.7,100.6,76c8.7,0.3,18.3,0,28.8-0.8     C322.6,11.2,315.7-6.5,305.3-20.2z"
   id="path251" />
			<path
   class="st27"
   d="M291.6,39.2c-44.7,2.2-65.7,18.5-78.8,38.6c-7.7,11.8-12.7,25-18.2,37.3c54.2,28.9,124.2-1.6,129.4-75.3     C312,38.9,301.3,38.8,291.6,39.2z"
   id="path253" />
		</g>
		<g
   style="clip-path:url(#SVGID_00000008110226388274732560000000677809741102490249_);"
   clip-path="url(#SVGID_00000008110226388274732560000000677809741102490249_)"
   id="g261">
			<path
   class="st27"
   d="M38.6,104.6C7.1,63.1-50.1,51.4-97.5,76.7c18.5,41.7,32.4,90.7,123.8,93.6c10.7,0.3,22.5,0,35.5-1     C59.9,143.2,51.3,121.4,38.6,104.6z"
   id="path257" />
			<path
   class="st27"
   d="M21.7,177.7c-55,2.7-80.8,22.8-96.9,47.5c-9.5,14.5-15.6,30.7-22.4,45.9c66.7,35.6,152.8-1.9,159.3-92.6     C46.9,177.3,33.6,177.1,21.7,177.7z"
   id="path259" />
		</g>
	</g>
</g>

</svg>
